SplineFontDB: 3.0
FontName: CodifiedICAO-Regular
FullName: CodifiedICAO-Regular
FamilyName: CodifiedICAO-Regular
Weight: Regular
Copyright: Font based in Carlito, by tyPoland Lukasz Dziedzic. Licensed under the SIL Open Font License, version 1.1
Version: 0.1
ItalicAngle: 0
UnderlinePosition: -200
UnderlineWidth: 194
Ascent: 1536
Descent: 512
InvalidEm: 0
LayerCount: 2
Layer: 0 1 "Back" 1
Layer: 1 1 "Fore" 0
XUID: [1021 574 1222651992 7963841]
StyleMap: 0x0040
FSType: 0
OS2Version: 3
OS2_WeightWidthSlopeOnly: 0
OS2_UseTypoMetrics: 0
CreationTime: -835834854
ModificationTime: 1503426574
PfmFamily: 17
TTFWeight: 400
TTFWidth: 5
LineGap: 452
VLineGap: 0
OS2TypoAscent: 1536
OS2TypoAOffset: 0
OS2TypoDescent: -512
OS2TypoDOffset: 0
OS2TypoLinegap: 452
OS2WinAscent: 1950
OS2WinAOffset: 0
OS2WinDescent: 550
OS2WinDOffset: 0
HheadAscent: 1536
HheadAOffset: 0
HheadDescent: -512
HheadDOffset: 0
OS2SubXSize: 1433
OS2SubYSize: 1331
OS2SubXOff: 0
OS2SubYOff: 286
OS2SupXSize: 1433
OS2SupYSize: 1331
OS2SupXOff: 0
OS2SupYOff: 976
OS2StrikeYSize: 134
OS2StrikeYPos: 512
OS2CapHeight: 1314
OS2XHeight: 978
OS2Vendor: '    '
OS2CodePages: 00000000.00000000
OS2UnicodeRanges: 00000001.00000000.00000000.00000000
Lookup: 258 0 0 "'kern' Horizontal Kerning 1" { "'kern' Horizontal Kerning 1 pairs 0" [307,30,2] } ['kern' ('DFLT' <'dflt' > 'latn' <'ROM ' 'TRK ' 'dflt' > ) ]
MarkAttachClasses: 1
DEI: 91125
TtTable: prep
MPPEM
PUSHW_1
 200
GT
IF
PUSHB_2
 1
 1
INSTCTRL
EIF
PUSHW_2
 2048
 2048
MUL
DUP
PUSHB_1
 1
SWAP
WCVTP
PUSHB_1
 3
SWAP
WCVTF
PUSHB_1
 23
RCVT
DUP
DUP
PUSHB_1
 40
ADD
FLOOR
DUP
ROLL
NEQ
IF
PUSHB_1
 2
CINDEX
SUB
PUSHB_1
 1
RCVT
MUL
SWAP
DIV
PUSHB_1
 2
SWAP
WCVTP
PUSHB_3
 11
 1
 6
LOOPCALL
PUSHB_3
 12
 6
 6
LOOPCALL
PUSHB_3
 20
 6
 6
LOOPCALL
EIF
PUSHB_3
 4
 40
 9
RCVT
GT
WCVTP
PUSHB_3
 12
 8
 7
LOOPCALL
PUSHB_2
 6
 1
WCVTP
PUSHB_2
 36
 1
GETINFO
LTEQ
IF
PUSHB_1
 64
GETINFO
IF
PUSHB_2
 6
 3
WCVTP
PUSHB_2
 38
 1
GETINFO
LTEQ
IF
PUSHW_1
 1024
GETINFO
IF
PUSHB_2
 6
 1
WCVTP
EIF
EIF
EIF

StartChar: glyph1
Encoding: 0 -1 0
AltUni2: 000000.ffffffff.0
Width: 0
Flags: W
LayerCount: 2
Fore
SplineSet
-17 -330 m 0,0,1
 -17 -323 -17 -323 -12 -318 c 128,-1,2
 -7 -313 -7 -313 0 -313 c 0,3,4
 8 -313 8 -313 13 -318 c 128,-1,5
 18 -323 18 -323 18 -330 c 0,6,7
 18 -338 18 -338 13 -343 c 128,-1,8
 8 -348 8 -348 0 -348 c 0,9,10
 -7 -348 -7 -348 -12 -343 c 128,-1,11
 -17 -338 -17 -338 -17 -330 c 0,0,1
EndSplineSet
Validated: 1
EndChar

StartChar: space
Encoding: 32 32 1
Width: 328
GlyphClass: 2
Flags: W
LayerCount: 2
Fore
SplineSet
-304 -20 m 2,0,1
 -318 -54 -318 -54 -345 -70.5 c 128,-1,2
 -372 -87 -372 -87 -401 -87 c 2,3,-1
 -475 -87 l 1,4,-1
 171 1358 l 2,5,6
 196 1422 196 1422 263 1422 c 2,7,-1
 337 1422 l 1,8,-1
 -304 -20 l 2,0,1
EndSplineSet
Validated: 1
EndChar

StartChar: A
Encoding: 65 65 2
Width: 4520
GlyphClass: 2
Flags: W
LayerCount: 2
Fore
SplineSet
2928 1314 m 1,0,-1
 2928 1166 l 1,1,-1
 2367 1166 l 1,2,-1
 2367 711 l 1,3,-1
 2844 711 l 1,4,-1
 2844 563 l 1,5,-1
 2367 563 l 1,6,-1
 2367 0 l 1,7,-1
 2184 0 l 1,8,-1
 2184 1314 l 1,9,-1
 2928 1314 l 1,0,-1
4050 0 m 1,10,-1
 3909 0 l 2,11,12
 3885 0 3885 0 3870 12 c 0,13,14
 3854 26 3854 26 3848 42 c 2,15,-1
 3736 358 l 1,16,-1
 3194 358 l 1,17,-1
 3083 43 l 2,18,19
 3077 26 3077 26 3060.5 13 c 128,-1,20
 3044 0 3044 0 3021 0 c 2,21,-1
 2880 0 l 1,22,-1
 3373 1314 l 1,23,-1
 3558 1314 l 1,24,-1
 4050 0 l 1,10,-1
3240 488 m 1,25,-1
 3690 488 l 1,26,-1
 3504 1017 l 2,27,28
 3494 1041 3494 1041 3484 1073 c 128,-1,29
 3474 1105 3474 1105 3465 1142 c 1,30,31
 3455 1104 3455 1104 3445 1072 c 0,32,33
 3432 1034 3432 1034 3426 1016 c 2,34,-1
 3240 488 l 1,25,-1
1505 153 m 1,35,-1
 2012 153 l 1,36,-1
 2012 0 l 1,37,-1
 1323 0 l 1,38,-1
 1323 1314 l 1,39,-1
 1505 1314 l 1,40,-1
 1505 153 l 1,35,-1
1178 0 m 1,41,-1
 1037 0 l 2,42,43
 1013 0 1013 0 998.5 12 c 128,-1,44
 984 24 984 24 976 42 c 2,45,-1
 864 358 l 1,46,-1
 322 358 l 1,47,-1
 211 43 l 2,48,49
 205 26 205 26 188.5 13 c 128,-1,50
 172 0 172 0 149 0 c 2,51,-1
 8 0 l 1,52,-1
 501 1314 l 1,53,-1
 686 1314 l 1,54,-1
 1178 0 l 1,41,-1
368 488 m 1,55,-1
 818 488 l 1,56,-1
 632 1017 l 2,57,58
 622 1041 622 1041 612 1073 c 128,-1,59
 602 1105 602 1105 593 1142 c 1,60,61
 583 1104 583 1104 573 1072 c 128,-1,62
 563 1040 563 1040 554 1016 c 2,63,-1
 368 488 l 1,55,-1
EndSplineSet
Validated: 1
EndChar

StartChar: B
Encoding: 66 66 3
Width: 6276
GlyphClass: 2
Flags: W
LayerCount: 2
Fore
SplineSet
5741 671 m 0,0,1
 5741 523 5741 523 5697.5 400 c 128,-1,2
 5654 277 5654 277 5574.5 188 c 128,-1,3
 5495 99 5495 99 5383.5 49.5 c 128,-1,4
 5272 0 5272 0 5136 0 c 0,5,6
 5001 0 5001 0 4889 49.5 c 128,-1,7
 4777 99 4777 99 4697 188 c 128,-1,8
 4617 277 4617 277 4573 400 c 128,-1,9
 4529 523 4529 523 4529 671 c 0,10,11
 4529 818 4529 818 4573 941.5 c 128,-1,12
 4617 1065 4617 1065 4697 1154.5 c 128,-1,13
 4777 1244 4777 1244 4889 1293.5 c 128,-1,14
 5001 1343 5001 1343 5136 1343 c 0,15,16
 5272 1343 5272 1343 5383.5 1293.5 c 128,-1,17
 5495 1244 5495 1244 5574.5 1154.5 c 128,-1,18
 5654 1065 5654 1065 5697.5 941.5 c 128,-1,19
 5741 818 5741 818 5741 671 c 0,0,1
5555 671 m 256,20,21
 5555 791 5555 791 5525.5 886.5 c 128,-1,22
 5496 982 5496 982 5441.5 1048.5 c 128,-1,23
 5387 1115 5387 1115 5309.5 1150.5 c 128,-1,24
 5232 1186 5232 1186 5136 1186 c 256,25,26
 5040 1186 5040 1186 4962.5 1150.5 c 128,-1,27
 4885 1115 4885 1115 4830 1048.5 c 128,-1,28
 4775 982 4775 982 4745.5 886.5 c 128,-1,29
 4716 791 4716 791 4716 671 c 256,30,31
 4716 551 4716 551 4745.5 455.5 c 128,-1,32
 4775 360 4775 360 4830 293.5 c 128,-1,33
 4885 227 4885 227 4962.5 192 c 128,-1,34
 5040 157 5040 157 5136 157 c 256,35,36
 5232 157 5232 157 5309.5 192 c 128,-1,37
 5387 227 5387 227 5441.5 293.5 c 128,-1,38
 5496 360 5496 360 5525.5 455.5 c 128,-1,39
 5555 551 5555 551 5555 671 c 256,20,21
3328 1314 m 1,40,-1
 3475 1314 l 2,41,42
 3499 1314 3499 1314 3514 1302 c 0,43,44
 3530 1289 3530 1289 3536 1272 c 2,45,-1
 3861 351 l 2,46,47
 3883 287 3883 287 3884 284 c 0,48,49
 3896 247 3896 247 3905 207 c 1,50,51
 3913 247 3913 247 3924 284 c 0,52,53
 3928 300 3928 300 3946 351 c 2,54,-1
 4270 1271 l 2,55,56
 4276 1288 4276 1288 4292 1301 c 128,-1,57
 4308 1314 4308 1314 4331 1314 c 2,58,-1
 4478 1314 l 1,59,-1
 3985 0 l 1,60,-1
 3821 0 l 1,61,-1
 3328 1314 l 1,40,-1
3404 0 m 1,62,-1
 3263 0 l 2,63,64
 3239 0 3239 0 3224 12 c 0,65,66
 3208 26 3208 26 3202 42 c 2,67,-1
 3090 358 l 1,68,-1
 2548 358 l 1,69,-1
 2437 43 l 2,70,71
 2431 26 2431 26 2414.5 13 c 128,-1,72
 2398 0 2398 0 2375 0 c 2,73,-1
 2234 0 l 1,74,-1
 2727 1314 l 1,75,-1
 2912 1314 l 1,76,-1
 3404 0 l 1,62,-1
2594 488 m 1,77,-1
 3044 488 l 1,78,-1
 2858 1017 l 2,79,80
 2848 1041 2848 1041 2838 1073 c 128,-1,81
 2828 1105 2828 1105 2819 1142 c 1,82,83
 2809 1104 2809 1104 2799 1072 c 0,84,85
 2786 1034 2786 1034 2780 1016 c 2,86,-1
 2594 488 l 1,77,-1
1443 546 m 1,87,-1
 1443 0 l 1,88,-1
 1261 0 l 1,89,-1
 1261 1314 l 1,90,-1
 1621 1314 l 2,91,92
 1741 1314 1741 1314 1828.5 1288.5 c 128,-1,93
 1916 1263 1916 1263 1972.5 1215.5 c 128,-1,94
 2029 1168 2029 1168 2056 1100.5 c 128,-1,95
 2083 1033 2083 1033 2083 949 c 0,96,97
 2083 880 2083 880 2062.5 820 c 128,-1,98
 2042 760 2042 760 2003.5 712 c 128,-1,99
 1965 664 1965 664 1909 629.5 c 128,-1,100
 1853 595 1853 595 1782 577 c 1,101,102
 1799 566 1799 566 1814 552 c 0,103,104
 1832 536 1832 536 1843 520 c 2,105,-1
 2196 0 l 1,106,-1
 2034 0 l 2,107,108
 1986 0 1986 0 1961 37 c 2,109,-1
 1650 505 l 2,110,111
 1635 527 1635 527 1617.5 536.5 c 128,-1,112
 1600 546 1600 546 1565 546 c 2,113,-1
 1443 546 l 1,87,-1
1443 679 m 1,114,-1
 1614 679 l 2,115,116
 1686 679 1686 679 1740.5 697.5 c 128,-1,117
 1795 716 1795 716 1832 750 c 128,-1,118
 1869 784 1869 784 1887.5 831.5 c 128,-1,119
 1906 879 1906 879 1906 936 c 0,120,121
 1906 1171 1906 1171 1621 1171 c 2,122,-1
 1443 1171 l 1,123,-1
 1443 679 l 1,114,-1
144 0 m 1,124,-1
 144 1314 l 1,125,-1
 545 1314 l 2,126,127
 661 1314 661 1314 744.5 1290.5 c 128,-1,128
 828 1267 828 1267 881.5 1222.5 c 128,-1,129
 935 1178 935 1178 960 1114.5 c 128,-1,130
 985 1051 985 1051 985 971 c 0,131,132
 985 923 985 923 970.5 878 c 128,-1,133
 956 833 956 833 927 795 c 128,-1,134
 898 757 898 757 854 726 c 128,-1,135
 810 695 810 695 750 676 c 1,136,137
 887 649 887 649 956.5 573.5 c 128,-1,138
 1026 498 1026 498 1026 375 c 0,139,140
 1026 291 1026 291 997 222 c 128,-1,141
 968 153 968 153 912 103.5 c 128,-1,142
 856 54 856 54 774.5 27 c 128,-1,143
 693 0 693 0 588 0 c 2,144,-1
 144 0 l 1,124,-1
326 598 m 1,145,-1
 326 144 l 1,146,-1
 585 144 l 2,147,148
 654 144 654 144 703.5 161.5 c 128,-1,149
 753 179 753 179 784.5 210 c 128,-1,150
 816 241 816 241 830.5 284.5 c 128,-1,151
 845 328 845 328 845 379 c 0,152,153
 845 480 845 480 781.5 539 c 128,-1,154
 718 598 718 598 585 598 c 2,155,-1
 326 598 l 1,145,-1
326 726 m 1,156,-1
 538 726 l 2,157,158
 605 726 605 726 655 742.5 c 128,-1,159
 705 759 705 759 738 788 c 128,-1,160
 771 817 771 817 787.5 858 c 128,-1,161
 804 899 804 899 804 949 c 0,162,163
 804 1064 804 1064 741.5 1117.5 c 128,-1,164
 679 1171 679 1171 545 1171 c 2,165,-1
 326 1171 l 1,166,-1
 326 726 l 1,156,-1
EndSplineSet
Validated: 1
EndChar

StartChar: C
Encoding: 67 67 4
Width: 7505
GlyphClass: 2
Flags: W
LayerCount: 2
Fore
SplineSet
6955 1314 m 1,0,-1
 6955 1166 l 1,1,-1
 6370 1166 l 1,2,-1
 6370 735 l 1,3,-1
 6841 735 l 1,4,-1
 6841 592 l 1,5,-1
 6370 592 l 1,6,-1
 6370 148 l 1,7,-1
 6955 148 l 1,8,-1
 6955 0 l 1,9,-1
 6187 0 l 1,10,-1
 6187 1314 l 1,11,-1
 6955 1314 l 1,0,-1
5875 0 m 1,12,-1
 5693 0 l 1,13,-1
 5693 1314 l 1,14,-1
 5875 1314 l 1,15,-1
 5875 0 l 1,12,-1
4985 153 m 1,16,-1
 5492 153 l 1,17,-1
 5492 0 l 1,18,-1
 4803 0 l 1,19,-1
 4803 1314 l 1,20,-1
 4985 1314 l 1,21,-1
 4985 153 l 1,16,-1
3882 546 m 1,22,-1
 3882 0 l 1,23,-1
 3700 0 l 1,24,-1
 3700 1314 l 1,25,-1
 4060 1314 l 2,26,27
 4180 1314 4180 1314 4267.5 1288.5 c 128,-1,28
 4355 1263 4355 1263 4411.5 1215.5 c 128,-1,29
 4468 1168 4468 1168 4495 1100.5 c 128,-1,30
 4522 1033 4522 1033 4522 949 c 0,31,32
 4522 880 4522 880 4501.5 820 c 128,-1,33
 4481 760 4481 760 4442.5 712 c 128,-1,34
 4404 664 4404 664 4348 629.5 c 128,-1,35
 4292 595 4292 595 4221 577 c 1,36,37
 4238 566 4238 566 4253 552 c 0,38,39
 4271 536 4271 536 4282 520 c 2,40,-1
 4635 0 l 1,41,-1
 4473 0 l 2,42,43
 4425 -0 4425 -0 4400 37 c 2,44,-1
 4089 505 l 2,45,46
 4075 527 4075 527 4056 536 c 0,47,48
 4039 546 4039 546 4004 546 c 2,49,-1
 3882 546 l 1,22,-1
3882 679 m 1,50,-1
 4053 679 l 2,51,52
 4125 679 4125 679 4179.5 697.5 c 128,-1,53
 4234 716 4234 716 4271 750 c 128,-1,54
 4308 784 4308 784 4326.5 831.5 c 128,-1,55
 4345 879 4345 879 4345 936 c 0,56,57
 4345 1171 4345 1171 4060 1171 c 2,58,-1
 3882 1171 l 1,59,-1
 3882 679 l 1,50,-1
3546 0 m 1,60,-1
 3405 0 l 2,61,62
 3381 0 3381 0 3366 12 c 0,63,64
 3350 26 3350 26 3344 42 c 2,65,-1
 3232 358 l 1,66,-1
 2690 358 l 1,67,-1
 2579 43 l 2,68,69
 2573 26 2573 26 2556.5 13 c 128,-1,70
 2540 0 2540 0 2517 0 c 2,71,-1
 2376 0 l 1,72,-1
 2869 1314 l 1,73,-1
 3054 1314 l 1,74,-1
 3546 0 l 1,60,-1
2736 488 m 1,75,-1
 3186 488 l 1,76,-1
 3000 1017 l 2,77,78
 2990 1041 2990 1041 2980 1073 c 128,-1,79
 2970 1105 2970 1105 2961 1142 c 1,80,81
 2951 1104 2951 1104 2941 1072 c 0,82,83
 2928 1034 2928 1034 2922 1016 c 2,84,-1
 2736 488 l 1,75,-1
2228 0 m 1,85,-1
 2045 0 l 1,86,-1
 2045 596 l 1,87,-1
 1415 596 l 1,88,-1
 1415 0 l 1,89,-1
 1232 0 l 1,90,-1
 1232 1314 l 1,91,-1
 1415 1314 l 1,92,-1
 1415 729 l 1,93,-1
 2045 729 l 1,94,-1
 2045 1314 l 1,95,-1
 2228 1314 l 1,96,-1
 2228 0 l 1,85,-1
954 274 m 0,97,98
 968 274 968 274 980 262 c 2,99,-1
 1052 184 l 1,100,101
 981 90 981 90 877 38 c 128,-1,102
 773 -14 773 -14 628 -14 c 0,103,104
 500 -14 500 -14 396.5 35 c 128,-1,105
 293 84 293 84 219.5 172.5 c 128,-1,106
 146 261 146 261 106.5 384.5 c 128,-1,107
 67 508 67 508 67 657 c 256,108,109
 67 806 67 806 109 929.5 c 128,-1,110
 151 1053 151 1053 227 1142 c 128,-1,111
 303 1231 303 1231 409 1280 c 128,-1,112
 515 1329 515 1329 643 1329 c 0,113,114
 770 1329 770 1329 866.5 1284 c 128,-1,115
 963 1239 963 1239 1035 1162 c 1,116,-1
 975 1078 l 2,117,118
 969 1069 969 1069 960 1063 c 128,-1,119
 951 1057 951 1057 937 1057 c 0,120,121
 920 1057 920 1057 899.5 1075 c 128,-1,122
 879 1093 879 1093 846 1114.5 c 128,-1,123
 813 1136 813 1136 764 1154 c 128,-1,124
 715 1172 715 1172 642 1172 c 0,125,126
 556 1172 556 1172 484.5 1137 c 128,-1,127
 413 1102 413 1102 361.5 1035.5 c 128,-1,128
 310 969 310 969 281.5 873.5 c 128,-1,129
 253 778 253 778 253 657 c 0,130,131
 253 535 253 535 283 439 c 128,-1,132
 313 343 313 343 365 277 c 128,-1,133
 417 211 417 211 487.5 176 c 128,-1,134
 558 141 558 141 639 141 c 0,135,136
 689 141 689 141 728.5 148 c 128,-1,137
 768 155 768 155 801.5 169.5 c 128,-1,138
 835 184 835 184 864.5 206.5 c 128,-1,139
 894 229 894 229 923 260 c 0,140,141
 939 274 939 274 954 274 c 0,97,98
EndSplineSet
Validated: 1
EndChar

StartChar: D
Encoding: 68 68 5
Width: 5456
GlyphClass: 2
Flags: W
LayerCount: 2
Fore
SplineSet
4986 0 m 1,0,-1
 4845 0 l 2,1,2
 4821 0 4821 0 4806 12 c 0,3,4
 4790 26 4790 26 4784 42 c 2,5,-1
 4672 358 l 1,6,-1
 4130 358 l 1,7,-1
 4019 43 l 2,8,9
 4013 26 4013 26 3996.5 13 c 128,-1,10
 3980 0 3980 0 3957 0 c 2,11,-1
 3816 0 l 1,12,-1
 4309 1314 l 1,13,-1
 4494 1314 l 1,14,-1
 4986 0 l 1,0,-1
4176 488 m 1,15,-1
 4626 488 l 1,16,-1
 4440 1017 l 2,17,18
 4430 1041 4430 1041 4420 1073 c 128,-1,19
 4410 1105 4410 1105 4401 1142 c 1,20,21
 4391 1104 4391 1104 4381 1072 c 0,22,23
 4368 1034 4368 1034 4362 1016 c 2,24,-1
 4176 488 l 1,15,-1
3944 1314 m 1,25,-1
 3944 1162 l 1,26,-1
 3561 1162 l 1,27,-1
 3561 0 l 1,28,-1
 3378 0 l 1,29,-1
 3378 1162 l 1,30,-1
 2994 1162 l 1,31,-1
 2994 1314 l 1,32,-1
 3944 1314 l 1,25,-1
2579 153 m 1,33,-1
 3086 153 l 1,34,-1
 3086 0 l 1,35,-1
 2397 0 l 1,36,-1
 2397 1314 l 1,37,-1
 2579 1314 l 1,38,-1
 2579 153 l 1,33,-1
2173 1314 m 1,39,-1
 2173 1166 l 1,40,-1
 1588 1166 l 1,41,-1
 1588 735 l 1,42,-1
 2059 735 l 1,43,-1
 2059 592 l 1,44,-1
 1588 592 l 1,45,-1
 1588 148 l 1,46,-1
 2173 148 l 1,47,-1
 2173 0 l 1,48,-1
 1405 0 l 1,49,-1
 1405 1314 l 1,50,-1
 2173 1314 l 1,39,-1
1192 657 m 0,51,52
 1192 509 1192 509 1148.5 388 c 128,-1,53
 1105 267 1105 267 1026.5 180.5 c 128,-1,54
 948 94 948 94 837.5 47 c 128,-1,55
 727 0 727 0 593 0 c 2,56,-1
 139 0 l 1,57,-1
 139 1314 l 1,58,-1
 593 1314 l 2,59,60
 727 1314 727 1314 837.5 1266.5 c 128,-1,61
 948 1219 948 1219 1026.5 1133 c 128,-1,62
 1105 1047 1105 1047 1148.5 925.5 c 128,-1,63
 1192 804 1192 804 1192 657 c 0,51,52
1005 657 m 256,64,65
 1005 777 1005 777 976 871.5 c 128,-1,66
 947 966 947 966 893 1032 c 128,-1,67
 839 1098 839 1098 763 1132.5 c 128,-1,68
 687 1167 687 1167 593 1167 c 2,69,-1
 322 1167 l 1,70,-1
 322 147 l 1,71,-1
 593 147 l 2,72,73
 687 147 687 147 763 181.5 c 128,-1,74
 839 216 839 216 893 281.5 c 128,-1,75
 947 347 947 347 976 442 c 128,-1,76
 1005 537 1005 537 1005 657 c 256,64,65
EndSplineSet
Validated: 1
EndChar

StartChar: E
Encoding: 69 69 6
Width: 5162
GlyphClass: 2
Flags: W
LayerCount: 2
Fore
SplineSet
4627 657 m 0,0,1
 4627 509 4627 509 4583.5 386 c 128,-1,2
 4540 263 4540 263 4460.5 174 c 128,-1,3
 4381 85 4381 85 4269.5 35.5 c 128,-1,4
 4158 -14 4158 -14 4022 -14 c 0,5,6
 3887 -14 3887 -14 3775 35.5 c 128,-1,7
 3663 85 3663 85 3583 174 c 128,-1,8
 3503 263 3503 263 3459 386 c 128,-1,9
 3415 509 3415 509 3415 657 c 0,10,11
 3415 804 3415 804 3459 927.5 c 128,-1,12
 3503 1051 3503 1051 3583 1140.5 c 128,-1,13
 3663 1230 3663 1230 3775 1279.5 c 128,-1,14
 3887 1329 3887 1329 4022 1329 c 0,15,16
 4158 1329 4158 1329 4269.5 1279.5 c 128,-1,17
 4381 1230 4381 1230 4460.5 1140.5 c 128,-1,18
 4540 1051 4540 1051 4583.5 927.5 c 128,-1,19
 4627 804 4627 804 4627 657 c 0,0,1
4441 657 m 256,20,21
 4441 777 4441 777 4411.5 872.5 c 128,-1,22
 4382 968 4382 968 4327.5 1034.5 c 128,-1,23
 4273 1101 4273 1101 4195.5 1136.5 c 128,-1,24
 4118 1172 4118 1172 4022 1172 c 256,25,26
 3926 1172 3926 1172 3848.5 1136.5 c 128,-1,27
 3771 1101 3771 1101 3716 1034.5 c 128,-1,28
 3661 968 3661 968 3631.5 872.5 c 128,-1,29
 3602 777 3602 777 3602 657 c 256,30,31
 3602 537 3602 537 3631.5 441.5 c 128,-1,32
 3661 346 3661 346 3716 279.5 c 128,-1,33
 3771 213 3771 213 3848.5 178 c 128,-1,34
 3926 143 3926 143 4022 143 c 256,35,36
 4118 143 4118 143 4195.5 178 c 128,-1,37
 4273 213 4273 213 4327.5 279.5 c 128,-1,38
 4382 346 4382 346 4411.5 441.5 c 128,-1,39
 4441 537 4441 537 4441 657 c 256,20,21
3203 0 m 1,40,-1
 3020 0 l 1,41,-1
 3020 596 l 1,42,-1
 2390 596 l 1,43,-1
 2390 0 l 1,44,-1
 2207 0 l 1,45,-1
 2207 1314 l 1,46,-1
 2390 1314 l 1,47,-1
 2390 729 l 1,48,-1
 3020 729 l 1,49,-1
 3020 1314 l 1,50,-1
 3203 1314 l 1,51,-1
 3203 0 l 1,40,-1
1929 274 m 0,52,53
 1944 274 1944 274 1955 262 c 2,54,-1
 2027 184 l 1,55,56
 1956 90 1956 90 1852 38 c 128,-1,57
 1748 -14 1748 -14 1603 -14 c 0,58,59
 1475 -14 1475 -14 1371.5 35 c 128,-1,60
 1268 84 1268 84 1194.5 172.5 c 128,-1,61
 1121 261 1121 261 1081.5 384.5 c 128,-1,62
 1042 508 1042 508 1042 657 c 256,63,64
 1042 806 1042 806 1084 929.5 c 128,-1,65
 1126 1053 1126 1053 1202 1142 c 128,-1,66
 1278 1231 1278 1231 1384 1280 c 128,-1,67
 1490 1329 1490 1329 1618 1329 c 0,68,69
 1745 1329 1745 1329 1841.5 1284 c 128,-1,70
 1938 1239 1938 1239 2010 1162 c 1,71,-1
 1950 1078 l 2,72,73
 1943 1068 1943 1068 1935 1063 c 0,74,75
 1926 1057 1926 1057 1912 1057 c 0,76,77
 1895 1057 1895 1057 1874.5 1075 c 128,-1,78
 1854 1093 1854 1093 1821 1114.5 c 128,-1,79
 1788 1136 1788 1136 1739 1154 c 128,-1,80
 1690 1172 1690 1172 1617 1172 c 0,81,82
 1531 1172 1531 1172 1459.5 1137 c 128,-1,83
 1388 1102 1388 1102 1336.5 1035.5 c 128,-1,84
 1285 969 1285 969 1256.5 873.5 c 128,-1,85
 1228 778 1228 778 1228 657 c 0,86,87
 1228 535 1228 535 1258 439 c 128,-1,88
 1288 343 1288 343 1340 277 c 128,-1,89
 1392 211 1392 211 1462.5 176 c 128,-1,90
 1533 141 1533 141 1614 141 c 0,91,92
 1664 141 1664 141 1703.5 148 c 128,-1,93
 1743 155 1743 155 1776.5 169.5 c 128,-1,94
 1810 184 1810 184 1840 206 c 0,95,96
 1861 223 1861 223 1898 260 c 0,97,98
 1912 274 1912 274 1929 274 c 0,52,53
913 1314 m 1,99,-1
 913 1166 l 1,100,-1
 328 1166 l 1,101,-1
 328 735 l 1,102,-1
 799 735 l 1,103,-1
 799 592 l 1,104,-1
 328 592 l 1,105,-1
 328 148 l 1,106,-1
 913 148 l 1,107,-1
 913 0 l 1,108,-1
 145 0 l 1,109,-1
 145 1314 l 1,110,-1
 913 1314 l 1,99,-1
EndSplineSet
Validated: 1
EndChar

StartChar: F
Encoding: 70 70 7
Width: 8130
GlyphClass: 2
Flags: W
LayerCount: 2
Fore
SplineSet
7643 1314 m 1,0,-1
 7643 1162 l 1,1,-1
 7260 1162 l 1,2,-1
 7260 0 l 1,3,-1
 7077 0 l 1,4,-1
 7077 1162 l 1,5,-1
 6693 1162 l 1,6,-1
 6693 1314 l 1,7,-1
 7643 1314 l 1,0,-1
6652 657 m 0,8,9
 6652 509 6652 509 6608.5 386 c 128,-1,10
 6565 263 6565 263 6485.5 174 c 128,-1,11
 6406 85 6406 85 6294.5 35.5 c 128,-1,12
 6183 -14 6183 -14 6047 -14 c 0,13,14
 5912 -14 5912 -14 5800 35.5 c 128,-1,15
 5688 85 5688 85 5608 174 c 128,-1,16
 5528 263 5528 263 5484 386 c 128,-1,17
 5440 509 5440 509 5440 657 c 0,18,19
 5440 804 5440 804 5484 927.5 c 128,-1,20
 5528 1051 5528 1051 5608 1140.5 c 128,-1,21
 5688 1230 5688 1230 5800 1279.5 c 128,-1,22
 5912 1329 5912 1329 6047 1329 c 0,23,24
 6183 1329 6183 1329 6294.5 1279.5 c 128,-1,25
 6406 1230 6406 1230 6485.5 1140.5 c 128,-1,26
 6565 1051 6565 1051 6608.5 927.5 c 128,-1,27
 6652 804 6652 804 6652 657 c 0,8,9
6466 657 m 256,28,29
 6466 777 6466 777 6436.5 872.5 c 128,-1,30
 6407 968 6407 968 6352.5 1034.5 c 128,-1,31
 6298 1101 6298 1101 6220.5 1136.5 c 128,-1,32
 6143 1172 6143 1172 6047 1172 c 256,33,34
 5951 1172 5951 1172 5873.5 1136.5 c 128,-1,35
 5796 1101 5796 1101 5741 1034.5 c 128,-1,36
 5686 968 5686 968 5656.5 872.5 c 128,-1,37
 5627 777 5627 777 5627 657 c 256,38,39
 5627 537 5627 537 5656.5 441.5 c 128,-1,40
 5686 346 5686 346 5741 279.5 c 128,-1,41
 5796 213 5796 213 5873.5 178 c 128,-1,42
 5951 143 5951 143 6047 143 c 256,43,44
 6143 143 6143 143 6220.5 178 c 128,-1,45
 6298 213 6298 213 6352.5 279.5 c 128,-1,46
 6407 346 6407 346 6436.5 441.5 c 128,-1,47
 6466 537 6466 537 6466 657 c 256,28,29
4605 546 m 1,48,-1
 4605 0 l 1,49,-1
 4423 0 l 1,50,-1
 4423 1314 l 1,51,-1
 4783 1314 l 2,52,53
 4903 1314 4903 1314 4990.5 1288.5 c 128,-1,54
 5078 1263 5078 1263 5134.5 1215.5 c 128,-1,55
 5191 1168 5191 1168 5218 1100.5 c 128,-1,56
 5245 1033 5245 1033 5245 949 c 0,57,58
 5245 880 5245 880 5224.5 820 c 128,-1,59
 5204 760 5204 760 5165.5 712 c 128,-1,60
 5127 664 5127 664 5071 629.5 c 128,-1,61
 5015 595 5015 595 4944 577 c 1,62,63
 4961 566 4961 566 4976 552.5 c 128,-1,64
 4991 539 4991 539 5005 520 c 2,65,-1
 5358 0 l 1,66,-1
 5196 0 l 2,67,68
 5149 0 5149 0 5123 37 c 2,69,-1
 4812 505 l 2,70,71
 4797 527 4797 527 4779.5 536.5 c 128,-1,72
 4762 546 4762 546 4727 546 c 2,73,-1
 4605 546 l 1,48,-1
4605 679 m 1,74,-1
 4776 679 l 2,75,76
 4848 679 4848 679 4902.5 697.5 c 128,-1,77
 4957 716 4957 716 4994 750 c 128,-1,78
 5031 784 5031 784 5049.5 831.5 c 128,-1,79
 5068 879 5068 879 5068 936 c 0,80,81
 5068 1171 5068 1171 4783 1171 c 2,82,-1
 4605 1171 l 1,83,-1
 4605 679 l 1,74,-1
4252 1314 m 1,84,-1
 4252 1162 l 1,85,-1
 3869 1162 l 1,86,-1
 3869 0 l 1,87,-1
 3686 0 l 1,88,-1
 3686 1162 l 1,89,-1
 3302 1162 l 1,90,-1
 3302 1314 l 1,91,-1
 4252 1314 l 1,84,-1
2622 674 m 1,92,-1
 2242 1314 l 1,93,-1
 2423 1314 l 2,94,95
 2443 1314 2443 1314 2452 1307 c 128,-1,96
 2461 1300 2461 1300 2469 1289 c 2,97,-1
 2758 777 l 1,98,99
 2765 794 2765 794 2774 807 c 2,100,-1
 3040 1286 l 2,101,102
 3048 1299 3048 1299 3057.5 1306.5 c 128,-1,103
 3067 1314 3067 1314 3081 1314 c 2,104,-1
 3255 1314 l 1,105,-1
 2873 684 l 1,106,-1
 3267 0 l 1,107,-1
 3086 0 l 2,108,109
 3066 0 3066 0 3055 11 c 128,-1,110
 3044 22 3044 22 3036 34 c 2,111,-1
 2739 570 l 1,112,113
 2734 555 2734 555 2727 545 c 2,114,-1
 2443 34 l 2,115,116
 2435 21 2435 21 2424 10.5 c 128,-1,117
 2413 0 2413 0 2396 0 c 2,118,-1
 2226 0 l 1,119,-1
 2622 674 l 1,92,-1
2207 657 m 0,120,121
 2207 509 2207 509 2163.5 386 c 128,-1,122
 2120 263 2120 263 2040.5 174 c 128,-1,123
 1961 85 1961 85 1849.5 35.5 c 128,-1,124
 1738 -14 1738 -14 1602 -14 c 0,125,126
 1467 -14 1467 -14 1355 35.5 c 128,-1,127
 1243 85 1243 85 1163 174 c 128,-1,128
 1083 263 1083 263 1039 386 c 128,-1,129
 995 509 995 509 995 657 c 0,130,131
 995 804 995 804 1039 927.5 c 128,-1,132
 1083 1051 1083 1051 1163 1140.5 c 128,-1,133
 1243 1230 1243 1230 1355 1279.5 c 128,-1,134
 1467 1329 1467 1329 1602 1329 c 0,135,136
 1738 1329 1738 1329 1849.5 1279.5 c 128,-1,137
 1961 1230 1961 1230 2040.5 1140.5 c 128,-1,138
 2120 1051 2120 1051 2163.5 927.5 c 128,-1,139
 2207 804 2207 804 2207 657 c 0,120,121
2021 657 m 256,140,141
 2021 777 2021 777 1991.5 872.5 c 128,-1,142
 1962 968 1962 968 1907.5 1034.5 c 128,-1,143
 1853 1101 1853 1101 1775.5 1136.5 c 128,-1,144
 1698 1172 1698 1172 1602 1172 c 256,145,146
 1506 1172 1506 1172 1428.5 1136.5 c 128,-1,147
 1351 1101 1351 1101 1296 1034.5 c 128,-1,148
 1241 968 1241 968 1211.5 872.5 c 128,-1,149
 1182 777 1182 777 1182 657 c 256,150,151
 1182 537 1182 537 1211.5 441.5 c 128,-1,152
 1241 346 1241 346 1296 279.5 c 128,-1,153
 1351 213 1351 213 1428.5 178 c 128,-1,154
 1506 143 1506 143 1602 143 c 256,155,156
 1698 143 1698 143 1775.5 178 c 128,-1,157
 1853 213 1853 213 1907.5 279.5 c 128,-1,158
 1962 346 1962 346 1991.5 441.5 c 128,-1,159
 2021 537 2021 537 2021 657 c 256,140,141
882 1314 m 1,160,-1
 882 1166 l 1,161,-1
 321 1166 l 1,162,-1
 321 711 l 1,163,-1
 798 711 l 1,164,-1
 798 563 l 1,165,-1
 321 563 l 1,166,-1
 321 0 l 1,167,-1
 138 0 l 1,168,-1
 138 1314 l 1,169,-1
 882 1314 l 1,160,-1
EndSplineSet
Validated: 1
EndChar

StartChar: G
Encoding: 71 71 8
Width: 4913
GlyphClass: 2
Flags: W
LayerCount: 2
Fore
SplineSet
4391 1314 m 1,0,-1
 4391 1166 l 1,1,-1
 3830 1166 l 1,2,-1
 3830 711 l 1,3,-1
 4307 711 l 1,4,-1
 4307 563 l 1,5,-1
 3830 563 l 1,6,-1
 3830 0 l 1,7,-1
 3647 0 l 1,8,-1
 3647 1314 l 1,9,-1
 4391 1314 l 1,0,-1
2968 153 m 1,10,-1
 3475 153 l 1,11,-1
 3475 0 l 1,12,-1
 2786 0 l 1,13,-1
 2786 1314 l 1,14,-1
 2968 1314 l 1,15,-1
 2968 153 l 1,10,-1
2576 657 m 0,16,17
 2576 509 2576 509 2532.5 386 c 128,-1,18
 2489 263 2489 263 2409.5 174 c 128,-1,19
 2330 85 2330 85 2218.5 35.5 c 128,-1,20
 2107 -14 2107 -14 1971 -14 c 0,21,22
 1836 -14 1836 -14 1724 35.5 c 128,-1,23
 1612 85 1612 85 1532 174 c 128,-1,24
 1452 263 1452 263 1408 386 c 128,-1,25
 1364 509 1364 509 1364 657 c 0,26,27
 1364 804 1364 804 1408 927.5 c 128,-1,28
 1452 1051 1452 1051 1532 1140.5 c 128,-1,29
 1612 1230 1612 1230 1724 1279.5 c 128,-1,30
 1836 1329 1836 1329 1971 1329 c 0,31,32
 2107 1329 2107 1329 2218.5 1279.5 c 128,-1,33
 2330 1230 2330 1230 2409.5 1140.5 c 128,-1,34
 2489 1051 2489 1051 2532.5 927.5 c 128,-1,35
 2576 804 2576 804 2576 657 c 0,16,17
2390 657 m 256,36,37
 2390 777 2390 777 2360.5 872.5 c 128,-1,38
 2331 968 2331 968 2276.5 1034.5 c 128,-1,39
 2222 1101 2222 1101 2144.5 1136.5 c 128,-1,40
 2067 1172 2067 1172 1971 1172 c 256,41,42
 1875 1172 1875 1172 1797.5 1136.5 c 128,-1,43
 1720 1101 1720 1101 1665 1034.5 c 128,-1,44
 1610 968 1610 968 1580.5 872.5 c 128,-1,45
 1551 777 1551 777 1551 657 c 256,46,47
 1551 537 1551 537 1580.5 441.5 c 128,-1,48
 1610 346 1610 346 1665 279.5 c 128,-1,49
 1720 213 1720 213 1797.5 178 c 128,-1,50
 1875 143 1875 143 1971 143 c 256,51,52
 2067 143 2067 143 2144.5 178 c 128,-1,53
 2222 213 2222 213 2276.5 279.5 c 128,-1,54
 2331 346 2331 346 2360.5 441.5 c 128,-1,55
 2390 537 2390 537 2390 657 c 256,36,37
1185 127 m 1,56,57
 1089 56 1089 56 980.5 21 c 128,-1,58
 872 -14 872 -14 745 -14 c 0,59,60
 592 -14 592 -14 468.5 35 c 128,-1,61
 345 84 345 84 258 172.5 c 128,-1,62
 171 261 171 261 124 384.5 c 128,-1,63
 77 508 77 508 77 657 c 0,64,65
 77 807 77 807 122.5 930.5 c 128,-1,66
 168 1054 168 1054 252.5 1142.5 c 128,-1,67
 337 1231 337 1231 457 1280 c 128,-1,68
 577 1329 577 1329 726 1329 c 0,69,70
 802 1329 802 1329 866.5 1317.5 c 128,-1,71
 931 1306 931 1306 986 1284.5 c 128,-1,72
 1041 1263 1041 1263 1087.5 1232 c 128,-1,73
 1134 1201 1134 1201 1174 1163 c 1,74,-1
 1123 1081 l 2,75,76
 1111 1061 1111 1061 1091 1056 c 128,-1,77
 1071 1051 1071 1051 1048 1065 c 0,78,79
 1025 1078 1025 1078 997.5 1096.5 c 128,-1,80
 970 1115 970 1115 932 1131.5 c 128,-1,81
 894 1148 894 1148 842 1160 c 128,-1,82
 790 1172 790 1172 719 1172 c 0,83,84
 615 1172 615 1172 530.5 1136 c 128,-1,85
 446 1100 446 1100 386.5 1033 c 128,-1,86
 327 966 327 966 295 870.5 c 128,-1,87
 263 775 263 775 263 657 c 0,88,89
 263 534 263 534 296.5 436.5 c 128,-1,90
 330 339 330 339 392.5 271.5 c 128,-1,91
 455 204 455 204 543 168.5 c 128,-1,92
 631 133 631 133 740 133 c 0,93,94
 824 133 824 133 890 152.5 c 128,-1,95
 956 172 956 172 1020 207 c 1,96,-1
 1020 495 l 1,97,-1
 831 495 l 2,98,99
 813 495 813 495 802 505 c 128,-1,100
 791 515 791 515 791 530 c 2,101,-1
 791 633 l 1,102,-1
 1185 633 l 1,103,-1
 1185 127 l 1,56,57
EndSplineSet
Validated: 1
EndChar

StartChar: H
Encoding: 72 72 9
Width: 5899
GlyphClass: 2
Flags: W
LayerCount: 2
Fore
SplineSet
4895 153 m 1,0,-1
 5402 153 l 1,1,-1
 5402 0 l 1,2,-1
 4713 0 l 1,3,-1
 4713 1314 l 1,4,-1
 4895 1314 l 1,5,-1
 4895 153 l 1,0,-1
4489 1314 m 1,6,-1
 4489 1166 l 1,7,-1
 3904 1166 l 1,8,-1
 3904 735 l 1,9,-1
 4375 735 l 1,10,-1
 4375 592 l 1,11,-1
 3904 592 l 1,12,-1
 3904 148 l 1,13,-1
 4489 148 l 5,14,-1
 4489 0 l 1,15,-1
 3721 0 l 1,16,-1
 3721 1314 l 1,17,-1
 4489 1314 l 1,6,-1
3552 1314 m 1,18,-1
 3552 1162 l 1,19,-1
 3169 1162 l 1,20,-1
 3169 0 l 1,21,-1
 2986 0 l 1,22,-1
 2986 1162 l 1,23,-1
 2602 1162 l 1,24,-1
 2602 1314 l 1,25,-1
 3552 1314 l 1,18,-1
2561 657 m 0,26,27
 2561 509 2561 509 2517.5 386 c 128,-1,28
 2474 263 2474 263 2394.5 174 c 128,-1,29
 2315 85 2315 85 2203.5 35.5 c 128,-1,30
 2092 -14 2092 -14 1956 -14 c 0,31,32
 1821 -14 1821 -14 1709 35.5 c 128,-1,33
 1597 85 1597 85 1517 174 c 128,-1,34
 1437 263 1437 263 1393 386 c 128,-1,35
 1349 509 1349 509 1349 657 c 0,36,37
 1349 804 1349 804 1393 927.5 c 128,-1,38
 1437 1051 1437 1051 1517 1140.5 c 128,-1,39
 1597 1230 1597 1230 1709 1279.5 c 128,-1,40
 1821 1329 1821 1329 1956 1329 c 0,41,42
 2092 1329 2092 1329 2203.5 1279.5 c 128,-1,43
 2315 1230 2315 1230 2394.5 1140.5 c 128,-1,44
 2474 1051 2474 1051 2517.5 927.5 c 128,-1,45
 2561 804 2561 804 2561 657 c 0,26,27
2375 657 m 256,46,47
 2375 777 2375 777 2345.5 872.5 c 128,-1,48
 2316 968 2316 968 2261.5 1034.5 c 128,-1,49
 2207 1101 2207 1101 2129.5 1136.5 c 128,-1,50
 2052 1172 2052 1172 1956 1172 c 256,51,52
 1860 1172 1860 1172 1782.5 1136.5 c 128,-1,53
 1705 1101 1705 1101 1650 1034.5 c 128,-1,54
 1595 968 1595 968 1565.5 872.5 c 128,-1,55
 1536 777 1536 777 1536 657 c 256,56,57
 1536 537 1536 537 1565.5 441.5 c 128,-1,58
 1595 346 1595 346 1650 279.5 c 128,-1,59
 1705 213 1705 213 1782.5 178 c 128,-1,60
 1860 143 1860 143 1956 143 c 256,61,62
 2052 143 2052 143 2129.5 178 c 128,-1,63
 2207 213 2207 213 2261.5 279.5 c 128,-1,64
 2316 346 2316 346 2345.5 441.5 c 128,-1,65
 2375 537 2375 537 2375 657 c 256,46,47
1136 0 m 1,66,-1
 953 0 l 1,67,-1
 953 596 l 1,68,-1
 323 596 l 1,69,-1
 323 0 l 1,70,-1
 140 0 l 1,71,-1
 140 1314 l 1,72,-1
 323 1314 l 1,73,-1
 323 729 l 1,74,-1
 953 729 l 1,75,-1
 953 1314 l 1,76,-1
 1136 1314 l 1,77,-1
 1136 0 l 1,66,-1
EndSplineSet
Validated: 1
EndChar

StartChar: I
Encoding: 73 73 10
Width: 5292
GlyphClass: 2
Flags: W
LayerCount: 2
Fore
SplineSet
3447 0 m 1,0,-1
 3265 0 l 1,1,-1
 3265 1314 l 1,2,-1
 3447 1314 l 1,3,-1
 3447 0 l 1,0,-1
4792 0 m 1,4,-1
 4651 0 l 2,5,6
 4627 0 4627 0 4612 12 c 0,7,8
 4596 26 4596 26 4590 42 c 2,9,-1
 4478 358 l 1,10,-1
 3936 358 l 1,11,-1
 3825 43 l 2,12,13
 3819 26 3819 26 3802.5 13 c 128,-1,14
 3786 0 3786 0 3763 0 c 2,15,-1
 3622 0 l 1,16,-1
 4115 1314 l 1,17,-1
 4300 1314 l 1,18,-1
 4792 0 l 1,4,-1
3982 488 m 1,19,-1
 4432 488 l 1,20,-1
 4246 1017 l 2,21,22
 4236 1041 4236 1041 4226 1073 c 128,-1,23
 4216 1105 4216 1105 4207 1142 c 1,24,25
 4197 1104 4197 1104 4187 1072 c 0,26,27
 4174 1034 4174 1034 4168 1016 c 2,28,-1
 3982 488 l 1,19,-1
3030 657 m 0,29,30
 3030 509 3030 509 2986.5 388 c 128,-1,31
 2943 267 2943 267 2864.5 180.5 c 128,-1,32
 2786 94 2786 94 2675.5 47 c 128,-1,33
 2565 0 2565 0 2431 0 c 2,34,-1
 1977 0 l 1,35,-1
 1977 1314 l 1,36,-1
 2431 1314 l 2,37,38
 2565 1314 2565 1314 2675.5 1266.5 c 128,-1,39
 2786 1219 2786 1219 2864.5 1133 c 128,-1,40
 2943 1047 2943 1047 2986.5 925.5 c 128,-1,41
 3030 804 3030 804 3030 657 c 0,29,30
2843 657 m 256,42,43
 2843 777 2843 777 2814 871.5 c 128,-1,44
 2785 966 2785 966 2731 1032 c 128,-1,45
 2677 1098 2677 1098 2601 1132.5 c 128,-1,46
 2525 1167 2525 1167 2431 1167 c 2,47,-1
 2160 1167 l 1,48,-1
 2160 147 l 1,49,-1
 2431 147 l 2,50,51
 2525 147 2525 147 2601 181.5 c 128,-1,52
 2677 216 2677 216 2731 281.5 c 128,-1,53
 2785 347 2785 347 2814 442 c 128,-1,54
 2843 537 2843 537 2843 657 c 256,42,43
794 1308 m 0,55,56
 806 1303 806 1303 821 1283 c 2,57,-1
 1535 300 l 1,58,59
 1533 324 1533 324 1531.5 347.5 c 128,-1,60
 1530 371 1530 371 1530 391 c 2,61,-1
 1530 1314 l 1,62,-1
 1690 1314 l 1,63,-1
 1690 0 l 1,64,-1
 1598 0 l 2,65,66
 1577 0 1577 0 1562 7 c 0,67,68
 1546 15 1546 15 1534 32 c 2,69,-1
 820 1012 l 1,70,71
 822 989 822 989 823 968 c 128,-1,72
 824 947 824 947 824 928 c 2,73,-1
 824 0 l 1,74,-1
 664 0 l 1,75,-1
 664 1314 l 1,76,-1
 759 1314 l 1,77,78
 782 1314 782 1314 794 1308 c 0,55,56
349 0 m 1,79,-1
 167 0 l 1,80,-1
 167 1314 l 1,81,-1
 349 1314 l 1,82,-1
 349 0 l 1,79,-1
EndSplineSet
Validated: 1
EndChar

StartChar: J
Encoding: 74 74 11
Width: 5804
GlyphClass: 2
Flags: W
LayerCount: 2
Fore
SplineSet
5317 1314 m 1,0,-1
 5317 1162 l 1,1,-1
 4934 1162 l 1,2,-1
 4934 0 l 1,3,-1
 4751 0 l 1,4,-1
 4751 1162 l 1,5,-1
 4367 1162 l 1,6,-1
 4367 1314 l 1,7,-1
 5317 1314 l 1,0,-1
4257 1314 m 1,8,-1
 4257 1166 l 1,9,-1
 3672 1166 l 1,10,-1
 3672 735 l 1,11,-1
 4143 735 l 1,12,-1
 4143 592 l 1,13,-1
 3672 592 l 1,14,-1
 3672 148 l 1,15,-1
 4257 148 l 1,16,-1
 4257 0 l 1,17,-1
 3489 0 l 1,18,-1
 3489 1314 l 1,19,-1
 4257 1314 l 1,8,-1
3177 0 m 1,20,-1
 2995 0 l 1,21,-1
 2995 1314 l 1,22,-1
 3177 1314 l 1,23,-1
 3177 0 l 1,20,-1
2287 153 m 1,24,-1
 2794 153 l 1,25,-1
 2794 0 l 1,26,-1
 2105 0 l 1,27,-1
 2105 1314 l 1,28,-1
 2287 1314 l 1,29,-1
 2287 153 l 1,24,-1
1310 144 m 256,30,31
 1389 144 1389 144 1451.5 171.5 c 128,-1,32
 1514 199 1514 199 1557 248.5 c 128,-1,33
 1600 298 1600 298 1622.5 366 c 128,-1,34
 1645 434 1645 434 1645 516 c 2,35,-1
 1645 1314 l 1,36,-1
 1827 1314 l 1,37,-1
 1827 516 l 2,38,39
 1827 402 1827 402 1791 305 c 128,-1,40
 1755 208 1755 208 1688.5 137 c 128,-1,41
 1622 66 1622 66 1526 25.5 c 128,-1,42
 1430 -15 1430 -15 1310 -15 c 256,43,44
 1190 -15 1190 -15 1094.5 25.5 c 128,-1,45
 999 66 999 66 932 137 c 128,-1,46
 865 208 865 208 829 305 c 128,-1,47
 793 402 793 402 793 516 c 2,48,-1
 793 1314 l 1,49,-1
 975 1314 l 1,50,-1
 975 517 l 2,51,52
 975 435 975 435 997.5 366.5 c 128,-1,53
 1020 298 1020 298 1063 248.5 c 128,-1,54
 1106 199 1106 199 1168.5 171.5 c 128,-1,55
 1231 144 1231 144 1310 144 c 256,30,31
538 455 m 2,56,57
 538 345 538 345 516 258 c 128,-1,58
 494 171 494 171 450 110.5 c 128,-1,59
 406 50 406 50 341 18 c 128,-1,60
 276 -14 276 -14 191 -14 c 0,61,62
 152 -14 152 -14 114 -8.5 c 128,-1,63
 76 -3 76 -3 34 10 c 1,64,65
 36 38 36 38 38.5 65 c 128,-1,66
 41 92 41 92 44 118 c 0,67,68
 46 133 46 133 55.5 143 c 128,-1,69
 65 153 65 153 84 153 c 0,70,71
 97 153 97 153 117.5 145.5 c 128,-1,72
 138 138 138 138 172 138 c 0,73,74
 262 138 262 138 309 212 c 128,-1,75
 356 286 356 286 356 451 c 2,76,-1
 356 1314 l 1,77,-1
 538 1314 l 1,78,-1
 538 455 l 2,56,57
EndSplineSet
Validated: 1
EndChar

StartChar: K
Encoding: 75 75 12
Width: 4215
GlyphClass: 2
Flags: W
LayerCount: 2
Fore
SplineSet
3680 657 m 0,0,1
 3680 509 3680 509 3636.5 386 c 128,-1,2
 3593 263 3593 263 3513.5 174 c 128,-1,3
 3434 85 3434 85 3322.5 35.5 c 128,-1,4
 3211 -14 3211 -14 3075 -14 c 0,5,6
 2940 -14 2940 -14 2828 35.5 c 128,-1,7
 2716 85 2716 85 2636 174 c 128,-1,8
 2556 263 2556 263 2512 386 c 128,-1,9
 2468 509 2468 509 2468 657 c 0,10,11
 2468 804 2468 804 2512 927.5 c 128,-1,12
 2556 1051 2556 1051 2636 1140.5 c 128,-1,13
 2716 1230 2716 1230 2828 1279.5 c 128,-1,14
 2940 1329 2940 1329 3075 1329 c 0,15,16
 3211 1329 3211 1329 3322.5 1279.5 c 128,-1,17
 3434 1230 3434 1230 3513.5 1140.5 c 128,-1,18
 3593 1051 3593 1051 3636.5 927.5 c 128,-1,19
 3680 804 3680 804 3680 657 c 0,0,1
3494 657 m 256,20,21
 3494 777 3494 777 3464.5 872.5 c 128,-1,22
 3435 968 3435 968 3380.5 1034.5 c 128,-1,23
 3326 1101 3326 1101 3248.5 1136.5 c 128,-1,24
 3171 1172 3171 1172 3075 1172 c 256,25,26
 2979 1172 2979 1172 2901.5 1136.5 c 128,-1,27
 2824 1101 2824 1101 2769 1034.5 c 128,-1,28
 2714 968 2714 968 2684.5 872.5 c 128,-1,29
 2655 777 2655 777 2655 657 c 256,30,31
 2655 537 2655 537 2684.5 441.5 c 128,-1,32
 2714 346 2714 346 2769 279.5 c 128,-1,33
 2824 213 2824 213 2901.5 178 c 128,-1,34
 2979 143 2979 143 3075 143 c 256,35,36
 3171 143 3171 143 3248.5 178 c 128,-1,37
 3326 213 3326 213 3380.5 279.5 c 128,-1,38
 3435 346 3435 346 3464.5 441.5 c 128,-1,39
 3494 537 3494 537 3494 657 c 256,20,21
1900 153 m 1,40,-1
 2407 153 l 1,41,-1
 2407 0 l 1,42,-1
 1718 0 l 1,43,-1
 1718 1314 l 1,44,-1
 1900 1314 l 1,45,-1
 1900 153 l 1,40,-1
1413 0 m 1,46,-1
 1231 0 l 1,47,-1
 1231 1314 l 1,48,-1
 1413 1314 l 1,49,-1
 1413 0 l 1,46,-1
306 740 m 1,50,-1
 358 740 l 2,51,52
 387 740 387 740 406 749 c 128,-1,53
 425 758 425 758 439 778 c 2,54,-1
 778 1272 l 2,55,56
 796 1295 796 1295 815.5 1304.5 c 128,-1,57
 835 1314 835 1314 864 1314 c 2,58,-1
 1020 1314 l 1,59,-1
 620 750 l 2,60,61
 588 707 588 707 553 689 c 1,62,63
 599 673 599 673 636 624 c 2,64,-1
 1049 0 l 1,65,-1
 889 0 l 2,66,67
 856 0 856 0 840.5 10.5 c 128,-1,68
 825 21 825 21 811 38 c 2,69,-1
 463 558 l 2,70,71
 447 581 447 581 428.5 590.5 c 128,-1,72
 410 600 410 600 373 600 c 2,73,-1
 306 600 l 1,74,-1
 306 0 l 1,75,-1
 124 0 l 1,76,-1
 124 1314 l 1,77,-1
 306 1314 l 1,78,-1
 306 740 l 1,50,-1
EndSplineSet
Validated: 1
EndChar

StartChar: L
Encoding: 76 76 13
Width: 4806
GlyphClass: 2
Flags: W
LayerCount: 2
Fore
SplineSet
4306 0 m 1,0,-1
 4165 0 l 2,1,2
 4141 0 4141 0 4126 12 c 0,3,4
 4110 26 4110 26 4104 42 c 2,5,-1
 3992 358 l 1,6,-1
 3450 358 l 1,7,-1
 3339 43 l 2,8,9
 3333 26 3333 26 3316.5 13 c 128,-1,10
 3300 0 3300 0 3277 0 c 2,11,-1
 3136 0 l 1,12,-1
 3629 1314 l 1,13,-1
 3814 1314 l 1,14,-1
 4306 0 l 1,0,-1
3496 488 m 1,15,-1
 3946 488 l 1,16,-1
 3760 1017 l 2,17,18
 3750 1041 3750 1041 3740 1073 c 128,-1,19
 3730 1105 3730 1105 3721 1142 c 1,20,21
 3711 1104 3711 1104 3701 1072 c 0,22,23
 3688 1034 3688 1034 3682 1016 c 2,24,-1
 3496 488 l 1,15,-1
2235.5 432 m 128,-1,26
 2246 408 2246 408 2256 383 c 1,27,28
 2267 409 2267 409 2276 433 c 0,29,30
 2287 459 2287 459 2299 479 c 2,31,-1
 2763 1284 l 2,32,33
 2775 1305 2775 1305 2789 1309.5 c 128,-1,34
 2803 1314 2803 1314 2827 1314 c 2,35,-1
 2961 1314 l 1,36,-1
 2961 0 l 1,37,-1
 2800 0 l 1,38,-1
 2800 959 l 2,39,40
 2800 979 2800 979 2801.5 1003.5 c 128,-1,41
 2803 1028 2803 1028 2805 1053 c 1,42,-1
 2336 229 l 2,43,44
 2313 188 2313 188 2270 188 c 2,45,-1
 2244 188 l 2,46,47
 2202 188 2202 188 2178 229 c 2,48,-1
 1698 1052 l 1,49,50
 1704 1002 1704 1002 1704 959 c 2,51,-1
 1704 0 l 1,52,-1
 1544 0 l 1,53,-1
 1544 1314 l 1,54,-1
 1678 1314 l 2,55,56
 1702 1314 1702 1314 1716 1310 c 0,57,58
 1729 1305 1729 1305 1742 1283 c 2,59,-1
 2212 479 l 1,60,25
 2225 456 2225 456 2235.5 432 c 128,-1,26
1210 0 m 1,61,-1
 1028 0 l 1,62,-1
 1028 1314 l 1,63,-1
 1210 1314 l 1,64,-1
 1210 0 l 1,61,-1
320 153 m 1,65,-1
 827 153 l 1,66,-1
 827 0 l 1,67,-1
 138 0 l 1,68,-1
 138 1314 l 1,69,-1
 320 1314 l 1,70,-1
 320 153 l 1,65,-1
EndSplineSet
Validated: 1
EndChar

StartChar: M
Encoding: 77 77 14
Width: 4793
GlyphClass: 2
Flags: W
LayerCount: 2
Fore
SplineSet
4244 1314 m 1,0,-1
 4244 1166 l 1,1,-1
 3659 1166 l 1,2,-1
 3659 735 l 1,3,-1
 4130 735 l 1,4,-1
 4130 592 l 1,5,-1
 3659 592 l 1,6,-1
 3659 148 l 1,7,-1
 4244 148 l 1,8,-1
 4244 0 l 1,9,-1
 3476 0 l 1,10,-1
 3476 1314 l 1,11,-1
 4244 1314 l 1,0,-1
2573 740 m 1,12,-1
 2625 740 l 2,13,14
 2654 740 2654 740 2673 749 c 128,-1,15
 2692 758 2692 758 2706 778 c 2,16,-1
 3045 1272 l 2,17,18
 3060 1293 3060 1293 3082 1304 c 0,19,20
 3102 1314 3102 1314 3131 1314 c 2,21,-1
 3287 1314 l 1,22,-1
 2887 750 l 2,23,24
 2857 708 2857 708 2820 689 c 1,25,26
 2872 671 2872 671 2903 624 c 2,27,-1
 3316 0 l 1,28,-1
 3156 0 l 2,29,30
 3123 0 3123 0 3108 10 c 0,31,32
 3088 24 3088 24 3078 38 c 2,33,-1
 2730 558 l 2,34,35
 2715 581 2715 581 2696 590 c 0,36,37
 2677 600 2677 600 2640 600 c 2,38,-1
 2573 600 l 1,39,-1
 2573 0 l 1,40,-1
 2391 0 l 1,41,-1
 2391 1314 l 1,42,-1
 2573 1314 l 1,43,-1
 2573 740 l 1,12,-1
2100 0 m 1,44,-1
 1918 0 l 1,45,-1
 1918 1314 l 1,46,-1
 2100 1314 l 1,47,-1
 2100 0 l 1,44,-1
858.5 432 m 128,-1,49
 869 408 869 408 879 383 c 1,50,51
 889 409 889 409 899.5 433 c 128,-1,52
 910 457 910 457 922 479 c 2,53,-1
 1386 1284 l 2,54,55
 1398 1305 1398 1305 1412 1309.5 c 128,-1,56
 1426 1314 1426 1314 1450 1314 c 2,57,-1
 1584 1314 l 1,58,-1
 1584 0 l 1,59,-1
 1423 0 l 1,60,-1
 1423 959 l 2,61,62
 1423 979 1423 979 1424.5 1003.5 c 128,-1,63
 1426 1028 1426 1028 1428 1053 c 1,64,-1
 959 229 l 2,65,66
 936 188 936 188 893 188 c 2,67,-1
 867 188 l 2,68,69
 824 188 824 188 801 229 c 2,70,-1
 321 1052 l 1,71,72
 327 1002 327 1002 327 959 c 2,73,-1
 327 0 l 1,74,-1
 167 0 l 1,75,-1
 167 1314 l 1,76,-1
 301 1314 l 2,77,78
 325 1314 325 1314 338.5 1309.5 c 128,-1,79
 352 1305 352 1305 365 1283 c 2,80,-1
 835 479 l 1,81,48
 848 456 848 456 858.5 432 c 128,-1,49
EndSplineSet
Validated: 1
EndChar

StartChar: N
Encoding: 78 78 15
Width: 10255
GlyphClass: 2
Flags: W
LayerCount: 2
Fore
SplineSet
8593 1314 m 1,0,-1
 8593 1166 l 1,1,-1
 8008 1166 l 1,2,-1
 8008 735 l 1,3,-1
 8479 735 l 1,4,-1
 8479 592 l 1,5,-1
 8008 592 l 1,6,-1
 8008 148 l 1,7,-1
 8593 148 l 1,8,-1
 8593 0 l 1,9,-1
 7825 0 l 1,10,-1
 7825 1314 l 1,11,-1
 8593 1314 l 1,0,-1
9009 546 m 1,12,-1
 9009 0 l 1,13,-1
 8827 0 l 1,14,-1
 8827 1314 l 1,15,-1
 9187 1314 l 2,16,17
 9307 1314 9307 1314 9394.5 1288.5 c 128,-1,18
 9482 1263 9482 1263 9538.5 1215.5 c 128,-1,19
 9595 1168 9595 1168 9622 1100.5 c 128,-1,20
 9649 1033 9649 1033 9649 949 c 0,21,22
 9649 880 9649 880 9628.5 820 c 128,-1,23
 9608 760 9608 760 9569.5 712 c 128,-1,24
 9531 664 9531 664 9475 629.5 c 128,-1,25
 9419 595 9419 595 9348 577 c 1,26,27
 9365 566 9365 566 9380 552 c 0,28,29
 9398 536 9398 536 9409 520 c 2,30,-1
 9762 0 l 1,31,-1
 9600 0 l 2,32,33
 9552 -0 9552 -0 9527 37 c 2,34,-1
 9216 505 l 2,35,36
 9202 527 9202 527 9184 536 c 0,37,38
 9166 546 9166 546 9131 546 c 2,39,-1
 9009 546 l 1,12,-1
9009 679 m 1,40,-1
 9180 679 l 2,41,42
 9252 679 9252 679 9306.5 697.5 c 128,-1,43
 9361 716 9361 716 9398 750 c 128,-1,44
 9435 784 9435 784 9453.5 831.5 c 128,-1,45
 9472 879 9472 879 9472 936 c 0,46,47
 9472 1171 9472 1171 9187 1171 c 2,48,-1
 9009 1171 l 1,49,-1
 9009 679 l 1,40,-1
4728 1314 m 1,50,-1
 4728 1166 l 1,51,-1
 4143 1166 l 1,52,-1
 4143 735 l 1,53,-1
 4614 735 l 1,54,-1
 4614 592 l 1,55,-1
 4143 592 l 1,56,-1
 4143 148 l 1,57,-1
 4729 148 l 1,58,-1
 4728 0 l 1,59,-1
 3960 0 l 1,60,-1
 3960 1314 l 1,61,-1
 4728 1314 l 1,50,-1
6710 0 m 1,62,-1
 6710 1314 l 1,63,-1
 7111 1314 l 2,64,65
 7227 1314 7227 1314 7310.5 1290.5 c 128,-1,66
 7394 1267 7394 1267 7447.5 1222.5 c 128,-1,67
 7501 1178 7501 1178 7526 1114.5 c 128,-1,68
 7551 1051 7551 1051 7551 971 c 0,69,70
 7551 923 7551 923 7536.5 878 c 128,-1,71
 7522 833 7522 833 7493 795 c 128,-1,72
 7464 757 7464 757 7420 726 c 128,-1,73
 7376 695 7376 695 7316 676 c 1,74,75
 7453 649 7453 649 7522.5 573.5 c 128,-1,76
 7592 498 7592 498 7592 375 c 0,77,78
 7592 291 7592 291 7563 222 c 128,-1,79
 7534 153 7534 153 7478 103.5 c 128,-1,80
 7422 54 7422 54 7340.5 27 c 128,-1,81
 7259 0 7259 0 7154 0 c 2,82,-1
 6710 0 l 1,62,-1
6892 598 m 1,83,-1
 6892 144 l 1,84,-1
 7151 144 l 2,85,86
 7220 144 7220 144 7269.5 161.5 c 128,-1,87
 7319 179 7319 179 7350.5 210 c 128,-1,88
 7382 241 7382 241 7396.5 284.5 c 128,-1,89
 7411 328 7411 328 7411 379 c 0,90,91
 7411 480 7411 480 7347.5 539 c 128,-1,92
 7284 598 7284 598 7151 598 c 2,93,-1
 6892 598 l 1,83,-1
6892 726 m 1,94,-1
 7104 726 l 2,95,96
 7171 726 7171 726 7221 742.5 c 128,-1,97
 7271 759 7271 759 7304 788 c 128,-1,98
 7337 817 7337 817 7353.5 858 c 128,-1,99
 7370 899 7370 899 7370 949 c 0,100,101
 7370 1064 7370 1064 7307.5 1117.5 c 128,-1,102
 7245 1171 7245 1171 7111 1171 c 2,103,-1
 6892 1171 l 1,104,-1
 6892 726 l 1,94,-1
5673.5 432 m 128,-1,106
 5684 408 5684 408 5694 383 c 1,107,108
 5705 409 5705 409 5714 433 c 0,109,110
 5725 459 5725 459 5737 479 c 2,111,-1
 6201 1284 l 2,112,113
 6213 1305 6213 1305 6227 1309.5 c 128,-1,114
 6241 1314 6241 1314 6265 1314 c 2,115,-1
 6399 1314 l 1,116,-1
 6399 0 l 1,117,-1
 6238 0 l 1,118,-1
 6238 959 l 2,119,120
 6238 979 6238 979 6239.5 1003.5 c 128,-1,121
 6241 1028 6241 1028 6243 1053 c 1,122,-1
 5774 229 l 2,123,124
 5751 188 5751 188 5708 188 c 2,125,-1
 5682 188 l 2,126,127
 5640 188 5640 188 5616 229 c 2,128,-1
 5136 1052 l 1,129,130
 5142 1002 5142 1002 5142 959 c 2,131,-1
 5142 0 l 1,132,-1
 4982 0 l 1,133,-1
 4982 1314 l 1,134,-1
 5116 1314 l 2,135,136
 5140 1314 5140 1314 5154 1310 c 0,137,138
 5167 1305 5167 1305 5180 1283 c 2,139,-1
 5650 479 l 1,140,105
 5663 456 5663 456 5673.5 432 c 128,-1,106
2659 1314 m 1,141,-1
 2806 1314 l 2,142,143
 2830 1314 2830 1314 2845 1302 c 0,144,145
 2861 1289 2861 1289 2867 1272 c 2,146,-1
 3192 351 l 2,147,148
 3214 287 3214 287 3216 284 c 0,149,150
 3227 247 3227 247 3236 207 c 1,151,152
 3244 247 3244 247 3254 284 c 0,153,154
 3259 300 3259 300 3277 351 c 2,155,-1
 3601 1271 l 2,156,157
 3607 1288 3607 1288 3623 1301 c 128,-1,158
 3639 1314 3639 1314 3662 1314 c 2,159,-1
 3809 1314 l 1,160,-1
 3316 0 l 1,161,-1
 3152 0 l 1,162,-1
 2659 1314 l 1,141,-1
2606 657 m 0,163,164
 2606 509 2606 509 2562.5 386 c 128,-1,165
 2519 263 2519 263 2439.5 174 c 128,-1,166
 2360 85 2360 85 2248.5 35.5 c 128,-1,167
 2137 -14 2137 -14 2001 -14 c 0,168,169
 1866 -14 1866 -14 1754 35.5 c 128,-1,170
 1642 85 1642 85 1562 174 c 128,-1,171
 1482 263 1482 263 1438 386 c 128,-1,172
 1394 509 1394 509 1394 657 c 0,173,174
 1394 804 1394 804 1438 927.5 c 128,-1,175
 1482 1051 1482 1051 1562 1140.5 c 128,-1,176
 1642 1230 1642 1230 1754 1279.5 c 128,-1,177
 1866 1329 1866 1329 2001 1329 c 0,178,179
 2137 1329 2137 1329 2248.5 1279.5 c 128,-1,180
 2360 1230 2360 1230 2439.5 1140.5 c 128,-1,181
 2519 1051 2519 1051 2562.5 927.5 c 128,-1,182
 2606 804 2606 804 2606 657 c 0,163,164
2420 657 m 256,183,184
 2420 777 2420 777 2390.5 872.5 c 128,-1,185
 2361 968 2361 968 2306.5 1034.5 c 128,-1,186
 2252 1101 2252 1101 2174.5 1136.5 c 128,-1,187
 2097 1172 2097 1172 2001 1172 c 256,188,189
 1905 1172 1905 1172 1827.5 1136.5 c 128,-1,190
 1750 1101 1750 1101 1695 1034.5 c 128,-1,191
 1640 968 1640 968 1610.5 872.5 c 128,-1,192
 1581 777 1581 777 1581 657 c 256,193,194
 1581 537 1581 537 1610.5 441.5 c 128,-1,195
 1640 346 1640 346 1695 279.5 c 128,-1,196
 1750 213 1750 213 1827.5 178 c 128,-1,197
 1905 143 1905 143 2001 143 c 256,198,199
 2097 143 2097 143 2174.5 178 c 128,-1,200
 2252 213 2252 213 2306.5 279.5 c 128,-1,201
 2361 346 2361 346 2390.5 441.5 c 128,-1,202
 2420 537 2420 537 2420 657 c 256,183,184
278 1308.5 m 128,-1,204
 290 1303 290 1303 305 1283 c 2,205,-1
 1019 300 l 1,206,207
 1017 324 1017 324 1015.5 347.5 c 128,-1,208
 1014 371 1014 371 1014 391 c 2,209,-1
 1014 1314 l 1,210,-1
 1174 1314 l 1,211,-1
 1174 0 l 1,212,-1
 1082 0 l 2,213,214
 1061 0 1061 0 1046.5 7 c 128,-1,215
 1032 14 1032 14 1018 32 c 2,216,-1
 304 1012 l 1,217,218
 306 989 306 989 307 968 c 128,-1,219
 308 947 308 947 308 928 c 2,220,-1
 308 0 l 1,221,-1
 148 0 l 1,222,-1
 148 1314 l 1,223,-1
 243 1314 l 1,224,203
 266 1314 266 1314 278 1308.5 c 128,-1,204
EndSplineSet
Validated: 1
EndChar

StartChar: O
Encoding: 79 79 16
Width: 6105
GlyphClass: 2
Flags: W
LayerCount: 2
Fore
SplineSet
4859 546 m 1,0,-1
 4859 0 l 1,1,-1
 4677 0 l 1,2,-1
 4677 1314 l 1,3,-1
 5037 1314 l 2,4,5
 5157 1314 5157 1314 5244.5 1288.5 c 128,-1,6
 5332 1263 5332 1263 5388.5 1215.5 c 128,-1,7
 5445 1168 5445 1168 5472 1100.5 c 128,-1,8
 5499 1033 5499 1033 5499 949 c 0,9,10
 5499 880 5499 880 5478.5 820 c 128,-1,11
 5458 760 5458 760 5419.5 712 c 128,-1,12
 5381 664 5381 664 5325 629.5 c 128,-1,13
 5269 595 5269 595 5198 577 c 1,14,15
 5215 566 5215 566 5230 552.5 c 0,16,17
 5248.36656767 535.663979635 5248.36656767 535.663979635 5259 520 c 2,18,-1
 5612 0 l 1,19,-1
 5450 0 l 2,20,21
 5401.58760684 5.11590769747e-13 5401.58760684 5.11590769747e-13 5377 37 c 2,22,-1
 5066 505 l 2,23,24
 5051 527 5051 527 5033.5 536.5 c 128,-1,25
 5016 546 5016 546 4981 546 c 2,26,-1
 4859 546 l 1,0,-1
4859 679 m 1,27,-1
 5030 679 l 2,28,29
 5102 679 5102 679 5156.5 697.5 c 128,-1,30
 5211 716 5211 716 5248 750 c 128,-1,31
 5285 784 5285 784 5303.5 831.5 c 128,-1,32
 5322 879 5322 879 5322 936 c 0,33,34
 5322 1171 5322 1171 5037 1171 c 2,35,-1
 4859 1171 l 1,36,-1
 4859 679 l 1,27,-1
4523 0 m 1,37,-1
 4382 0 l 2,38,39
 4358 0 4358 0 4343.5 12 c 0,40,41
 4326.52934723 26.3993417444 4326.52934723 26.3993417444 4321 42 c 2,42,-1
 4209 358 l 1,43,-1
 3667 358 l 1,44,-1
 3556 43 l 2,45,46
 3550 26 3550 26 3533.5 13 c 128,-1,47
 3517 0 3517 0 3494 0 c 2,48,-1
 3353 0 l 1,49,-1
 3846 1314 l 1,50,-1
 4031 1314 l 1,51,-1
 4523 0 l 1,37,-1
3713 488 m 1,52,-1
 4163 488 l 1,53,-1
 3977 1017 l 2,54,55
 3967 1041 3967 1041 3957 1073 c 128,-1,56
 3947 1105 3947 1105 3938 1142 c 1,57,58
 3928 1104 3928 1104 3918 1072 c 0,59,60
 3905 1034 3905 1034 3899 1016 c 2,61,-1
 3713 488 l 1,52,-1
3224 274 m 0,62,63
 3238.92307692 274 3238.92307692 274 3250 262 c 2,64,-1
 3322 184 l 1,65,66
 3251 90 3251 90 3147 38 c 128,-1,67
 3043 -14 3043 -14 2898 -14 c 0,68,69
 2770 -14 2770 -14 2666.5 35 c 128,-1,70
 2563 84 2563 84 2489.5 172.5 c 128,-1,71
 2416 261 2416 261 2376.5 384.5 c 128,-1,72
 2337 508 2337 508 2337 657 c 256,73,74
 2337 806 2337 806 2379 929.5 c 128,-1,75
 2421 1053 2421 1053 2497 1142 c 128,-1,76
 2573 1231 2573 1231 2679 1280 c 128,-1,77
 2785 1329 2785 1329 2913 1329 c 0,78,79
 3040 1329 3040 1329 3136.5 1284 c 128,-1,80
 3233 1239 3233 1239 3305 1162 c 1,81,-1
 3245 1078 l 2,82,83
 3238 1068 3238 1068 3230 1063 c 0,84,85
 3221 1057 3221 1057 3207 1057 c 0,86,87
 3190 1057 3190 1057 3169.5 1075 c 128,-1,88
 3149 1093 3149 1093 3116 1114.5 c 128,-1,89
 3083 1136 3083 1136 3034 1154 c 128,-1,90
 2985 1172 2985 1172 2912 1172 c 0,91,92
 2826 1172 2826 1172 2754.5 1137 c 128,-1,93
 2683 1102 2683 1102 2631.5 1035.5 c 128,-1,94
 2580 969 2580 969 2551.5 873.5 c 128,-1,95
 2523 778 2523 778 2523 657 c 0,96,97
 2523 535 2523 535 2553 439 c 128,-1,98
 2583 343 2583 343 2635 277 c 128,-1,99
 2687 211 2687 211 2757.5 176 c 128,-1,100
 2828 141 2828 141 2909 141 c 0,101,102
 2959 141 2959 141 2998.5 148 c 128,-1,103
 3038 155 3038 155 3071.5 169.5 c 128,-1,104
 3105 184 3105 184 3134.5 206.5 c 0,105,106
 3156 223 3156 223 3193 260 c 0,107,108
 3207 274 3207 274 3224 274 c 0,62,63
2153 1107 m 2,109,110
 2138.17647059 1079 2138.17647059 1079 2112 1079 c 0,111,112
 2097 1079 2097 1079 2076.5 1094.5 c 128,-1,113
 2056 1110 2056 1110 2026.5 1128.5 c 128,-1,114
 1997 1147 1997 1147 1955.5 1162.5 c 128,-1,115
 1914 1178 1914 1178 1856 1178 c 0,116,117
 1801 1178 1801 1178 1759.5 1162.5 c 128,-1,118
 1718 1147 1718 1147 1690.5 1119.5 c 128,-1,119
 1663 1092 1663 1092 1649 1055.5 c 128,-1,120
 1635 1019 1635 1019 1635 977 c 0,121,122
 1635 922 1635 922 1660.5 886 c 128,-1,123
 1686 850 1686 850 1727.5 824.5 c 128,-1,124
 1769 799 1769 799 1822 780 c 128,-1,125
 1875 761 1875 761 1930 741 c 128,-1,126
 1985 721 1985 721 2038 695.5 c 128,-1,127
 2091 670 2091 670 2132.5 631.5 c 128,-1,128
 2174 593 2174 593 2199.5 537 c 128,-1,129
 2225 481 2225 481 2225 400 c 0,130,131
 2225 313 2225 313 2197 237.5 c 128,-1,132
 2169 162 2169 162 2115.5 106 c 128,-1,133
 2062 50 2062 50 1984 18 c 128,-1,134
 1906 -14 1906 -14 1806 -14 c 0,135,136
 1685 -14 1685 -14 1583.5 32.5 c 128,-1,137
 1482 79 1482 79 1411 158 c 1,138,-1
 1464 244 l 2,139,140
 1471 255 1471 255 1481.5 261.5 c 128,-1,141
 1492 268 1492 268 1506 268 c 0,142,143
 1525 268 1525 268 1548.5 247.5 c 128,-1,144
 1572 227 1572 227 1607 202.5 c 128,-1,145
 1642 178 1642 178 1691.5 157.5 c 128,-1,146
 1741 137 1741 137 1810 137 c 0,147,148
 1868 137 1868 137 1913 154 c 128,-1,149
 1958 171 1958 171 1989.5 202 c 128,-1,150
 2021 233 2021 233 2037.5 276.5 c 128,-1,151
 2054 320 2054 320 2054 373 c 0,152,153
 2054 432 2054 432 2028.5 470 c 128,-1,154
 2003 508 2003 508 1961.5 533.5 c 128,-1,155
 1920 559 1920 559 1867 576.5 c 128,-1,156
 1814 594 1814 594 1759 613 c 128,-1,157
 1704 632 1704 632 1651 656.5 c 128,-1,158
 1598 681 1598 681 1556.5 721 c 128,-1,159
 1515 761 1515 761 1489.5 820 c 128,-1,160
 1464 879 1464 879 1464 967 c 0,161,162
 1464 1036 1464 1036 1490 1101.5 c 128,-1,163
 1516 1167 1516 1167 1565.5 1217.5 c 128,-1,164
 1615 1268 1615 1268 1687.5 1298.5 c 128,-1,165
 1760 1329 1760 1329 1854 1329 c 0,166,167
 1959 1329 1959 1329 2046.5 1294 c 128,-1,168
 2134 1259 2134 1259 2198 1192 c 1,169,-1
 2153 1107 l 2,109,110
1284 657 m 0,170,171
 1284 509 1284 509 1240.5 386 c 128,-1,172
 1197 263 1197 263 1117.5 174 c 128,-1,173
 1038 85 1038 85 926.5 35.5 c 128,-1,174
 815 -14 815 -14 679 -14 c 0,175,176
 544 -14 544 -14 432 35.5 c 128,-1,177
 320 85 320 85 240 174 c 128,-1,178
 160 263 160 263 116 386 c 128,-1,179
 72 509 72 509 72 657 c 0,180,181
 72 804 72 804 116 927.5 c 128,-1,182
 160 1051 160 1051 240 1140.5 c 128,-1,183
 320 1230 320 1230 432 1279.5 c 128,-1,184
 544 1329 544 1329 679 1329 c 0,185,186
 815 1329 815 1329 926.5 1279.5 c 128,-1,187
 1038 1230 1038 1230 1117.5 1140.5 c 128,-1,188
 1197 1051 1197 1051 1240.5 927.5 c 128,-1,189
 1284 804 1284 804 1284 657 c 0,170,171
1098 657 m 256,190,191
 1098 777 1098 777 1068.5 872.5 c 128,-1,192
 1039 968 1039 968 984.5 1034.5 c 128,-1,193
 930 1101 930 1101 852.5 1136.5 c 128,-1,194
 775 1172 775 1172 679 1172 c 256,195,196
 583 1172 583 1172 505.5 1136.5 c 128,-1,197
 428 1101 428 1101 373 1034.5 c 128,-1,198
 318 968 318 968 288.5 872.5 c 128,-1,199
 259 777 259 777 259 657 c 256,200,201
 259 537 259 537 288.5 441.5 c 128,-1,202
 318 346 318 346 373 279.5 c 128,-1,203
 428 213 428 213 505.5 178 c 128,-1,204
 583 143 583 143 679 143 c 256,205,206
 775 143 775 143 852.5 178 c 128,-1,207
 930 213 930 213 984.5 279.5 c 128,-1,208
 1039 346 1039 346 1068.5 441.5 c 128,-1,209
 1098 537 1098 537 1098 657 c 256,190,191
EndSplineSet
Validated: 1
EndChar

StartChar: P
Encoding: 80 80 17
Width: 4589
GlyphClass: 2
Flags: W
LayerCount: 2
Fore
SplineSet
4089 0 m 1,0,-1
 3948 0 l 2,1,2
 3924 0 3924 0 3909.5 12 c 0,3,4
 3892.52929688 26.3994140625 3892.52929688 26.3994140625 3887 42 c 2,5,-1
 3775 358 l 1,6,-1
 3233 358 l 1,7,-1
 3122 43 l 2,8,9
 3116 26 3116 26 3099.5 13 c 128,-1,10
 3083 0 3083 0 3060 0 c 2,11,-1
 2919 0 l 1,12,-1
 3412 1314 l 1,13,-1
 3597 1314 l 1,14,-1
 4089 0 l 1,0,-1
3279 488 m 1,15,-1
 3729 488 l 1,16,-1
 3543 1017 l 2,17,18
 3533 1041 3533 1041 3523 1073 c 128,-1,19
 3513 1105 3513 1105 3504 1142 c 1,20,21
 3494 1104 3494 1104 3484 1072 c 0,22,23
 3471 1034 3471 1034 3465 1016 c 2,24,-1
 3279 488 l 1,15,-1
2377 490 m 1,25,-1
 2377 0 l 1,26,-1
 2195 0 l 1,27,-1
 2195 1314 l 1,28,-1
 2572 1314 l 2,29,30
 2692 1314 2692 1314 2780.5 1285 c 128,-1,31
 2869 1256 2869 1256 2927 1203 c 128,-1,32
 2985 1150 2985 1150 3013.5 1074.5 c 128,-1,33
 3042 999 3042 999 3042 906 c 0,34,35
 3042 814 3042 814 3011.5 738 c 128,-1,36
 2981 662 2981 662 2921.5 606.5 c 128,-1,37
 2862 551 2862 551 2774.5 520.5 c 128,-1,38
 2687 490 2687 490 2572 490 c 2,39,-1
 2377 490 l 1,25,-1
2377 634 m 1,40,-1
 2572 634 l 2,41,42
 2642 634 2642 634 2696 654 c 128,-1,43
 2750 674 2750 674 2786.5 710 c 128,-1,44
 2823 746 2823 746 2841.5 796 c 128,-1,45
 2860 846 2860 846 2860 906 c 0,46,47
 2860 1032 2860 1032 2789 1101.5 c 128,-1,48
 2718 1171 2718 1171 2572 1171 c 2,49,-1
 2377 1171 l 1,50,-1
 2377 634 l 1,40,-1
2041 0 m 1,51,-1
 1900 0 l 2,52,53
 1876 0 1876 0 1861.5 12 c 0,54,55
 1844.52934723 26.3993417444 1844.52934723 26.3993417444 1839 42 c 2,56,-1
 1727 358 l 1,57,-1
 1185 358 l 1,58,-1
 1074 43 l 2,59,60
 1068 26 1068 26 1051.5 13 c 128,-1,61
 1035 0 1035 0 1012 0 c 2,62,-1
 871 0 l 1,63,-1
 1364 1314 l 1,64,-1
 1549 1314 l 1,65,-1
 2041 0 l 1,51,-1
1231 488 m 1,66,-1
 1681 488 l 1,67,-1
 1495 1017 l 2,68,69
 1485 1041 1485 1041 1475 1073 c 128,-1,70
 1465 1105 1465 1105 1456 1142 c 1,71,72
 1446 1104 1446 1104 1436 1072 c 0,73,74
 1423 1034 1423 1034 1417 1016 c 2,75,-1
 1231 488 l 1,66,-1
329 490 m 1,76,-1
 329 0 l 1,77,-1
 147 0 l 1,78,-1
 147 1314 l 1,79,-1
 524 1314 l 2,80,81
 644 1314 644 1314 732.5 1285 c 128,-1,82
 821 1256 821 1256 879 1203 c 128,-1,83
 937 1150 937 1150 965.5 1074.5 c 128,-1,84
 994 999 994 999 994 906 c 0,85,86
 994 814 994 814 963.5 738 c 128,-1,87
 933 662 933 662 873.5 606.5 c 128,-1,88
 814 551 814 551 726.5 520.5 c 128,-1,89
 639 490 639 490 524 490 c 2,90,-1
 329 490 l 1,76,-1
329 634 m 1,91,-1
 524 634 l 2,92,93
 594 634 594 634 648 654 c 128,-1,94
 702 674 702 674 738.5 710 c 128,-1,95
 775 746 775 746 793.5 796 c 128,-1,96
 812 846 812 846 812 906 c 0,97,98
 812 1032 812 1032 741 1101.5 c 128,-1,99
 670 1171 670 1171 524 1171 c 2,100,-1
 329 1171 l 1,101,-1
 329 634 l 1,91,-1
EndSplineSet
Validated: 1
EndChar

StartChar: Q
Encoding: 81 81 18
Width: 7221
GlyphClass: 2
Flags: W
LayerCount: 2
Fore
SplineSet
5603 1314 m 1,0,-1
 5603 1166 l 1,1,-1
 5018 1166 l 1,2,-1
 5018 735 l 1,3,-1
 5489 735 l 1,4,-1
 5489 592 l 1,5,-1
 5018 592 l 1,6,-1
 5018 148 l 1,7,-1
 5603 148 l 1,8,-1
 5603 0 l 1,9,-1
 4835 0 l 1,10,-1
 4835 1314 l 1,11,-1
 5603 1314 l 1,0,-1
6620 274 m 0,12,13
 6634.92307692 274 6634.92307692 274 6646 262 c 2,14,-1
 6718 184 l 1,15,16
 6647 90 6647 90 6543 38 c 128,-1,17
 6439 -14 6439 -14 6294 -14 c 0,18,19
 6166 -14 6166 -14 6062.5 35 c 128,-1,20
 5959 84 5959 84 5885.5 172.5 c 128,-1,21
 5812 261 5812 261 5772.5 384.5 c 128,-1,22
 5733 508 5733 508 5733 657 c 256,23,24
 5733 806 5733 806 5775 929.5 c 128,-1,25
 5817 1053 5817 1053 5893 1142 c 128,-1,26
 5969 1231 5969 1231 6075 1280 c 128,-1,27
 6181 1329 6181 1329 6309 1329 c 0,28,29
 6436 1329 6436 1329 6532.5 1284 c 128,-1,30
 6629 1239 6629 1239 6701 1162 c 1,31,-1
 6641 1078 l 2,32,33
 6634 1068 6634 1068 6626 1063 c 0,34,35
 6617 1057 6617 1057 6603 1057 c 0,36,37
 6586 1057 6586 1057 6565.5 1075 c 128,-1,38
 6545 1093 6545 1093 6512 1114.5 c 128,-1,39
 6479 1136 6479 1136 6430 1154 c 128,-1,40
 6381 1172 6381 1172 6308 1172 c 0,41,42
 6222 1172 6222 1172 6150.5 1137 c 128,-1,43
 6079 1102 6079 1102 6027.5 1035.5 c 128,-1,44
 5976 969 5976 969 5947.5 873.5 c 128,-1,45
 5919 778 5919 778 5919 657 c 0,46,47
 5919 535 5919 535 5949 439 c 128,-1,48
 5979 343 5979 343 6031 277 c 128,-1,49
 6083 211 6083 211 6153.5 176 c 128,-1,50
 6224 141 6224 141 6305 141 c 0,51,52
 6355 141 6355 141 6394.5 148 c 128,-1,53
 6434 155 6434 155 6467.5 169.5 c 128,-1,54
 6501 184 6501 184 6530.5 206.5 c 0,55,56
 6552 223 6552 223 6589 260 c 0,57,58
 6603 274 6603 274 6620 274 c 0,12,13
3720 0 m 1,59,-1
 3720 1314 l 1,60,-1
 4121 1314 l 2,61,62
 4237 1314 4237 1314 4320.5 1290.5 c 128,-1,63
 4404 1267 4404 1267 4457.5 1222.5 c 128,-1,64
 4511 1178 4511 1178 4536 1114.5 c 128,-1,65
 4561 1051 4561 1051 4561 971 c 0,66,67
 4561 923 4561 923 4546.5 878 c 128,-1,68
 4532 833 4532 833 4503 795 c 128,-1,69
 4474 757 4474 757 4430 726 c 128,-1,70
 4386 695 4386 695 4326 676 c 1,71,72
 4463 649 4463 649 4532.5 573.5 c 128,-1,73
 4602 498 4602 498 4602 375 c 0,74,75
 4602 291 4602 291 4573 222 c 128,-1,76
 4544 153 4544 153 4488 103.5 c 128,-1,77
 4432 54 4432 54 4350.5 27 c 128,-1,78
 4269 0 4269 0 4164 0 c 2,79,-1
 3720 0 l 1,59,-1
3902 598 m 1,80,-1
 3902 144 l 1,81,-1
 4161 144 l 2,82,83
 4230 144 4230 144 4279.5 161.5 c 128,-1,84
 4329 179 4329 179 4360.5 210 c 128,-1,85
 4392 241 4392 241 4406.5 284.5 c 128,-1,86
 4421 328 4421 328 4421 379 c 0,87,88
 4421 480 4421 480 4357.5 539 c 128,-1,89
 4294 598 4294 598 4161 598 c 2,90,-1
 3902 598 l 1,80,-1
3902 726 m 1,91,-1
 4114 726 l 2,92,93
 4181 726 4181 726 4231 742.5 c 128,-1,94
 4281 759 4281 759 4314 788 c 128,-1,95
 4347 817 4347 817 4363.5 858 c 128,-1,96
 4380 899 4380 899 4380 949 c 0,97,98
 4380 1064 4380 1064 4317.5 1117.5 c 128,-1,99
 4255 1171 4255 1171 4121 1171 c 2,100,-1
 3902 1171 l 1,101,-1
 3902 726 l 1,91,-1
3489 1314 m 1,102,-1
 3489 1166 l 1,103,-1
 2904 1166 l 1,104,-1
 2904 735 l 1,105,-1
 3375 735 l 1,106,-1
 3375 592 l 1,107,-1
 2904 592 l 1,108,-1
 2904 148 l 1,109,-1
 3489 148 l 1,110,-1
 3489 0 l 1,111,-1
 2721 0 l 1,112,-1
 2721 1314 l 1,113,-1
 3489 1314 l 1,102,-1
1919 144 m 256,114,115
 1998 144 1998 144 2060.5 171.5 c 128,-1,116
 2123 199 2123 199 2166 248.5 c 128,-1,117
 2209 298 2209 298 2231.5 366 c 128,-1,118
 2254 434 2254 434 2254 516 c 2,119,-1
 2254 1314 l 1,120,-1
 2436 1314 l 1,121,-1
 2436 516 l 2,122,123
 2436 402 2436 402 2400 305 c 128,-1,124
 2364 208 2364 208 2297.5 137 c 128,-1,125
 2231 66 2231 66 2135 25.5 c 128,-1,126
 2039 -15 2039 -15 1919 -15 c 256,127,128
 1799 -15 1799 -15 1703.5 25.5 c 128,-1,129
 1608 66 1608 66 1541 137 c 128,-1,130
 1474 208 1474 208 1438 305 c 128,-1,131
 1402 402 1402 402 1402 516 c 2,132,-1
 1402 1314 l 1,133,-1
 1584 1314 l 1,134,-1
 1584 517 l 2,135,136
 1584 435 1584 435 1606.5 366.5 c 128,-1,137
 1629 298 1629 298 1672 248.5 c 128,-1,138
 1715 199 1715 199 1777.5 171.5 c 128,-1,139
 1840 144 1840 144 1919 144 c 256,114,115
1295 657 m 0,140,141
 1295 483 1295 483 1236 345.5 c 128,-1,142
 1177 208 1177 208 1071 118 c 1,143,-1
 1411 -271 l 1,144,-1
 1260 -271 l 2,145,146
 1227 -271 1227 -271 1201 -261 c 128,-1,147
 1175 -251 1175 -251 1153 -228 c 2,148,-1
 929 32 l 1,149,150
 820 -14 820 -14 690 -14 c 0,151,152
 555 -14 555 -14 443 35.5 c 128,-1,153
 331 85 331 85 251 174 c 128,-1,154
 171 263 171 263 127 386 c 128,-1,155
 83 509 83 509 83 657 c 0,156,157
 83 804 83 804 127 927.5 c 128,-1,158
 171 1051 171 1051 251 1140.5 c 128,-1,159
 331 1230 331 1230 443 1279.5 c 128,-1,160
 555 1329 555 1329 690 1329 c 0,161,162
 826 1329 826 1329 937.5 1279.5 c 128,-1,163
 1049 1230 1049 1230 1128.5 1140.5 c 128,-1,164
 1208 1051 1208 1051 1251.5 927.5 c 128,-1,165
 1295 804 1295 804 1295 657 c 0,140,141
1109 657 m 256,166,167
 1109 777 1109 777 1079.5 872.5 c 128,-1,168
 1050 968 1050 968 995.5 1034.5 c 128,-1,169
 941 1101 941 1101 863.5 1136.5 c 128,-1,170
 786 1172 786 1172 690 1172 c 256,171,172
 594 1172 594 1172 516.5 1136.5 c 128,-1,173
 439 1101 439 1101 384 1034.5 c 128,-1,174
 329 968 329 968 299.5 872.5 c 128,-1,175
 270 777 270 777 270 657 c 256,176,177
 270 537 270 537 299.5 441.5 c 128,-1,178
 329 346 329 346 384 279.5 c 128,-1,179
 439 213 439 213 516.5 178 c 128,-1,180
 594 143 594 143 690 143 c 256,181,182
 786 143 786 143 863.5 178 c 128,-1,183
 941 213 941 213 995.5 279.5 c 128,-1,184
 1050 346 1050 346 1079.5 441.5 c 128,-1,185
 1109 537 1109 537 1109 657 c 256,166,167
EndSplineSet
Validated: 1
EndChar

StartChar: R
Encoding: 82 82 19
Width: 6986
GlyphClass: 2
Flags: W
LayerCount: 2
Fore
SplineSet
6451 657 m 0,0,1
 6451 509 6451 509 6407.5 386 c 128,-1,2
 6364 263 6364 263 6284.5 174 c 128,-1,3
 6205 85 6205 85 6093.5 35.5 c 128,-1,4
 5982 -14 5982 -14 5846 -14 c 0,5,6
 5711 -14 5711 -14 5599 35.5 c 128,-1,7
 5487 85 5487 85 5407 174 c 128,-1,8
 5327 263 5327 263 5283 386 c 128,-1,9
 5239 509 5239 509 5239 657 c 0,10,11
 5239 804 5239 804 5283 927.5 c 128,-1,12
 5327 1051 5327 1051 5407 1140.5 c 128,-1,13
 5487 1230 5487 1230 5599 1279.5 c 128,-1,14
 5711 1329 5711 1329 5846 1329 c 0,15,16
 5982 1329 5982 1329 6093.5 1279.5 c 128,-1,17
 6205 1230 6205 1230 6284.5 1140.5 c 128,-1,18
 6364 1051 6364 1051 6407.5 927.5 c 128,-1,19
 6451 804 6451 804 6451 657 c 0,0,1
6265 657 m 256,20,21
 6265 777 6265 777 6235.5 872.5 c 128,-1,22
 6206 968 6206 968 6151.5 1034.5 c 128,-1,23
 6097 1101 6097 1101 6019.5 1136.5 c 128,-1,24
 5942 1172 5942 1172 5846 1172 c 256,25,26
 5750 1172 5750 1172 5672.5 1136.5 c 128,-1,27
 5595 1101 5595 1101 5540 1034.5 c 128,-1,28
 5485 968 5485 968 5455.5 872.5 c 128,-1,29
 5426 777 5426 777 5426 657 c 256,30,31
 5426 537 5426 537 5455.5 441.5 c 128,-1,32
 5485 346 5485 346 5540 279.5 c 128,-1,33
 5595 213 5595 213 5672.5 178 c 128,-1,34
 5750 143 5750 143 5846 143 c 256,35,36
 5942 143 5942 143 6019.5 178 c 128,-1,37
 6097 213 6097 213 6151.5 279.5 c 128,-1,38
 6206 346 6206 346 6235.5 441.5 c 128,-1,39
 6265 537 6265 537 6265 657 c 256,20,21
5112 1314 m 1,40,-1
 5112 1166 l 1,41,-1
 4527 1166 l 1,42,-1
 4527 735 l 1,43,-1
 4998 735 l 1,44,-1
 4998 592 l 1,45,-1
 4527 592 l 1,46,-1
 4527 148 l 1,47,-1
 5112 148 l 1,48,-1
 5112 0 l 1,49,-1
 4344 0 l 1,50,-1
 4344 1314 l 1,51,-1
 5112 1314 l 1,40,-1
3306.5 432 m 128,-1,53
 3317 408 3317 408 3327 383 c 1,54,55
 3338 409 3338 409 3348 433 c 0,56,57
 3356 455 3356 455 3370 479 c 2,58,-1
 3834 1284 l 2,59,60
 3846 1305 3846 1305 3860 1309.5 c 128,-1,61
 3874 1314 3874 1314 3898 1314 c 2,62,-1
 4032 1314 l 1,63,-1
 4032 0 l 1,64,-1
 3871 0 l 1,65,-1
 3871 959 l 2,66,67
 3871 979 3871 979 3872.5 1003.5 c 128,-1,68
 3874 1028 3874 1028 3876 1053 c 1,69,-1
 3407 229 l 2,70,71
 3384 188 3384 188 3341 188 c 2,72,-1
 3315 188 l 2,73,74
 3273 188 3273 188 3249 229 c 2,75,-1
 2769 1052 l 1,76,77
 2775 1002 2775 1002 2775 959 c 2,78,-1
 2775 0 l 1,79,-1
 2615 0 l 1,80,-1
 2615 1314 l 1,81,-1
 2749 1314 l 2,82,83
 2773 1314 2773 1314 2786 1310 c 0,84,85
 2800 1305 2800 1305 2813 1283 c 2,86,-1
 3283 479 l 1,87,52
 3296 456 3296 456 3306.5 432 c 128,-1,53
2376 657 m 0,88,89
 2376 509 2376 509 2332.5 386 c 128,-1,90
 2289 263 2289 263 2209.5 174 c 128,-1,91
 2130 85 2130 85 2018.5 35.5 c 128,-1,92
 1907 -14 1907 -14 1771 -14 c 0,93,94
 1636 -14 1636 -14 1524 35.5 c 128,-1,95
 1412 85 1412 85 1332 174 c 128,-1,96
 1252 263 1252 263 1208 386 c 128,-1,97
 1164 509 1164 509 1164 657 c 0,98,99
 1164 804 1164 804 1208 927.5 c 128,-1,100
 1252 1051 1252 1051 1332 1140.5 c 128,-1,101
 1412 1230 1412 1230 1524 1279.5 c 128,-1,102
 1636 1329 1636 1329 1771 1329 c 0,103,104
 1907 1329 1907 1329 2018.5 1279.5 c 128,-1,105
 2130 1230 2130 1230 2209.5 1140.5 c 128,-1,106
 2289 1051 2289 1051 2332.5 927.5 c 128,-1,107
 2376 804 2376 804 2376 657 c 0,88,89
2190 657 m 256,108,109
 2190 777 2190 777 2160.5 872.5 c 128,-1,110
 2131 968 2131 968 2076.5 1034.5 c 128,-1,111
 2022 1101 2022 1101 1944.5 1136.5 c 128,-1,112
 1867 1172 1867 1172 1771 1172 c 256,113,114
 1675 1172 1675 1172 1597.5 1136.5 c 128,-1,115
 1520 1101 1520 1101 1465 1034.5 c 128,-1,116
 1410 968 1410 968 1380.5 872.5 c 128,-1,117
 1351 777 1351 777 1351 657 c 256,118,119
 1351 537 1351 537 1380.5 441.5 c 128,-1,120
 1410 346 1410 346 1465 279.5 c 128,-1,121
 1520 213 1520 213 1597.5 178 c 128,-1,122
 1675 143 1675 143 1771 143 c 256,123,124
 1867 143 1867 143 1944.5 178 c 128,-1,125
 2022 213 2022 213 2076.5 279.5 c 128,-1,126
 2131 346 2131 346 2160.5 441.5 c 128,-1,127
 2190 537 2190 537 2190 657 c 256,108,109
329 546 m 1,128,-1
 329 0 l 1,129,-1
 147 0 l 1,130,-1
 147 1314 l 1,131,-1
 507 1314 l 2,132,133
 627 1314 627 1314 714.5 1288.5 c 128,-1,134
 802 1263 802 1263 858.5 1215.5 c 128,-1,135
 915 1168 915 1168 942 1100.5 c 128,-1,136
 969 1033 969 1033 969 949 c 0,137,138
 969 880 969 880 948.5 820 c 128,-1,139
 928 760 928 760 889.5 712 c 128,-1,140
 851 664 851 664 795 629.5 c 128,-1,141
 739 595 739 595 668 577 c 1,142,143
 685 566 685 566 700 552.5 c 128,-1,144
 715 539 715 539 729 520 c 2,145,-1
 1082 0 l 1,146,-1
 920 0 l 2,147,148
 873 0 873 0 847 37 c 2,149,-1
 536 505 l 2,150,151
 521 527 521 527 503.5 536.5 c 128,-1,152
 486 546 486 546 451 546 c 2,153,-1
 329 546 l 1,128,-1
329 679 m 1,154,-1
 500 679 l 2,155,156
 572 679 572 679 626.5 697.5 c 128,-1,157
 681 716 681 716 718 750 c 128,-1,158
 755 784 755 784 773.5 831.5 c 128,-1,159
 792 879 792 879 792 936 c 0,160,161
 792 1171 792 1171 507 1171 c 2,162,-1
 329 1171 l 1,163,-1
 329 679 l 1,154,-1
EndSplineSet
Validated: 1
EndChar

StartChar: S
Encoding: 83 83 20
Width: 6596
GlyphClass: 2
Flags: W
LayerCount: 2
Fore
SplineSet
4689 0 m 1025,0,-1
3898 546 m 1,1,-1
 3898 0 l 1,2,-1
 3716 0 l 1,3,-1
 3716 1314 l 1,4,-1
 4076 1314 l 2,5,6
 4196 1314 4196 1314 4283.5 1288.5 c 128,-1,7
 4371 1263 4371 1263 4427.5 1215.5 c 128,-1,8
 4484 1168 4484 1168 4511 1100.5 c 128,-1,9
 4538 1033 4538 1033 4538 949 c 0,10,11
 4538 880 4538 880 4517.5 820 c 128,-1,12
 4497 760 4497 760 4458.5 712 c 128,-1,13
 4420 664 4420 664 4364 629.5 c 128,-1,14
 4308 595 4308 595 4237 577 c 1,15,16
 4254 566 4254 566 4269 552.5 c 0,17,18
 4287.36621094 535.6640625 4287.36621094 535.6640625 4298 520 c 2,19,-1
 4651 0 l 1,20,-1
 4489 0 l 2,21,22
 4440.58789062 0 4440.58789062 0 4416 37 c 2,23,-1
 4105 505 l 2,24,25
 4091 527 4091 527 4072.5 536.5 c 0,26,27
 4055 546 4055 546 4020 546 c 2,28,-1
 3898 546 l 1,1,-1
3898 679 m 1,29,-1
 4069 679 l 2,30,31
 4141 679 4141 679 4195.5 697.5 c 128,-1,32
 4250 716 4250 716 4287 750 c 128,-1,33
 4324 784 4324 784 4342.5 831.5 c 128,-1,34
 4361 879 4361 879 4361 936 c 0,35,36
 4361 1171 4361 1171 4076 1171 c 2,37,-1
 3898 1171 l 1,38,-1
 3898 679 l 1,29,-1
5859 0 m 1,39,-1
 5718 0 l 2,40,41
 5694 0 5694 0 5679.5 12 c 0,42,43
 5662.52934723 26.3993417444 5662.52934723 26.3993417444 5657 42 c 2,44,-1
 5545 358 l 1,45,-1
 5003 358 l 1,46,-1
 4892 43 l 2,47,48
 4886 26 4886 26 4869.5 13 c 128,-1,49
 4853 0 4853 0 4830 0 c 2,50,-1
 4689 0 l 1,51,-1
 5182 1314 l 1,52,-1
 5367 1314 l 1,53,-1
 5859 0 l 1,39,-1
5049 488 m 1,54,-1
 5499 488 l 1,55,-1
 5313 1017 l 2,56,57
 5303 1041 5303 1041 5293 1073 c 128,-1,58
 5283 1105 5283 1105 5274 1142 c 1,59,60
 5264 1104 5264 1104 5254 1072 c 0,61,62
 5241 1034 5241 1034 5235 1016 c 2,63,-1
 5049 488 l 1,54,-1
2786 546 m 1,64,-1
 2786 0 l 1,65,-1
 2604 0 l 1,66,-1
 2604 1314 l 1,67,-1
 2964 1314 l 2,68,69
 3084 1314 3084 1314 3171.5 1288.5 c 128,-1,70
 3259 1263 3259 1263 3315.5 1215.5 c 128,-1,71
 3372 1168 3372 1168 3399 1100.5 c 128,-1,72
 3426 1033 3426 1033 3426 949 c 0,73,74
 3426 880 3426 880 3405.5 820 c 128,-1,75
 3385 760 3385 760 3346.5 712 c 128,-1,76
 3308 664 3308 664 3252 629.5 c 128,-1,77
 3196 595 3196 595 3125 577 c 1,78,79
 3142 566 3142 566 3157 552.5 c 0,80,81
 3175.36656767 535.663979635 3175.36656767 535.663979635 3186 520 c 2,82,-1
 3539 0 l 1,83,-1
 3377 0 l 2,84,85
 3328.58760684 -1.70530256582e-13 3328.58760684 -1.70530256582e-13 3304 37 c 2,86,-1
 2993 505 l 2,87,88
 2979 527 2979 527 2960.5 536.5 c 0,89,90
 2943 546 2943 546 2908 546 c 2,91,-1
 2786 546 l 1,64,-1
2786 679 m 1,92,-1
 2957 679 l 2,93,94
 3029 679 3029 679 3083.5 697.5 c 128,-1,95
 3138 716 3138 716 3175 750 c 128,-1,96
 3212 784 3212 784 3230.5 831.5 c 128,-1,97
 3249 879 3249 879 3249 936 c 0,98,99
 3249 1171 3249 1171 2964 1171 c 2,100,-1
 2786 1171 l 1,101,-1
 2786 679 l 1,92,-1
2370 1314 m 1,102,-1
 2370 1166 l 1,103,-1
 1785 1166 l 1,104,-1
 1785 735 l 1,105,-1
 2256 735 l 1,106,-1
 2256 592 l 1,107,-1
 1785 592 l 1,108,-1
 1785 148 l 1,109,-1
 2370 148 l 1,110,-1
 2370 0 l 1,111,-1
 1602 0 l 1,112,-1
 1602 1314 l 1,113,-1
 2370 1314 l 1,102,-1
1290 0 m 1,114,-1
 1108 0 l 1,115,-1
 1108 1314 l 1,116,-1
 1290 1314 l 1,117,-1
 1290 0 l 1,114,-1
797 1107 m 2,118,119
 782 1079 782 1079 756 1079 c 0,120,121
 741 1079 741 1079 720.5 1094.5 c 128,-1,122
 700 1110 700 1110 670.5 1128.5 c 128,-1,123
 641 1147 641 1147 599.5 1162.5 c 128,-1,124
 558 1178 558 1178 500 1178 c 0,125,126
 445 1178 445 1178 403.5 1162.5 c 128,-1,127
 362 1147 362 1147 334.5 1119.5 c 128,-1,128
 307 1092 307 1092 293 1055.5 c 128,-1,129
 279 1019 279 1019 279 977 c 0,130,131
 279 922 279 922 304.5 886 c 128,-1,132
 330 850 330 850 371.5 824.5 c 128,-1,133
 413 799 413 799 466 780 c 128,-1,134
 519 761 519 761 574 741 c 128,-1,135
 629 721 629 721 682 695.5 c 128,-1,136
 735 670 735 670 776.5 631.5 c 128,-1,137
 818 593 818 593 843.5 537 c 128,-1,138
 869 481 869 481 869 400 c 0,139,140
 869 313 869 313 841 237.5 c 128,-1,141
 813 162 813 162 759.5 106 c 128,-1,142
 706 50 706 50 628 18 c 128,-1,143
 550 -14 550 -14 450 -14 c 0,144,145
 329 -14 329 -14 227.5 32.5 c 128,-1,146
 126 79 126 79 55 158 c 1,147,-1
 108 244 l 2,148,149
 115 255 115 255 125.5 261.5 c 128,-1,150
 136 268 136 268 150 268 c 0,151,152
 169 268 169 268 192.5 247.5 c 128,-1,153
 216 227 216 227 251 202.5 c 128,-1,154
 286 178 286 178 335.5 157.5 c 128,-1,155
 385 137 385 137 454 137 c 0,156,157
 512 137 512 137 557 154 c 128,-1,158
 602 171 602 171 633.5 202 c 128,-1,159
 665 233 665 233 681.5 276.5 c 128,-1,160
 698 320 698 320 698 373 c 0,161,162
 698 432 698 432 672.5 470 c 128,-1,163
 647 508 647 508 605.5 533.5 c 128,-1,164
 564 559 564 559 511 576.5 c 128,-1,165
 458 594 458 594 403 613 c 128,-1,166
 348 632 348 632 295 656.5 c 128,-1,167
 242 681 242 681 200.5 721 c 128,-1,168
 159 761 159 761 133.5 820 c 128,-1,169
 108 879 108 879 108 967 c 0,170,171
 108 1036 108 1036 134 1101.5 c 128,-1,172
 160 1167 160 1167 209.5 1217.5 c 128,-1,173
 259 1268 259 1268 331.5 1298.5 c 128,-1,174
 404 1329 404 1329 498 1329 c 0,175,176
 603 1329 603 1329 690.5 1294 c 128,-1,177
 778 1259 778 1259 842 1192 c 1,178,-1
 797 1107 l 2,118,119
EndSplineSet
Validated: 1
EndChar

StartChar: T
Encoding: 84 84 21
Width: 6456
GlyphClass: 2
Flags: W
LayerCount: 2
Fore
SplineSet
5921 657 m 0,0,1
 5921 509 5921 509 5877.5 386 c 128,-1,2
 5834 263 5834 263 5754.5 174 c 128,-1,3
 5675 85 5675 85 5563.5 35.5 c 128,-1,4
 5452 -14 5452 -14 5316 -14 c 0,5,6
 5181 -14 5181 -14 5069 35.5 c 128,-1,7
 4957 85 4957 85 4877 174 c 128,-1,8
 4797 263 4797 263 4753 386 c 128,-1,9
 4709 509 4709 509 4709 657 c 0,10,11
 4709 804 4709 804 4753 927.5 c 128,-1,12
 4797 1051 4797 1051 4877 1140.5 c 128,-1,13
 4957 1230 4957 1230 5069 1279.5 c 128,-1,14
 5181 1329 5181 1329 5316 1329 c 0,15,16
 5452 1329 5452 1329 5563.5 1279.5 c 128,-1,17
 5675 1230 5675 1230 5754.5 1140.5 c 128,-1,18
 5834 1051 5834 1051 5877.5 927.5 c 128,-1,19
 5921 804 5921 804 5921 657 c 0,0,1
5735 657 m 256,20,21
 5735 777 5735 777 5705.5 872.5 c 128,-1,22
 5676 968 5676 968 5621.5 1034.5 c 128,-1,23
 5567 1101 5567 1101 5489.5 1136.5 c 128,-1,24
 5412 1172 5412 1172 5316 1172 c 256,25,26
 5220 1172 5220 1172 5142.5 1136.5 c 128,-1,27
 5065 1101 5065 1101 5010 1034.5 c 128,-1,28
 4955 968 4955 968 4925.5 872.5 c 128,-1,29
 4896 777 4896 777 4896 657 c 256,30,31
 4896 537 4896 537 4925.5 441.5 c 128,-1,32
 4955 346 4955 346 5010 279.5 c 128,-1,33
 5065 213 5065 213 5142.5 178 c 128,-1,34
 5220 143 5220 143 5316 143 c 256,35,36
 5412 143 5412 143 5489.5 178 c 128,-1,37
 5567 213 5567 213 5621.5 279.5 c 128,-1,38
 5676 346 5676 346 5705.5 441.5 c 128,-1,39
 5735 537 5735 537 5735 657 c 256,20,21
4325.5 21 m 128,-1,41
 4217 -14 4217 -14 4090 -14 c 0,42,43
 3937 -14 3937 -14 3813.5 35 c 128,-1,44
 3690 84 3690 84 3603 172.5 c 128,-1,45
 3516 261 3516 261 3469 384.5 c 128,-1,46
 3422 508 3422 508 3422 657 c 0,47,48
 3422 807 3422 807 3467.5 930.5 c 128,-1,49
 3513 1054 3513 1054 3597.5 1142.5 c 128,-1,50
 3682 1231 3682 1231 3802 1280 c 128,-1,51
 3922 1329 3922 1329 4071 1329 c 0,52,53
 4147 1329 4147 1329 4211.5 1317.5 c 128,-1,54
 4276 1306 4276 1306 4331 1284.5 c 128,-1,55
 4386 1263 4386 1263 4432.5 1232 c 128,-1,56
 4479 1201 4479 1201 4519 1163 c 1,57,-1
 4468 1081 l 2,58,59
 4456 1061 4456 1061 4436 1056 c 128,-1,60
 4416 1051 4416 1051 4393 1065 c 0,61,62
 4370 1078 4370 1078 4342.5 1096.5 c 128,-1,63
 4315 1115 4315 1115 4277 1131.5 c 128,-1,64
 4239 1148 4239 1148 4187 1160 c 128,-1,65
 4135 1172 4135 1172 4064 1172 c 0,66,67
 3960 1172 3960 1172 3875.5 1136 c 128,-1,68
 3791 1100 3791 1100 3731.5 1033 c 128,-1,69
 3672 966 3672 966 3640 870.5 c 128,-1,70
 3608 775 3608 775 3608 657 c 0,71,72
 3608 534 3608 534 3641.5 436.5 c 128,-1,73
 3675 339 3675 339 3737.5 271.5 c 128,-1,74
 3800 204 3800 204 3888 168.5 c 128,-1,75
 3976 133 3976 133 4085 133 c 0,76,77
 4169 133 4169 133 4235 152.5 c 128,-1,78
 4301 172 4301 172 4365 207 c 1,79,-1
 4365 495 l 1,80,-1
 4176 495 l 2,81,82
 4158 495 4158 495 4147 505 c 128,-1,83
 4136 515 4136 515 4136 530 c 2,84,-1
 4136 633 l 1,85,-1
 4530 633 l 1,86,-1
 4530 127 l 1,87,40
 4434 56 4434 56 4325.5 21 c 128,-1,41
2301 1308 m 0,88,89
 2314 1303 2314 1303 2328 1283 c 2,90,-1
 3042 300 l 1,91,92
 3040 324 3040 324 3038.5 347.5 c 128,-1,93
 3037 371 3037 371 3037 391 c 2,94,-1
 3037 1314 l 1,95,-1
 3197 1314 l 1,96,-1
 3197 0 l 1,97,-1
 3105 0 l 2,98,99
 3084 0 3084 0 3070 7 c 0,100,101
 3052 16 3052 16 3041 32 c 2,102,-1
 2327 1012 l 1,103,104
 2329 989 2329 989 2330 968 c 128,-1,105
 2331 947 2331 947 2331 928 c 2,106,-1
 2331 0 l 1,107,-1
 2171 0 l 1,108,-1
 2171 1314 l 1,109,-1
 2266 1314 l 1,110,111
 2289 1314 2289 1314 2301 1308 c 0,88,89
2016 0 m 1,112,-1
 1875 0 l 2,113,114
 1851 0 1851 0 1836 12 c 0,115,116
 1820 26 1820 26 1814 42 c 2,117,-1
 1702 358 l 1,118,-1
 1160 358 l 1,119,-1
 1049 43 l 2,120,121
 1043 26 1043 26 1026.5 13 c 128,-1,122
 1010 0 1010 0 987 0 c 2,123,-1
 846 0 l 1,124,-1
 1339 1314 l 1,125,-1
 1524 1314 l 1,126,-1
 2016 0 l 1,112,-1
1206 488 m 1,127,-1
 1656 488 l 1,128,-1
 1470 1017 l 2,129,130
 1460 1041 1460 1041 1450 1073 c 128,-1,131
 1440 1105 1440 1105 1431 1142 c 1,132,133
 1421 1104 1421 1104 1411 1072 c 0,134,135
 1398 1034 1398 1034 1392 1016 c 2,136,-1
 1206 488 l 1,127,-1
974 1314 m 1,137,-1
 974 1162 l 1,138,-1
 591 1162 l 1,139,-1
 591 0 l 1,140,-1
 408 0 l 1,141,-1
 408 1162 l 1,142,-1
 24 1162 l 1,143,-1
 24 1314 l 1,144,-1
 974 1314 l 1,137,-1
EndSplineSet
Validated: 1
EndChar

StartChar: U
Encoding: 85 85 22
Width: 8953
GlyphClass: 2
Flags: W
LayerCount: 2
Fore
SplineSet
7419.5 432 m 128,-1,1
 7430 408 7430 408 7440 383 c 1,2,3
 7451 409 7451 409 7460 433 c 0,4,5
 7471 459 7471 459 7483 479 c 2,6,-1
 7947 1284 l 2,7,8
 7959 1305 7959 1305 7973 1309.5 c 128,-1,9
 7987 1314 7987 1314 8011 1314 c 2,10,-1
 8145 1314 l 1,11,-1
 8145 0 l 1,12,-1
 7984 0 l 1,13,-1
 7984 959 l 2,14,15
 7984 979 7984 979 7985.5 1003.5 c 128,-1,16
 7987 1028 7987 1028 7989 1053 c 1,17,-1
 7520 229 l 2,18,19
 7497 188 7497 188 7454 188 c 2,20,-1
 7428 188 l 2,21,22
 7386 188 7386 188 7362 229 c 2,23,-1
 6882 1052 l 1,24,25
 6888 1002 6888 1002 6888 959 c 2,26,-1
 6888 0 l 1,27,-1
 6728 0 l 1,28,-1
 6728 1314 l 1,29,-1
 6862 1314 l 2,30,31
 6886 1314 6886 1314 6900 1310 c 0,32,33
 6913 1305 6913 1305 6926 1283 c 2,34,-1
 7396 479 l 1,35,0
 7409 456 7409 456 7419.5 432 c 128,-1,1
5778 546 m 1,36,-1
 5778 0 l 1,37,-1
 5596 0 l 1,38,-1
 5596 1314 l 1,39,-1
 5956 1314 l 2,40,41
 6078 1314 6078 1314 6164 1288 c 0,42,43
 6253 1261 6253 1261 6308 1216 c 0,44,45
 6364 1168 6364 1168 6391 1100.5 c 0,46,47
 6418 1033 6418 1033 6418 949 c 0,48,49
 6418 875 6418 875 6398 820 c 0,50,51
 6377 763 6377 763 6338 712 c 0,52,53
 6302 665 6302 665 6244 630 c 0,54,55
 6185 593 6185 593 6117 577 c 1,56,57
 6134 566 6134 566 6149 552 c 0,58,59
 6167 536 6167 536 6178 520 c 2,60,-1
 6531 0 l 1,61,-1
 6369 0 l 2,62,63
 6321 0 6321 0 6296 37 c 2,64,-1
 5985 505 l 2,65,66
 5970 528 5970 528 5952 536 c 0,67,68
 5935 546 5935 546 5900 546 c 2,69,-1
 5778 546 l 1,36,-1
5778 679 m 1,70,-1
 5949 679 l 2,71,72
 6022 679 6022 679 6076 698 c 0,73,74
 6130 716 6130 716 6167 750 c 128,-1,75
 6204 784 6204 784 6222 832 c 0,76,77
 6241 881 6241 881 6241 936 c 0,78,79
 6241 1171 6241 1171 5956 1171 c 2,80,-1
 5778 1171 l 1,81,-1
 5778 679 l 1,70,-1
5377 657 m 0,82,83
 5377 509 5377 509 5333.5 386 c 128,-1,84
 5290 263 5290 263 5210.5 174 c 128,-1,85
 5131 85 5131 85 5019.5 35.5 c 128,-1,86
 4908 -14 4908 -14 4772 -14 c 0,87,88
 4637 -14 4637 -14 4525 35.5 c 128,-1,89
 4413 85 4413 85 4333 174 c 128,-1,90
 4253 263 4253 263 4209 386 c 128,-1,91
 4165 509 4165 509 4165 657 c 0,92,93
 4165 804 4165 804 4209 927.5 c 128,-1,94
 4253 1051 4253 1051 4333 1140.5 c 128,-1,95
 4413 1230 4413 1230 4525 1279.5 c 128,-1,96
 4637 1329 4637 1329 4772 1329 c 0,97,98
 4908 1329 4908 1329 5019.5 1279.5 c 128,-1,99
 5131 1230 5131 1230 5210.5 1140.5 c 128,-1,100
 5290 1051 5290 1051 5333.5 927.5 c 128,-1,101
 5377 804 5377 804 5377 657 c 0,82,83
5191 657 m 256,102,103
 5191 777 5191 777 5161.5 872.5 c 128,-1,104
 5132 968 5132 968 5077.5 1034.5 c 128,-1,105
 5023 1101 5023 1101 4945.5 1136.5 c 128,-1,106
 4868 1172 4868 1172 4772 1172 c 256,107,108
 4676 1172 4676 1172 4598.5 1136.5 c 128,-1,109
 4521 1101 4521 1101 4466 1034.5 c 128,-1,110
 4411 968 4411 968 4381.5 872.5 c 128,-1,111
 4352 777 4352 777 4352 657 c 256,112,113
 4352 537 4352 537 4381.5 441.5 c 128,-1,114
 4411 346 4411 346 4466 279.5 c 128,-1,115
 4521 213 4521 213 4598.5 178 c 128,-1,116
 4676 143 4676 143 4772 143 c 256,117,118
 4868 143 4868 143 4945.5 178 c 128,-1,119
 5023 213 5023 213 5077.5 279.5 c 128,-1,120
 5132 346 5132 346 5161.5 441.5 c 128,-1,121
 5191 537 5191 537 5191 657 c 256,102,103
4034 1314 m 1,122,-1
 4034 1166 l 1,123,-1
 3473 1166 l 1,124,-1
 3473 711 l 1,125,-1
 3950 711 l 1,126,-1
 3950 563 l 1,127,-1
 3473 563 l 1,128,-1
 3473 0 l 1,129,-1
 3290 0 l 1,130,-1
 3290 1314 l 1,131,-1
 4034 1314 l 1,122,-1
2985 0 m 1,132,-1
 2803 0 l 1,133,-1
 2803 1314 l 1,134,-1
 2985 1314 l 1,135,-1
 2985 0 l 1,132,-1
1592 1308 m 0,136,137
 1605 1303 1605 1303 1619 1283 c 2,138,-1
 2333 300 l 1,139,140
 2331 324 2331 324 2329.5 347.5 c 128,-1,141
 2328 371 2328 371 2328 391 c 2,142,-1
 2328 1314 l 1,143,-1
 2488 1314 l 1,144,-1
 2488 0 l 1,145,-1
 2396 0 l 2,146,147
 2375 0 2375 0 2360 7 c 0,148,149
 2345 15 2345 15 2332 32 c 2,150,-1
 1618 1012 l 1,151,152
 1620 989 1620 989 1621 968 c 128,-1,153
 1622 947 1622 947 1622 928 c 2,154,-1
 1622 0 l 1,155,-1
 1462 0 l 1,156,-1
 1462 1314 l 1,157,-1
 1557 1314 l 1,158,159
 1580 1314 1580 1314 1592 1308 c 0,136,137
657 144 m 256,160,161
 736 144 736 144 798.5 171.5 c 128,-1,162
 861 199 861 199 904 248.5 c 128,-1,163
 947 298 947 298 969.5 366 c 128,-1,164
 992 434 992 434 992 516 c 2,165,-1
 992 1314 l 1,166,-1
 1174 1314 l 1,167,-1
 1174 516 l 2,168,169
 1174 402 1174 402 1138 305 c 128,-1,170
 1102 208 1102 208 1035.5 137 c 128,-1,171
 969 66 969 66 873 25.5 c 128,-1,172
 777 -15 777 -15 657 -15 c 256,173,174
 537 -15 537 -15 441.5 25.5 c 128,-1,175
 346 66 346 66 279 137 c 128,-1,176
 212 208 212 208 176 305 c 128,-1,177
 140 402 140 402 140 516 c 2,178,-1
 140 1314 l 1,179,-1
 322 1314 l 1,180,-1
 322 517 l 2,181,182
 322 435 322 435 344.5 366.5 c 128,-1,183
 367 298 367 298 410 248.5 c 128,-1,184
 453 199 453 199 515.5 171.5 c 128,-1,185
 578 144 578 144 657 144 c 256,160,161
EndSplineSet
Validated: 1
EndChar

StartChar: V
Encoding: 86 86 23
Width: 6573
GlyphClass: 2
Flags: W
LayerCount: 2
Fore
SplineSet
5327 546 m 1,0,-1
 5327 0 l 1,1,-1
 5145 0 l 1,2,-1
 5145 1314 l 1,3,-1
 5505 1314 l 2,4,5
 5625 1314 5625 1314 5712.5 1288.5 c 128,-1,6
 5800 1263 5800 1263 5856.5 1215.5 c 128,-1,7
 5913 1168 5913 1168 5940 1100.5 c 128,-1,8
 5967 1033 5967 1033 5967 949 c 0,9,10
 5967 880 5967 880 5946.5 820 c 128,-1,11
 5926 760 5926 760 5887.5 712 c 128,-1,12
 5849 664 5849 664 5793 629.5 c 128,-1,13
 5737 595 5737 595 5666 577 c 1,14,15
 5683 566 5683 566 5698 552.5 c 0,16,17
 5716.36656767 535.663979635 5716.36656767 535.663979635 5727 520 c 2,18,-1
 6080 0 l 1,19,-1
 5918 0 l 2,20,21
 5869.58760684 5.11590769747e-13 5869.58760684 5.11590769747e-13 5845 37 c 2,22,-1
 5534 505 l 2,23,24
 5519 527 5519 527 5501.5 536.5 c 128,-1,25
 5484 546 5484 546 5449 546 c 2,26,-1
 5327 546 l 1,0,-1
5327 679 m 1,27,-1
 5498 679 l 2,28,29
 5570 679 5570 679 5624.5 697.5 c 128,-1,30
 5679 716 5679 716 5716 750 c 128,-1,31
 5753 784 5753 784 5771.5 831.5 c 128,-1,32
 5790 879 5790 879 5790 936 c 0,33,34
 5790 1171 5790 1171 5505 1171 c 2,35,-1
 5327 1171 l 1,36,-1
 5327 679 l 1,27,-1
4926 657 m 0,37,38
 4926 509 4926 509 4882.5 386 c 128,-1,39
 4839 263 4839 263 4759.5 174 c 128,-1,40
 4680 85 4680 85 4568.5 35.5 c 128,-1,41
 4457 -14 4457 -14 4321 -14 c 0,42,43
 4186 -14 4186 -14 4074 35.5 c 128,-1,44
 3962 85 3962 85 3882 174 c 128,-1,45
 3802 263 3802 263 3758 386 c 128,-1,46
 3714 509 3714 509 3714 657 c 0,47,48
 3714 804 3714 804 3758 927.5 c 128,-1,49
 3802 1051 3802 1051 3882 1140.5 c 128,-1,50
 3962 1230 3962 1230 4074 1279.5 c 128,-1,51
 4186 1329 4186 1329 4321 1329 c 0,52,53
 4457 1329 4457 1329 4568.5 1279.5 c 128,-1,54
 4680 1230 4680 1230 4759.5 1140.5 c 128,-1,55
 4839 1051 4839 1051 4882.5 927.5 c 128,-1,56
 4926 804 4926 804 4926 657 c 0,37,38
4740 657 m 256,57,58
 4740 777 4740 777 4710.5 872.5 c 128,-1,59
 4681 968 4681 968 4626.5 1034.5 c 128,-1,60
 4572 1101 4572 1101 4494.5 1136.5 c 128,-1,61
 4417 1172 4417 1172 4321 1172 c 256,62,63
 4225 1172 4225 1172 4147.5 1136.5 c 128,-1,64
 4070 1101 4070 1101 4015 1034.5 c 128,-1,65
 3960 968 3960 968 3930.5 872.5 c 128,-1,66
 3901 777 3901 777 3901 657 c 256,67,68
 3901 537 3901 537 3930.5 441.5 c 128,-1,69
 3960 346 3960 346 4015 279.5 c 128,-1,70
 4070 213 4070 213 4147.5 178 c 128,-1,71
 4225 143 4225 143 4321 143 c 256,72,73
 4417 143 4417 143 4494.5 178 c 128,-1,74
 4572 213 4572 213 4626.5 279.5 c 128,-1,75
 4681 346 4681 346 4710.5 441.5 c 128,-1,76
 4740 537 4740 537 4740 657 c 256,57,58
3676 1314 m 1,77,-1
 3676 1162 l 1,78,-1
 3293 1162 l 1,79,-1
 3293 0 l 1,80,-1
 3110 0 l 1,81,-1
 3110 1162 l 1,82,-1
 2726 1162 l 1,83,-1
 2726 1314 l 1,84,-1
 3676 1314 l 1,77,-1
2571 274 m 0,85,86
 2585.92307692 274 2585.92307692 274 2597 262 c 2,87,-1
 2669 184 l 1,88,89
 2598 90 2598 90 2494 38 c 128,-1,90
 2390 -14 2390 -14 2245 -14 c 0,91,92
 2117 -14 2117 -14 2013.5 35 c 128,-1,93
 1910 84 1910 84 1836.5 172.5 c 128,-1,94
 1763 261 1763 261 1723.5 384.5 c 128,-1,95
 1684 508 1684 508 1684 657 c 256,96,97
 1684 806 1684 806 1726 929.5 c 128,-1,98
 1768 1053 1768 1053 1844 1142 c 128,-1,99
 1920 1231 1920 1231 2026 1280 c 128,-1,100
 2132 1329 2132 1329 2260 1329 c 0,101,102
 2387 1329 2387 1329 2483.5 1284 c 128,-1,103
 2580 1239 2580 1239 2652 1162 c 1,104,-1
 2592 1078 l 2,105,106
 2585 1068 2585 1068 2577 1063 c 0,107,108
 2568 1057 2568 1057 2554 1057 c 0,109,110
 2537 1057 2537 1057 2516.5 1075 c 128,-1,111
 2496 1093 2496 1093 2463 1114.5 c 128,-1,112
 2430 1136 2430 1136 2381 1154 c 128,-1,113
 2332 1172 2332 1172 2259 1172 c 0,114,115
 2173 1172 2173 1172 2101.5 1137 c 128,-1,116
 2030 1102 2030 1102 1978.5 1035.5 c 128,-1,117
 1927 969 1927 969 1898.5 873.5 c 128,-1,118
 1870 778 1870 778 1870 657 c 0,119,120
 1870 535 1870 535 1900 439 c 128,-1,121
 1930 343 1930 343 1982 277 c 128,-1,122
 2034 211 2034 211 2104.5 176 c 128,-1,123
 2175 141 2175 141 2256 141 c 0,124,125
 2306 141 2306 141 2345.5 148 c 128,-1,126
 2385 155 2385 155 2418.5 169.5 c 128,-1,127
 2452 184 2452 184 2481.5 206.5 c 0,128,129
 2503 223 2503 223 2540 260 c 0,130,131
 2554 274 2554 274 2571 274 c 0,85,86
1511 0 m 1,132,-1
 1329 0 l 1,133,-1
 1329 1314 l 1,134,-1
 1511 1314 l 1,135,-1
 1511 0 l 1,132,-1
6 1314 m 1,136,-1
 153 1314 l 2,137,138
 177 1314 177 1314 192 1302 c 128,-1,139
 207 1290 207 1290 214 1272 c 2,140,-1
 539 351 l 2,141,142
 551 320 551 320 562.5 283.5 c 128,-1,143
 574 247 574 247 583 207 c 1,144,145
 591 247 591 247 601.5 283.5 c 128,-1,146
 612 320 612 320 624 351 c 2,147,-1
 948 1271 l 2,148,149
 954 1288 954 1288 970 1301 c 128,-1,150
 986 1314 986 1314 1009 1314 c 2,151,-1
 1156 1314 l 1,152,-1
 663 0 l 1,153,-1
 499 0 l 1,154,-1
 6 1314 l 1,136,-1
EndSplineSet
Validated: 1
EndChar

StartChar: W
Encoding: 87 87 24
Width: 8024
GlyphClass: 2
Flags: W
LayerCount: 2
Fore
SplineSet
7153 525 m 1,0,-1
 7153 0 l 1,1,-1
 6971 0 l 1,2,-1
 6971 523 l 1,3,-1
 6563 1314 l 1,4,-1
 6723 1314 l 2,5,6
 6746 1314 6746 1314 6760.5 1302.5 c 0,7,8
 6777.84090909 1288.13181818 6777.84090909 1288.13181818 6785 1272 c 2,9,-1
 7010 765 l 2,10,11
 7027 734 7027 734 7040 706.5 c 128,-1,12
 7053 679 7053 679 7063 652 c 1,13,14
 7073 679 7073 679 7085.5 706.5 c 128,-1,15
 7098 734 7098 734 7115 764 c 2,16,-1
 7338 1272 l 2,17,18
 7344 1285 7344 1285 7361 1300.5 c 0,19,20
 7376 1314 7376 1314 7399 1314 c 2,21,-1
 7561 1314 l 1,22,-1
 7153 525 l 1,0,-1
6476 1314 m 1,23,-1
 6476 1166 l 1,24,-1
 5891 1166 l 1,25,-1
 5891 735 l 1,26,-1
 6362 735 l 1,27,-1
 6362 592 l 1,28,-1
 5891 592 l 1,29,-1
 5891 148 l 1,30,-1
 6476 148 l 1,31,-1
 6476 0 l 1,32,-1
 5708 0 l 1,33,-1
 5708 1314 l 1,34,-1
 6476 1314 l 1,23,-1
4834 740 m 1,35,-1
 4886 740 l 2,36,37
 4915 740 4915 740 4934 749 c 0,38,39
 4953.40789266 758.193212313 4953.40789266 758.193212313 4967 778 c 2,40,-1
 5306 1272 l 2,41,42
 5320 1293 5320 1293 5343.5 1304.5 c 0,43,44
 5363 1314 5363 1314 5392 1314 c 2,45,-1
 5548 1314 l 1,46,-1
 5148 750 l 2,47,48
 5118 708 5118 708 5081 689 c 1,49,50
 5132.860718 671.048213001 5132.860718 671.048213001 5164 624 c 2,51,-1
 5577 0 l 1,52,-1
 5417 0 l 2,53,54
 5384 0 5384 0 5368.5 10.5 c 0,55,56
 5348.27583958 24.1395500489 5348.27583958 24.1395500489 5339 38 c 2,57,-1
 4991 558 l 2,58,59
 4975 581 4975 581 4956.5 590.5 c 128,-1,60
 4938 600 4938 600 4901 600 c 2,61,-1
 4834 600 l 1,62,-1
 4834 0 l 1,63,-1
 4652 0 l 1,64,-1
 4652 1314 l 1,65,-1
 4834 1314 l 1,66,-1
 4834 740 l 1,35,-1
4411 1107 m 2,67,68
 4396.17647059 1079 4396.17647059 1079 4370 1079 c 0,69,70
 4355 1079 4355 1079 4334.5 1094.5 c 128,-1,71
 4314 1110 4314 1110 4284.5 1128.5 c 128,-1,72
 4255 1147 4255 1147 4213.5 1162.5 c 128,-1,73
 4172 1178 4172 1178 4114 1178 c 0,74,75
 4059 1178 4059 1178 4017.5 1162.5 c 128,-1,76
 3976 1147 3976 1147 3948.5 1119.5 c 128,-1,77
 3921 1092 3921 1092 3907 1055.5 c 128,-1,78
 3893 1019 3893 1019 3893 977 c 0,79,80
 3893 922 3893 922 3918.5 886 c 128,-1,81
 3944 850 3944 850 3985.5 824.5 c 128,-1,82
 4027 799 4027 799 4080 780 c 128,-1,83
 4133 761 4133 761 4188 741 c 128,-1,84
 4243 721 4243 721 4296 695.5 c 128,-1,85
 4349 670 4349 670 4390.5 631.5 c 128,-1,86
 4432 593 4432 593 4457.5 537 c 128,-1,87
 4483 481 4483 481 4483 400 c 0,88,89
 4483 313 4483 313 4455 237.5 c 128,-1,90
 4427 162 4427 162 4373.5 106 c 128,-1,91
 4320 50 4320 50 4242 18 c 128,-1,92
 4164 -14 4164 -14 4064 -14 c 0,93,94
 3943 -14 3943 -14 3841.5 32.5 c 128,-1,95
 3740 79 3740 79 3669 158 c 1,96,-1
 3722 244 l 2,97,98
 3729 255 3729 255 3739.5 261.5 c 128,-1,99
 3750 268 3750 268 3764 268 c 0,100,101
 3783 268 3783 268 3806.5 247.5 c 128,-1,102
 3830 227 3830 227 3865 202.5 c 128,-1,103
 3900 178 3900 178 3949.5 157.5 c 128,-1,104
 3999 137 3999 137 4068 137 c 0,105,106
 4126 137 4126 137 4171 154 c 128,-1,107
 4216 171 4216 171 4247.5 202 c 128,-1,108
 4279 233 4279 233 4295.5 276.5 c 128,-1,109
 4312 320 4312 320 4312 373 c 0,110,111
 4312 432 4312 432 4286.5 470 c 128,-1,112
 4261 508 4261 508 4219.5 533.5 c 128,-1,113
 4178 559 4178 559 4125 576.5 c 128,-1,114
 4072 594 4072 594 4017 613 c 128,-1,115
 3962 632 3962 632 3909 656.5 c 128,-1,116
 3856 681 3856 681 3814.5 721 c 128,-1,117
 3773 761 3773 761 3747.5 820 c 128,-1,118
 3722 879 3722 879 3722 967 c 0,119,120
 3722 1036 3722 1036 3748 1101.5 c 128,-1,121
 3774 1167 3774 1167 3823.5 1217.5 c 128,-1,122
 3873 1268 3873 1268 3945.5 1298.5 c 128,-1,123
 4018 1329 4018 1329 4112 1329 c 0,124,125
 4217 1329 4217 1329 4304.5 1294 c 128,-1,126
 4392 1259 4392 1259 4456 1192 c 1,127,-1
 4411 1107 l 2,67,68
3447 0 m 1,128,-1
 3265 0 l 1,129,-1
 3265 1314 l 1,130,-1
 3447 1314 l 1,131,-1
 3447 0 l 1,128,-1
2958 0 m 1,132,-1
 2775 0 l 1,133,-1
 2775 596 l 1,134,-1
 2145 596 l 1,135,-1
 2145 0 l 1,136,-1
 1962 0 l 1,137,-1
 1962 1314 l 1,138,-1
 2145 1314 l 1,139,-1
 2145 729 l 1,140,-1
 2775 729 l 1,141,-1
 2775 1314 l 1,142,-1
 2958 1314 l 1,143,-1
 2958 0 l 1,132,-1
12 1314 m 1,144,-1
 165 1314 l 2,145,146
 188 1314 188 1314 204.5 1302.5 c 128,-1,147
 221 1291 221 1291 226 1272 c 2,148,-1
 481 365 l 2,149,150
 495 317 495 317 507 253 c 1,151,152
 513 284 513 284 520 312.5 c 128,-1,153
 527 341 527 341 535 366 c 2,154,-1
 828 1271 l 2,155,156
 833 1288 833 1288 850 1301 c 128,-1,157
 867 1314 867 1314 890 1314 c 2,158,-1
 943 1314 l 2,159,160
 967 1314 967 1314 982.5 1302.5 c 128,-1,161
 998 1291 998 1291 1004 1272 c 2,162,-1
 1297 365 l 2,163,164
 1305 341 1305 341 1312 313.5 c 128,-1,165
 1319 286 1319 286 1325 256 c 1,166,167
 1331 286 1331 286 1337 314 c 128,-1,168
 1343 342 1343 342 1350 365 c 2,169,-1
 1604 1271 l 2,170,171
 1609 1288 1609 1288 1626.5 1301 c 128,-1,172
 1644 1314 1644 1314 1667 1314 c 2,173,-1
 1810 1314 l 1,174,-1
 1411 0 l 1,175,-1
 1246 0 l 1,176,-1
 930 996 l 2,177,178
 925 1010 925 1010 920.5 1026.5 c 128,-1,179
 916 1043 916 1043 911 1062 c 1,180,181
 907 1043 907 1043 902.5 1026.5 c 128,-1,182
 898 1010 898 1010 893 996 c 2,183,-1
 575 0 l 1,184,-1
 411 0 l 1,185,-1
 12 1314 l 1,144,-1
EndSplineSet
Validated: 1
EndChar

StartChar: X
Encoding: 88 88 25
Width: 4671
GlyphClass: 2
Flags: W
LayerCount: 2
Fore
SplineSet
2183 0 m 1025,0,-1
3800 525 m 1,1,-1
 3800 0 l 1,2,-1
 3618 0 l 1,3,-1
 3618 523 l 1,4,-1
 3210 1314 l 1,5,-1
 3370 1314 l 2,6,7
 3393 1314 3393 1314 3407.5 1302.5 c 0,8,9
 3424.84090909 1288.13181818 3424.84090909 1288.13181818 3432 1272 c 2,10,-1
 3657 765 l 2,11,12
 3674 734 3674 734 3687 706.5 c 128,-1,13
 3700 679 3700 679 3710 652 c 1,14,15
 3720 679 3720 679 3732.5 706.5 c 128,-1,16
 3745 734 3745 734 3762 764 c 2,17,-1
 3985 1272 l 2,18,19
 3991 1285 3991 1285 4008 1300.5 c 0,20,21
 4023 1314 4023 1314 4046 1314 c 2,22,-1
 4208 1314 l 1,23,-1
 3800 525 l 1,1,-1
3353 0 m 1,24,-1
 3212 0 l 2,25,26
 3188 0 3188 0 3173.5 12 c 0,27,28
 3156.52934723 26.3993417444 3156.52934723 26.3993417444 3151 42 c 2,29,-1
 3039 358 l 1,30,-1
 2497 358 l 1,31,-1
 2386 43 l 2,32,33
 2380 26 2380 26 2363.5 13 c 128,-1,34
 2347 0 2347 0 2324 0 c 2,35,-1
 2183 0 l 1,36,-1
 2676 1314 l 1,37,-1
 2861 1314 l 1,38,-1
 3353 0 l 1,24,-1
2543 488 m 1,39,-1
 2993 488 l 1,40,-1
 2807 1017 l 2,41,42
 2797 1041 2797 1041 2787 1073 c 128,-1,43
 2777 1105 2777 1105 2768 1142 c 1,44,45
 2758 1104 2758 1104 2748 1072 c 0,46,47
 2735 1034 2735 1034 2729 1016 c 2,48,-1
 2543 488 l 1,39,-1
1392 546 m 1,49,-1
 1392 0 l 1,50,-1
 1210 0 l 1,51,-1
 1210 1314 l 1,52,-1
 1570 1314 l 2,53,54
 1690 1314 1690 1314 1777.5 1288.5 c 128,-1,55
 1865 1263 1865 1263 1921.5 1215.5 c 128,-1,56
 1978 1168 1978 1168 2005 1100.5 c 128,-1,57
 2032 1033 2032 1033 2032 949 c 0,58,59
 2032 880 2032 880 2011.5 820 c 128,-1,60
 1991 760 1991 760 1952.5 712 c 128,-1,61
 1914 664 1914 664 1858 629.5 c 128,-1,62
 1802 595 1802 595 1731 577 c 1,63,64
 1748 566 1748 566 1763 552.5 c 0,65,66
 1781.36656767 535.663979635 1781.36656767 535.663979635 1792 520 c 2,67,-1
 2145 0 l 1,68,-1
 1983 0 l 2,69,70
 1934.58760684 1.70530256582e-13 1934.58760684 1.70530256582e-13 1910 37 c 2,71,-1
 1599 505 l 2,72,73
 1584 527 1584 527 1566.5 536.5 c 128,-1,74
 1549 546 1549 546 1514 546 c 2,75,-1
 1392 546 l 1,49,-1
1392 679 m 1,76,-1
 1563 679 l 2,77,78
 1635 679 1635 679 1689.5 697.5 c 128,-1,79
 1744 716 1744 716 1781 750 c 128,-1,80
 1818 784 1818 784 1836.5 831.5 c 128,-1,81
 1855 879 1855 879 1855 936 c 0,82,83
 1855 1171 1855 1171 1570 1171 c 2,84,-1
 1392 1171 l 1,85,-1
 1392 679 l 1,76,-1
407 674 m 1,86,-1
 27 1314 l 1,87,-1
 208 1314 l 2,88,89
 228 1314 228 1314 237 1307 c 128,-1,90
 246 1300 246 1300 254 1289 c 2,91,-1
 543 777 l 1,92,93
 550 794 550 794 559 807 c 2,94,-1
 825 1286 l 2,95,96
 833 1299 833 1299 842.5 1306.5 c 128,-1,97
 852 1314 852 1314 866 1314 c 2,98,-1
 1040 1314 l 1,99,-1
 658 684 l 1,100,-1
 1052 0 l 1,101,-1
 871 0 l 2,102,103
 851 0 851 0 840 11 c 128,-1,104
 829 22 829 22 821 34 c 2,105,-1
 524 570 l 1,106,107
 519 555 519 555 512 545 c 2,108,-1
 228 34 l 2,109,110
 220 21 220 21 209 10.5 c 128,-1,111
 198 0 198 0 181 0 c 2,112,-1
 11 0 l 1,113,-1
 407 674 l 1,86,-1
EndSplineSet
Validated: 1
EndChar

StartChar: Y
Encoding: 89 89 26
Width: 6880
GlyphClass: 2
Flags: W
LayerCount: 2
Fore
SplineSet
6330 1314 m 1,0,-1
 6330 1166 l 1,1,-1
 5745 1166 l 1,2,-1
 5745 735 l 1,3,-1
 6216 735 l 1,4,-1
 6216 592 l 1,5,-1
 5745 592 l 1,6,-1
 5745 148 l 1,7,-1
 6330 148 l 1,8,-1
 6330 0 l 1,9,-1
 5562 0 l 1,10,-1
 5562 1314 l 1,11,-1
 6330 1314 l 1,0,-1
5330 1314 m 1,12,-1
 5330 1166 l 1,13,-1
 4745 1166 l 1,14,-1
 4745 735 l 1,15,-1
 5216 735 l 1,16,-1
 5216 592 l 1,17,-1
 4745 592 l 1,18,-1
 4745 148 l 1,19,-1
 5330 148 l 1,20,-1
 5330 0 l 1,21,-1
 4562 0 l 1,22,-1
 4562 1314 l 1,23,-1
 5330 1314 l 1,12,-1
3659 740 m 1,24,-1
 3711 740 l 2,25,26
 3740 740 3740 740 3759 749 c 128,-1,27
 3778 758 3778 758 3792 778 c 2,28,-1
 4131 1272 l 2,29,30
 4145 1293 4145 1293 4168 1304 c 0,31,32
 4188 1314 4188 1314 4217 1314 c 2,33,-1
 4373 1314 l 1,34,-1
 3973 750 l 2,35,36
 3943 708 3943 708 3906 689 c 1,37,38
 3958 671 3958 671 3989 624 c 2,39,-1
 4402 0 l 1,40,-1
 4242 0 l 2,41,42
 4209 0 4209 0 4194 10 c 0,43,44
 4173 24 4173 24 4164 38 c 2,45,-1
 3816 558 l 2,46,47
 3800 581 3800 581 3781.5 590.5 c 128,-1,48
 3763 600 3763 600 3726 600 c 2,49,-1
 3659 600 l 1,50,-1
 3659 0 l 1,51,-1
 3477 0 l 1,52,-1
 3477 1314 l 1,53,-1
 3659 1314 l 1,54,-1
 3659 740 l 1,24,-1
2309 1308 m 0,55,56
 2322 1303 2322 1303 2336 1283 c 2,57,-1
 3050 300 l 1,58,59
 3048 324 3048 324 3046.5 347.5 c 128,-1,60
 3045 371 3045 371 3045 391 c 2,61,-1
 3045 1314 l 1,62,-1
 3205 1314 l 1,63,-1
 3205 0 l 1,64,-1
 3113 0 l 2,65,66
 3092 0 3092 0 3078 7 c 0,67,68
 3060 16 3060 16 3049 32 c 2,69,-1
 2335 1012 l 1,70,71
 2337 989 2337 989 2338 968 c 128,-1,72
 2339 947 2339 947 2339 928 c 2,73,-1
 2339 0 l 1,74,-1
 2179 0 l 1,75,-1
 2179 1314 l 1,76,-1
 2274 1314 l 1,77,78
 2297 1314 2297 1314 2309 1308 c 0,55,56
2024 0 m 1,79,-1
 1883 0 l 2,80,81
 1859 0 1859 0 1844 12 c 0,82,83
 1828 26 1828 26 1822 42 c 2,84,-1
 1710 358 l 1,85,-1
 1168 358 l 1,86,-1
 1057 43 l 2,87,88
 1051 26 1051 26 1034.5 13 c 128,-1,89
 1018 0 1018 0 995 0 c 2,90,-1
 854 0 l 1,91,-1
 1347 1314 l 1,92,-1
 1532 1314 l 1,93,-1
 2024 0 l 1,79,-1
1214 488 m 1,94,-1
 1664 488 l 1,95,-1
 1478 1017 l 2,96,97
 1468 1041 1468 1041 1458 1073 c 128,-1,98
 1448 1105 1448 1105 1439 1142 c 1,99,100
 1429 1104 1429 1104 1419 1072 c 0,101,102
 1406 1034 1406 1034 1400 1016 c 2,103,-1
 1214 488 l 1,94,-1
590 525 m 1,104,-1
 590 0 l 1,105,-1
 408 0 l 1,106,-1
 408 523 l 1,107,-1
 0 1314 l 1,108,-1
 160 1314 l 2,109,110
 183 1314 183 1314 197.5 1302.5 c 128,-1,111
 212 1291 212 1291 222 1272 c 2,112,-1
 447 765 l 2,113,114
 464 734 464 734 477 706.5 c 128,-1,115
 490 679 490 679 500 652 c 1,116,117
 510 679 510 679 522.5 706.5 c 128,-1,118
 535 734 535 734 552 764 c 2,119,-1
 775 1272 l 2,120,121
 783 1287 783 1287 798 1300.5 c 128,-1,122
 813 1314 813 1314 836 1314 c 2,123,-1
 998 1314 l 1,124,-1
 590 525 l 1,104,-1
EndSplineSet
Validated: 1
EndChar

StartChar: Z
Encoding: 90 90 27
Width: 4911
GlyphClass: 2
Flags: W
LayerCount: 2
Fore
SplineSet
3747 144 m 256,0,1
 3826 144 3826 144 3888.5 171.5 c 128,-1,2
 3951 199 3951 199 3994 248.5 c 128,-1,3
 4037 298 4037 298 4059.5 366 c 128,-1,4
 4082 434 4082 434 4082 516 c 2,5,-1
 4082 1314 l 1,6,-1
 4264 1314 l 1,7,-1
 4264 516 l 2,8,9
 4264 402 4264 402 4228 305 c 128,-1,10
 4192 208 4192 208 4125.5 137 c 128,-1,11
 4059 66 4059 66 3963 25.5 c 128,-1,12
 3867 -15 3867 -15 3747 -15 c 256,13,14
 3627 -15 3627 -15 3531.5 25.5 c 128,-1,15
 3436 66 3436 66 3369 137 c 128,-1,16
 3302 208 3302 208 3266 305 c 128,-1,17
 3230 402 3230 402 3230 516 c 2,18,-1
 3230 1314 l 1,19,-1
 3412 1314 l 1,20,-1
 3412 517 l 2,21,22
 3412 435 3412 435 3434.5 366.5 c 128,-1,23
 3457 298 3457 298 3500 248.5 c 128,-1,24
 3543 199 3543 199 3605.5 171.5 c 128,-1,25
 3668 144 3668 144 3747 144 c 256,0,1
2593 153 m 1,26,-1
 3100 153 l 1,27,-1
 3100 0 l 1,28,-1
 2411 0 l 1,29,-1
 2411 1314 l 1,30,-1
 2593 1314 l 1,31,-1
 2593 153 l 1,26,-1
1616 144 m 256,32,33
 1695 144 1695 144 1757.5 171.5 c 128,-1,34
 1820 199 1820 199 1863 248.5 c 128,-1,35
 1906 298 1906 298 1928.5 366 c 128,-1,36
 1951 434 1951 434 1951 516 c 2,37,-1
 1951 1314 l 1,38,-1
 2133 1314 l 1,39,-1
 2133 516 l 2,40,41
 2133 402 2133 402 2097 305 c 128,-1,42
 2061 208 2061 208 1994.5 137 c 128,-1,43
 1928 66 1928 66 1832 25.5 c 128,-1,44
 1736 -15 1736 -15 1616 -15 c 256,45,46
 1496 -15 1496 -15 1400.5 25.5 c 128,-1,47
 1305 66 1305 66 1238 137 c 128,-1,48
 1171 208 1171 208 1135 305 c 128,-1,49
 1099 402 1099 402 1099 516 c 2,50,-1
 1099 1314 l 1,51,-1
 1281 1314 l 1,52,-1
 1281 517 l 2,53,54
 1281 435 1281 435 1303.5 366.5 c 128,-1,55
 1326 298 1326 298 1369 248.5 c 128,-1,56
 1412 199 1412 199 1474.5 171.5 c 128,-1,57
 1537 144 1537 144 1616 144 c 256,32,33
910 1314 m 1,58,-1
 910 1247 l 2,59,60
 910 1215 910 1215 891 1187 c 2,61,-1
 276 148 l 1,62,-1
 897 148 l 1,63,-1
 897 0 l 1,64,-1
 56 0 l 1,65,-1
 56 71 l 2,66,67
 56 86 56 86 61 99 c 128,-1,68
 66 112 66 112 74 124 c 2,69,-1
 688 1166 l 1,70,-1
 90 1166 l 1,71,-1
 90 1314 l 1,72,-1
 910 1314 l 1,58,-1
EndSplineSet
Validated: 1
EndChar

StartChar: a
Encoding: 97 97 28
Width: 4520
GlyphClass: 2
Flags: W
LayerCount: 2
Fore
SplineSet
2928 1314 m 1,0,-1
 2928 1166 l 1,1,-1
 2367 1166 l 1,2,-1
 2367 711 l 1,3,-1
 2844 711 l 1,4,-1
 2844 563 l 1,5,-1
 2367 563 l 1,6,-1
 2367 0 l 1,7,-1
 2184 0 l 1,8,-1
 2184 1314 l 1,9,-1
 2928 1314 l 1,0,-1
4050 0 m 1,10,-1
 3909 0 l 2,11,12
 3885 0 3885 0 3870 12 c 0,13,14
 3854 26 3854 26 3848 42 c 2,15,-1
 3736 358 l 1,16,-1
 3194 358 l 1,17,-1
 3083 43 l 2,18,19
 3077 26 3077 26 3060.5 13 c 128,-1,20
 3044 0 3044 0 3021 0 c 2,21,-1
 2880 0 l 1,22,-1
 3373 1314 l 1,23,-1
 3558 1314 l 1,24,-1
 4050 0 l 1,10,-1
3240 488 m 1,25,-1
 3690 488 l 1,26,-1
 3504 1017 l 2,27,28
 3494 1041 3494 1041 3484 1073 c 128,-1,29
 3474 1105 3474 1105 3465 1142 c 1,30,31
 3455 1104 3455 1104 3445 1072 c 0,32,33
 3432 1034 3432 1034 3426 1016 c 2,34,-1
 3240 488 l 1,25,-1
1505 153 m 1,35,-1
 2012 153 l 1,36,-1
 2012 0 l 1,37,-1
 1323 0 l 1,38,-1
 1323 1314 l 1,39,-1
 1505 1314 l 1,40,-1
 1505 153 l 1,35,-1
1178 0 m 1,41,-1
 1037 0 l 2,42,43
 1013 0 1013 0 998.5 12 c 128,-1,44
 984 24 984 24 976 42 c 2,45,-1
 864 358 l 1,46,-1
 322 358 l 1,47,-1
 211 43 l 2,48,49
 205 26 205 26 188.5 13 c 128,-1,50
 172 0 172 0 149 0 c 2,51,-1
 8 0 l 1,52,-1
 501 1314 l 1,53,-1
 686 1314 l 1,54,-1
 1178 0 l 1,41,-1
368 488 m 1,55,-1
 818 488 l 1,56,-1
 632 1017 l 2,57,58
 622 1041 622 1041 612 1073 c 128,-1,59
 602 1105 602 1105 593 1142 c 1,60,61
 583 1104 583 1104 573 1072 c 128,-1,62
 563 1040 563 1040 554 1016 c 2,63,-1
 368 488 l 1,55,-1
EndSplineSet
Validated: 1
EndChar

StartChar: b
Encoding: 98 98 29
Width: 6276
GlyphClass: 2
Flags: W
LayerCount: 2
Fore
SplineSet
5741 671 m 0,0,1
 5741 523 5741 523 5697.5 400 c 128,-1,2
 5654 277 5654 277 5574.5 188 c 128,-1,3
 5495 99 5495 99 5383.5 49.5 c 128,-1,4
 5272 0 5272 0 5136 0 c 0,5,6
 5001 0 5001 0 4889 49.5 c 128,-1,7
 4777 99 4777 99 4697 188 c 128,-1,8
 4617 277 4617 277 4573 400 c 128,-1,9
 4529 523 4529 523 4529 671 c 0,10,11
 4529 818 4529 818 4573 941.5 c 128,-1,12
 4617 1065 4617 1065 4697 1154.5 c 128,-1,13
 4777 1244 4777 1244 4889 1293.5 c 128,-1,14
 5001 1343 5001 1343 5136 1343 c 0,15,16
 5272 1343 5272 1343 5383.5 1293.5 c 128,-1,17
 5495 1244 5495 1244 5574.5 1154.5 c 128,-1,18
 5654 1065 5654 1065 5697.5 941.5 c 128,-1,19
 5741 818 5741 818 5741 671 c 0,0,1
5555 671 m 256,20,21
 5555 791 5555 791 5525.5 886.5 c 128,-1,22
 5496 982 5496 982 5441.5 1048.5 c 128,-1,23
 5387 1115 5387 1115 5309.5 1150.5 c 128,-1,24
 5232 1186 5232 1186 5136 1186 c 256,25,26
 5040 1186 5040 1186 4962.5 1150.5 c 128,-1,27
 4885 1115 4885 1115 4830 1048.5 c 128,-1,28
 4775 982 4775 982 4745.5 886.5 c 128,-1,29
 4716 791 4716 791 4716 671 c 256,30,31
 4716 551 4716 551 4745.5 455.5 c 128,-1,32
 4775 360 4775 360 4830 293.5 c 128,-1,33
 4885 227 4885 227 4962.5 192 c 128,-1,34
 5040 157 5040 157 5136 157 c 256,35,36
 5232 157 5232 157 5309.5 192 c 128,-1,37
 5387 227 5387 227 5441.5 293.5 c 128,-1,38
 5496 360 5496 360 5525.5 455.5 c 128,-1,39
 5555 551 5555 551 5555 671 c 256,20,21
3328 1314 m 1,40,-1
 3475 1314 l 2,41,42
 3499 1314 3499 1314 3514 1302 c 0,43,44
 3530 1289 3530 1289 3536 1272 c 2,45,-1
 3861 351 l 2,46,47
 3883 287 3883 287 3884 284 c 0,48,49
 3896 247 3896 247 3905 207 c 1,50,51
 3913 247 3913 247 3924 284 c 0,52,53
 3928 300 3928 300 3946 351 c 2,54,-1
 4270 1271 l 2,55,56
 4276 1288 4276 1288 4292 1301 c 128,-1,57
 4308 1314 4308 1314 4331 1314 c 2,58,-1
 4478 1314 l 1,59,-1
 3985 0 l 1,60,-1
 3821 0 l 1,61,-1
 3328 1314 l 1,40,-1
3404 0 m 1,62,-1
 3263 0 l 2,63,64
 3239 0 3239 0 3224 12 c 0,65,66
 3208 26 3208 26 3202 42 c 2,67,-1
 3090 358 l 1,68,-1
 2548 358 l 1,69,-1
 2437 43 l 2,70,71
 2431 26 2431 26 2414.5 13 c 128,-1,72
 2398 0 2398 0 2375 0 c 2,73,-1
 2234 0 l 1,74,-1
 2727 1314 l 1,75,-1
 2912 1314 l 1,76,-1
 3404 0 l 1,62,-1
2594 488 m 1,77,-1
 3044 488 l 1,78,-1
 2858 1017 l 2,79,80
 2848 1041 2848 1041 2838 1073 c 128,-1,81
 2828 1105 2828 1105 2819 1142 c 1,82,83
 2809 1104 2809 1104 2799 1072 c 0,84,85
 2786 1034 2786 1034 2780 1016 c 2,86,-1
 2594 488 l 1,77,-1
1443 546 m 1,87,-1
 1443 0 l 1,88,-1
 1261 0 l 1,89,-1
 1261 1314 l 1,90,-1
 1621 1314 l 2,91,92
 1741 1314 1741 1314 1828.5 1288.5 c 128,-1,93
 1916 1263 1916 1263 1972.5 1215.5 c 128,-1,94
 2029 1168 2029 1168 2056 1100.5 c 128,-1,95
 2083 1033 2083 1033 2083 949 c 0,96,97
 2083 880 2083 880 2062.5 820 c 128,-1,98
 2042 760 2042 760 2003.5 712 c 128,-1,99
 1965 664 1965 664 1909 629.5 c 128,-1,100
 1853 595 1853 595 1782 577 c 1,101,102
 1799 566 1799 566 1814 552 c 0,103,104
 1832 536 1832 536 1843 520 c 2,105,-1
 2196 0 l 1,106,-1
 2034 0 l 2,107,108
 1986 0 1986 0 1961 37 c 2,109,-1
 1650 505 l 2,110,111
 1635 527 1635 527 1617.5 536.5 c 128,-1,112
 1600 546 1600 546 1565 546 c 2,113,-1
 1443 546 l 1,87,-1
1443 679 m 1,114,-1
 1614 679 l 2,115,116
 1686 679 1686 679 1740.5 697.5 c 128,-1,117
 1795 716 1795 716 1832 750 c 128,-1,118
 1869 784 1869 784 1887.5 831.5 c 128,-1,119
 1906 879 1906 879 1906 936 c 0,120,121
 1906 1171 1906 1171 1621 1171 c 2,122,-1
 1443 1171 l 1,123,-1
 1443 679 l 1,114,-1
144 0 m 1,124,-1
 144 1314 l 1,125,-1
 545 1314 l 2,126,127
 661 1314 661 1314 744.5 1290.5 c 128,-1,128
 828 1267 828 1267 881.5 1222.5 c 128,-1,129
 935 1178 935 1178 960 1114.5 c 128,-1,130
 985 1051 985 1051 985 971 c 0,131,132
 985 923 985 923 970.5 878 c 128,-1,133
 956 833 956 833 927 795 c 128,-1,134
 898 757 898 757 854 726 c 128,-1,135
 810 695 810 695 750 676 c 1,136,137
 887 649 887 649 956.5 573.5 c 128,-1,138
 1026 498 1026 498 1026 375 c 0,139,140
 1026 291 1026 291 997 222 c 128,-1,141
 968 153 968 153 912 103.5 c 128,-1,142
 856 54 856 54 774.5 27 c 128,-1,143
 693 0 693 0 588 0 c 2,144,-1
 144 0 l 1,124,-1
326 598 m 1,145,-1
 326 144 l 1,146,-1
 585 144 l 2,147,148
 654 144 654 144 703.5 161.5 c 128,-1,149
 753 179 753 179 784.5 210 c 128,-1,150
 816 241 816 241 830.5 284.5 c 128,-1,151
 845 328 845 328 845 379 c 0,152,153
 845 480 845 480 781.5 539 c 128,-1,154
 718 598 718 598 585 598 c 2,155,-1
 326 598 l 1,145,-1
326 726 m 1,156,-1
 538 726 l 2,157,158
 605 726 605 726 655 742.5 c 128,-1,159
 705 759 705 759 738 788 c 128,-1,160
 771 817 771 817 787.5 858 c 128,-1,161
 804 899 804 899 804 949 c 0,162,163
 804 1064 804 1064 741.5 1117.5 c 128,-1,164
 679 1171 679 1171 545 1171 c 2,165,-1
 326 1171 l 1,166,-1
 326 726 l 1,156,-1
EndSplineSet
Validated: 1
EndChar

StartChar: c
Encoding: 99 99 30
Width: 7505
GlyphClass: 2
Flags: W
LayerCount: 2
Fore
SplineSet
6955 1314 m 1,0,-1
 6955 1166 l 1,1,-1
 6370 1166 l 1,2,-1
 6370 735 l 1,3,-1
 6841 735 l 1,4,-1
 6841 592 l 1,5,-1
 6370 592 l 1,6,-1
 6370 148 l 1,7,-1
 6955 148 l 1,8,-1
 6955 0 l 1,9,-1
 6187 0 l 1,10,-1
 6187 1314 l 1,11,-1
 6955 1314 l 1,0,-1
5875 0 m 1,12,-1
 5693 0 l 1,13,-1
 5693 1314 l 1,14,-1
 5875 1314 l 1,15,-1
 5875 0 l 1,12,-1
4985 153 m 1,16,-1
 5492 153 l 1,17,-1
 5492 0 l 1,18,-1
 4803 0 l 1,19,-1
 4803 1314 l 1,20,-1
 4985 1314 l 1,21,-1
 4985 153 l 1,16,-1
3882 546 m 1,22,-1
 3882 0 l 1,23,-1
 3700 0 l 1,24,-1
 3700 1314 l 1,25,-1
 4060 1314 l 2,26,27
 4180 1314 4180 1314 4267.5 1288.5 c 128,-1,28
 4355 1263 4355 1263 4411.5 1215.5 c 128,-1,29
 4468 1168 4468 1168 4495 1100.5 c 128,-1,30
 4522 1033 4522 1033 4522 949 c 0,31,32
 4522 880 4522 880 4501.5 820 c 128,-1,33
 4481 760 4481 760 4442.5 712 c 128,-1,34
 4404 664 4404 664 4348 629.5 c 128,-1,35
 4292 595 4292 595 4221 577 c 1,36,37
 4238 566 4238 566 4253 552 c 0,38,39
 4271 536 4271 536 4282 520 c 2,40,-1
 4635 0 l 1,41,-1
 4473 0 l 2,42,43
 4425 -0 4425 -0 4400 37 c 2,44,-1
 4089 505 l 2,45,46
 4075 527 4075 527 4056 536 c 0,47,48
 4039 546 4039 546 4004 546 c 2,49,-1
 3882 546 l 1,22,-1
3882 679 m 1,50,-1
 4053 679 l 2,51,52
 4125 679 4125 679 4179.5 697.5 c 128,-1,53
 4234 716 4234 716 4271 750 c 128,-1,54
 4308 784 4308 784 4326.5 831.5 c 128,-1,55
 4345 879 4345 879 4345 936 c 0,56,57
 4345 1171 4345 1171 4060 1171 c 2,58,-1
 3882 1171 l 1,59,-1
 3882 679 l 1,50,-1
3546 0 m 1,60,-1
 3405 0 l 2,61,62
 3381 0 3381 0 3366 12 c 0,63,64
 3350 26 3350 26 3344 42 c 2,65,-1
 3232 358 l 1,66,-1
 2690 358 l 1,67,-1
 2579 43 l 2,68,69
 2573 26 2573 26 2556.5 13 c 128,-1,70
 2540 0 2540 0 2517 0 c 2,71,-1
 2376 0 l 1,72,-1
 2869 1314 l 1,73,-1
 3054 1314 l 1,74,-1
 3546 0 l 1,60,-1
2736 488 m 1,75,-1
 3186 488 l 1,76,-1
 3000 1017 l 2,77,78
 2990 1041 2990 1041 2980 1073 c 128,-1,79
 2970 1105 2970 1105 2961 1142 c 1,80,81
 2951 1104 2951 1104 2941 1072 c 0,82,83
 2928 1034 2928 1034 2922 1016 c 2,84,-1
 2736 488 l 1,75,-1
2228 0 m 1,85,-1
 2045 0 l 1,86,-1
 2045 596 l 1,87,-1
 1415 596 l 1,88,-1
 1415 0 l 1,89,-1
 1232 0 l 1,90,-1
 1232 1314 l 1,91,-1
 1415 1314 l 1,92,-1
 1415 729 l 1,93,-1
 2045 729 l 1,94,-1
 2045 1314 l 1,95,-1
 2228 1314 l 1,96,-1
 2228 0 l 1,85,-1
954 274 m 0,97,98
 968 274 968 274 980 262 c 2,99,-1
 1052 184 l 1,100,101
 981 90 981 90 877 38 c 128,-1,102
 773 -14 773 -14 628 -14 c 0,103,104
 500 -14 500 -14 396.5 35 c 128,-1,105
 293 84 293 84 219.5 172.5 c 128,-1,106
 146 261 146 261 106.5 384.5 c 128,-1,107
 67 508 67 508 67 657 c 256,108,109
 67 806 67 806 109 929.5 c 128,-1,110
 151 1053 151 1053 227 1142 c 128,-1,111
 303 1231 303 1231 409 1280 c 128,-1,112
 515 1329 515 1329 643 1329 c 0,113,114
 770 1329 770 1329 866.5 1284 c 128,-1,115
 963 1239 963 1239 1035 1162 c 1,116,-1
 975 1078 l 2,117,118
 969 1069 969 1069 960 1063 c 128,-1,119
 951 1057 951 1057 937 1057 c 0,120,121
 920 1057 920 1057 899.5 1075 c 128,-1,122
 879 1093 879 1093 846 1114.5 c 128,-1,123
 813 1136 813 1136 764 1154 c 128,-1,124
 715 1172 715 1172 642 1172 c 0,125,126
 556 1172 556 1172 484.5 1137 c 128,-1,127
 413 1102 413 1102 361.5 1035.5 c 128,-1,128
 310 969 310 969 281.5 873.5 c 128,-1,129
 253 778 253 778 253 657 c 0,130,131
 253 535 253 535 283 439 c 128,-1,132
 313 343 313 343 365 277 c 128,-1,133
 417 211 417 211 487.5 176 c 128,-1,134
 558 141 558 141 639 141 c 0,135,136
 689 141 689 141 728.5 148 c 128,-1,137
 768 155 768 155 801.5 169.5 c 128,-1,138
 835 184 835 184 864.5 206.5 c 128,-1,139
 894 229 894 229 923 260 c 0,140,141
 939 274 939 274 954 274 c 0,97,98
EndSplineSet
Validated: 1
EndChar

StartChar: d
Encoding: 100 100 31
Width: 5456
GlyphClass: 2
Flags: W
LayerCount: 2
Fore
SplineSet
4986 0 m 1,0,-1
 4845 0 l 2,1,2
 4821 0 4821 0 4806 12 c 0,3,4
 4790 26 4790 26 4784 42 c 2,5,-1
 4672 358 l 1,6,-1
 4130 358 l 1,7,-1
 4019 43 l 2,8,9
 4013 26 4013 26 3996.5 13 c 128,-1,10
 3980 0 3980 0 3957 0 c 2,11,-1
 3816 0 l 1,12,-1
 4309 1314 l 1,13,-1
 4494 1314 l 1,14,-1
 4986 0 l 1,0,-1
4176 488 m 1,15,-1
 4626 488 l 1,16,-1
 4440 1017 l 2,17,18
 4430 1041 4430 1041 4420 1073 c 128,-1,19
 4410 1105 4410 1105 4401 1142 c 1,20,21
 4391 1104 4391 1104 4381 1072 c 0,22,23
 4368 1034 4368 1034 4362 1016 c 2,24,-1
 4176 488 l 1,15,-1
3944 1314 m 1,25,-1
 3944 1162 l 1,26,-1
 3561 1162 l 1,27,-1
 3561 0 l 1,28,-1
 3378 0 l 1,29,-1
 3378 1162 l 1,30,-1
 2994 1162 l 1,31,-1
 2994 1314 l 1,32,-1
 3944 1314 l 1,25,-1
2579 153 m 1,33,-1
 3086 153 l 1,34,-1
 3086 0 l 1,35,-1
 2397 0 l 1,36,-1
 2397 1314 l 1,37,-1
 2579 1314 l 1,38,-1
 2579 153 l 1,33,-1
2173 1314 m 1,39,-1
 2173 1166 l 1,40,-1
 1588 1166 l 1,41,-1
 1588 735 l 1,42,-1
 2059 735 l 1,43,-1
 2059 592 l 1,44,-1
 1588 592 l 1,45,-1
 1588 148 l 1,46,-1
 2173 148 l 1,47,-1
 2173 0 l 1,48,-1
 1405 0 l 1,49,-1
 1405 1314 l 1,50,-1
 2173 1314 l 1,39,-1
1192 657 m 0,51,52
 1192 509 1192 509 1148.5 388 c 128,-1,53
 1105 267 1105 267 1026.5 180.5 c 128,-1,54
 948 94 948 94 837.5 47 c 128,-1,55
 727 0 727 0 593 0 c 2,56,-1
 139 0 l 1,57,-1
 139 1314 l 1,58,-1
 593 1314 l 2,59,60
 727 1314 727 1314 837.5 1266.5 c 128,-1,61
 948 1219 948 1219 1026.5 1133 c 128,-1,62
 1105 1047 1105 1047 1148.5 925.5 c 128,-1,63
 1192 804 1192 804 1192 657 c 0,51,52
1005 657 m 256,64,65
 1005 777 1005 777 976 871.5 c 128,-1,66
 947 966 947 966 893 1032 c 128,-1,67
 839 1098 839 1098 763 1132.5 c 128,-1,68
 687 1167 687 1167 593 1167 c 2,69,-1
 322 1167 l 1,70,-1
 322 147 l 1,71,-1
 593 147 l 2,72,73
 687 147 687 147 763 181.5 c 128,-1,74
 839 216 839 216 893 281.5 c 128,-1,75
 947 347 947 347 976 442 c 128,-1,76
 1005 537 1005 537 1005 657 c 256,64,65
EndSplineSet
Validated: 1
EndChar

StartChar: e
Encoding: 101 101 32
Width: 5162
GlyphClass: 2
Flags: W
LayerCount: 2
Fore
SplineSet
4627 657 m 0,0,1
 4627 509 4627 509 4583.5 386 c 128,-1,2
 4540 263 4540 263 4460.5 174 c 128,-1,3
 4381 85 4381 85 4269.5 35.5 c 128,-1,4
 4158 -14 4158 -14 4022 -14 c 0,5,6
 3887 -14 3887 -14 3775 35.5 c 128,-1,7
 3663 85 3663 85 3583 174 c 128,-1,8
 3503 263 3503 263 3459 386 c 128,-1,9
 3415 509 3415 509 3415 657 c 0,10,11
 3415 804 3415 804 3459 927.5 c 128,-1,12
 3503 1051 3503 1051 3583 1140.5 c 128,-1,13
 3663 1230 3663 1230 3775 1279.5 c 128,-1,14
 3887 1329 3887 1329 4022 1329 c 0,15,16
 4158 1329 4158 1329 4269.5 1279.5 c 128,-1,17
 4381 1230 4381 1230 4460.5 1140.5 c 128,-1,18
 4540 1051 4540 1051 4583.5 927.5 c 128,-1,19
 4627 804 4627 804 4627 657 c 0,0,1
4441 657 m 256,20,21
 4441 777 4441 777 4411.5 872.5 c 128,-1,22
 4382 968 4382 968 4327.5 1034.5 c 128,-1,23
 4273 1101 4273 1101 4195.5 1136.5 c 128,-1,24
 4118 1172 4118 1172 4022 1172 c 256,25,26
 3926 1172 3926 1172 3848.5 1136.5 c 128,-1,27
 3771 1101 3771 1101 3716 1034.5 c 128,-1,28
 3661 968 3661 968 3631.5 872.5 c 128,-1,29
 3602 777 3602 777 3602 657 c 256,30,31
 3602 537 3602 537 3631.5 441.5 c 128,-1,32
 3661 346 3661 346 3716 279.5 c 128,-1,33
 3771 213 3771 213 3848.5 178 c 128,-1,34
 3926 143 3926 143 4022 143 c 256,35,36
 4118 143 4118 143 4195.5 178 c 128,-1,37
 4273 213 4273 213 4327.5 279.5 c 128,-1,38
 4382 346 4382 346 4411.5 441.5 c 128,-1,39
 4441 537 4441 537 4441 657 c 256,20,21
3203 0 m 1,40,-1
 3020 0 l 1,41,-1
 3020 596 l 1,42,-1
 2390 596 l 1,43,-1
 2390 0 l 1,44,-1
 2207 0 l 1,45,-1
 2207 1314 l 1,46,-1
 2390 1314 l 1,47,-1
 2390 729 l 1,48,-1
 3020 729 l 1,49,-1
 3020 1314 l 1,50,-1
 3203 1314 l 1,51,-1
 3203 0 l 1,40,-1
1929 274 m 0,52,53
 1944 274 1944 274 1955 262 c 2,54,-1
 2027 184 l 1,55,56
 1956 90 1956 90 1852 38 c 128,-1,57
 1748 -14 1748 -14 1603 -14 c 0,58,59
 1475 -14 1475 -14 1371.5 35 c 128,-1,60
 1268 84 1268 84 1194.5 172.5 c 128,-1,61
 1121 261 1121 261 1081.5 384.5 c 128,-1,62
 1042 508 1042 508 1042 657 c 256,63,64
 1042 806 1042 806 1084 929.5 c 128,-1,65
 1126 1053 1126 1053 1202 1142 c 128,-1,66
 1278 1231 1278 1231 1384 1280 c 128,-1,67
 1490 1329 1490 1329 1618 1329 c 0,68,69
 1745 1329 1745 1329 1841.5 1284 c 128,-1,70
 1938 1239 1938 1239 2010 1162 c 1,71,-1
 1950 1078 l 2,72,73
 1943 1068 1943 1068 1935 1063 c 0,74,75
 1926 1057 1926 1057 1912 1057 c 0,76,77
 1895 1057 1895 1057 1874.5 1075 c 128,-1,78
 1854 1093 1854 1093 1821 1114.5 c 128,-1,79
 1788 1136 1788 1136 1739 1154 c 128,-1,80
 1690 1172 1690 1172 1617 1172 c 0,81,82
 1531 1172 1531 1172 1459.5 1137 c 128,-1,83
 1388 1102 1388 1102 1336.5 1035.5 c 128,-1,84
 1285 969 1285 969 1256.5 873.5 c 128,-1,85
 1228 778 1228 778 1228 657 c 0,86,87
 1228 535 1228 535 1258 439 c 128,-1,88
 1288 343 1288 343 1340 277 c 128,-1,89
 1392 211 1392 211 1462.5 176 c 128,-1,90
 1533 141 1533 141 1614 141 c 0,91,92
 1664 141 1664 141 1703.5 148 c 128,-1,93
 1743 155 1743 155 1776.5 169.5 c 128,-1,94
 1810 184 1810 184 1840 206 c 0,95,96
 1861 223 1861 223 1898 260 c 0,97,98
 1912 274 1912 274 1929 274 c 0,52,53
913 1314 m 1,99,-1
 913 1166 l 1,100,-1
 328 1166 l 1,101,-1
 328 735 l 1,102,-1
 799 735 l 1,103,-1
 799 592 l 1,104,-1
 328 592 l 1,105,-1
 328 148 l 1,106,-1
 913 148 l 1,107,-1
 913 0 l 1,108,-1
 145 0 l 1,109,-1
 145 1314 l 1,110,-1
 913 1314 l 1,99,-1
EndSplineSet
Validated: 1
EndChar

StartChar: f
Encoding: 102 102 33
Width: 8130
GlyphClass: 2
Flags: W
LayerCount: 2
Fore
SplineSet
7643 1314 m 1,0,-1
 7643 1162 l 1,1,-1
 7260 1162 l 1,2,-1
 7260 0 l 1,3,-1
 7077 0 l 1,4,-1
 7077 1162 l 1,5,-1
 6693 1162 l 1,6,-1
 6693 1314 l 1,7,-1
 7643 1314 l 1,0,-1
6652 657 m 0,8,9
 6652 509 6652 509 6608.5 386 c 128,-1,10
 6565 263 6565 263 6485.5 174 c 128,-1,11
 6406 85 6406 85 6294.5 35.5 c 128,-1,12
 6183 -14 6183 -14 6047 -14 c 0,13,14
 5912 -14 5912 -14 5800 35.5 c 128,-1,15
 5688 85 5688 85 5608 174 c 128,-1,16
 5528 263 5528 263 5484 386 c 128,-1,17
 5440 509 5440 509 5440 657 c 0,18,19
 5440 804 5440 804 5484 927.5 c 128,-1,20
 5528 1051 5528 1051 5608 1140.5 c 128,-1,21
 5688 1230 5688 1230 5800 1279.5 c 128,-1,22
 5912 1329 5912 1329 6047 1329 c 0,23,24
 6183 1329 6183 1329 6294.5 1279.5 c 128,-1,25
 6406 1230 6406 1230 6485.5 1140.5 c 128,-1,26
 6565 1051 6565 1051 6608.5 927.5 c 128,-1,27
 6652 804 6652 804 6652 657 c 0,8,9
6466 657 m 256,28,29
 6466 777 6466 777 6436.5 872.5 c 128,-1,30
 6407 968 6407 968 6352.5 1034.5 c 128,-1,31
 6298 1101 6298 1101 6220.5 1136.5 c 128,-1,32
 6143 1172 6143 1172 6047 1172 c 256,33,34
 5951 1172 5951 1172 5873.5 1136.5 c 128,-1,35
 5796 1101 5796 1101 5741 1034.5 c 128,-1,36
 5686 968 5686 968 5656.5 872.5 c 128,-1,37
 5627 777 5627 777 5627 657 c 256,38,39
 5627 537 5627 537 5656.5 441.5 c 128,-1,40
 5686 346 5686 346 5741 279.5 c 128,-1,41
 5796 213 5796 213 5873.5 178 c 128,-1,42
 5951 143 5951 143 6047 143 c 256,43,44
 6143 143 6143 143 6220.5 178 c 128,-1,45
 6298 213 6298 213 6352.5 279.5 c 128,-1,46
 6407 346 6407 346 6436.5 441.5 c 128,-1,47
 6466 537 6466 537 6466 657 c 256,28,29
4605 546 m 1,48,-1
 4605 0 l 1,49,-1
 4423 0 l 1,50,-1
 4423 1314 l 1,51,-1
 4783 1314 l 2,52,53
 4903 1314 4903 1314 4990.5 1288.5 c 128,-1,54
 5078 1263 5078 1263 5134.5 1215.5 c 128,-1,55
 5191 1168 5191 1168 5218 1100.5 c 128,-1,56
 5245 1033 5245 1033 5245 949 c 0,57,58
 5245 880 5245 880 5224.5 820 c 128,-1,59
 5204 760 5204 760 5165.5 712 c 128,-1,60
 5127 664 5127 664 5071 629.5 c 128,-1,61
 5015 595 5015 595 4944 577 c 1,62,63
 4961 566 4961 566 4976 552.5 c 128,-1,64
 4991 539 4991 539 5005 520 c 2,65,-1
 5358 0 l 1,66,-1
 5196 0 l 2,67,68
 5149 0 5149 0 5123 37 c 2,69,-1
 4812 505 l 2,70,71
 4797 527 4797 527 4779.5 536.5 c 128,-1,72
 4762 546 4762 546 4727 546 c 2,73,-1
 4605 546 l 1,48,-1
4605 679 m 1,74,-1
 4776 679 l 2,75,76
 4848 679 4848 679 4902.5 697.5 c 128,-1,77
 4957 716 4957 716 4994 750 c 128,-1,78
 5031 784 5031 784 5049.5 831.5 c 128,-1,79
 5068 879 5068 879 5068 936 c 0,80,81
 5068 1171 5068 1171 4783 1171 c 2,82,-1
 4605 1171 l 1,83,-1
 4605 679 l 1,74,-1
4252 1314 m 1,84,-1
 4252 1162 l 1,85,-1
 3869 1162 l 1,86,-1
 3869 0 l 1,87,-1
 3686 0 l 1,88,-1
 3686 1162 l 1,89,-1
 3302 1162 l 1,90,-1
 3302 1314 l 1,91,-1
 4252 1314 l 1,84,-1
2622 674 m 1,92,-1
 2242 1314 l 1,93,-1
 2423 1314 l 2,94,95
 2443 1314 2443 1314 2452 1307 c 128,-1,96
 2461 1300 2461 1300 2469 1289 c 2,97,-1
 2758 777 l 1,98,99
 2765 794 2765 794 2774 807 c 2,100,-1
 3040 1286 l 2,101,102
 3048 1299 3048 1299 3057.5 1306.5 c 128,-1,103
 3067 1314 3067 1314 3081 1314 c 2,104,-1
 3255 1314 l 1,105,-1
 2873 684 l 1,106,-1
 3267 0 l 1,107,-1
 3086 0 l 2,108,109
 3066 0 3066 0 3055 11 c 128,-1,110
 3044 22 3044 22 3036 34 c 2,111,-1
 2739 570 l 1,112,113
 2734 555 2734 555 2727 545 c 2,114,-1
 2443 34 l 2,115,116
 2435 21 2435 21 2424 10.5 c 128,-1,117
 2413 0 2413 0 2396 0 c 2,118,-1
 2226 0 l 1,119,-1
 2622 674 l 1,92,-1
2207 657 m 0,120,121
 2207 509 2207 509 2163.5 386 c 128,-1,122
 2120 263 2120 263 2040.5 174 c 128,-1,123
 1961 85 1961 85 1849.5 35.5 c 128,-1,124
 1738 -14 1738 -14 1602 -14 c 0,125,126
 1467 -14 1467 -14 1355 35.5 c 128,-1,127
 1243 85 1243 85 1163 174 c 128,-1,128
 1083 263 1083 263 1039 386 c 128,-1,129
 995 509 995 509 995 657 c 0,130,131
 995 804 995 804 1039 927.5 c 128,-1,132
 1083 1051 1083 1051 1163 1140.5 c 128,-1,133
 1243 1230 1243 1230 1355 1279.5 c 128,-1,134
 1467 1329 1467 1329 1602 1329 c 0,135,136
 1738 1329 1738 1329 1849.5 1279.5 c 128,-1,137
 1961 1230 1961 1230 2040.5 1140.5 c 128,-1,138
 2120 1051 2120 1051 2163.5 927.5 c 128,-1,139
 2207 804 2207 804 2207 657 c 0,120,121
2021 657 m 256,140,141
 2021 777 2021 777 1991.5 872.5 c 128,-1,142
 1962 968 1962 968 1907.5 1034.5 c 128,-1,143
 1853 1101 1853 1101 1775.5 1136.5 c 128,-1,144
 1698 1172 1698 1172 1602 1172 c 256,145,146
 1506 1172 1506 1172 1428.5 1136.5 c 128,-1,147
 1351 1101 1351 1101 1296 1034.5 c 128,-1,148
 1241 968 1241 968 1211.5 872.5 c 128,-1,149
 1182 777 1182 777 1182 657 c 256,150,151
 1182 537 1182 537 1211.5 441.5 c 128,-1,152
 1241 346 1241 346 1296 279.5 c 128,-1,153
 1351 213 1351 213 1428.5 178 c 128,-1,154
 1506 143 1506 143 1602 143 c 256,155,156
 1698 143 1698 143 1775.5 178 c 128,-1,157
 1853 213 1853 213 1907.5 279.5 c 128,-1,158
 1962 346 1962 346 1991.5 441.5 c 128,-1,159
 2021 537 2021 537 2021 657 c 256,140,141
882 1314 m 1,160,-1
 882 1166 l 1,161,-1
 321 1166 l 1,162,-1
 321 711 l 1,163,-1
 798 711 l 1,164,-1
 798 563 l 1,165,-1
 321 563 l 1,166,-1
 321 0 l 1,167,-1
 138 0 l 1,168,-1
 138 1314 l 1,169,-1
 882 1314 l 1,160,-1
EndSplineSet
Validated: 1
EndChar

StartChar: g
Encoding: 103 103 34
Width: 4913
GlyphClass: 2
Flags: W
LayerCount: 2
Fore
SplineSet
4391 1314 m 1,0,-1
 4391 1166 l 1,1,-1
 3830 1166 l 1,2,-1
 3830 711 l 1,3,-1
 4307 711 l 1,4,-1
 4307 563 l 1,5,-1
 3830 563 l 1,6,-1
 3830 0 l 1,7,-1
 3647 0 l 1,8,-1
 3647 1314 l 1,9,-1
 4391 1314 l 1,0,-1
2968 153 m 1,10,-1
 3475 153 l 1,11,-1
 3475 0 l 1,12,-1
 2786 0 l 1,13,-1
 2786 1314 l 1,14,-1
 2968 1314 l 1,15,-1
 2968 153 l 1,10,-1
2576 657 m 0,16,17
 2576 509 2576 509 2532.5 386 c 128,-1,18
 2489 263 2489 263 2409.5 174 c 128,-1,19
 2330 85 2330 85 2218.5 35.5 c 128,-1,20
 2107 -14 2107 -14 1971 -14 c 0,21,22
 1836 -14 1836 -14 1724 35.5 c 128,-1,23
 1612 85 1612 85 1532 174 c 128,-1,24
 1452 263 1452 263 1408 386 c 128,-1,25
 1364 509 1364 509 1364 657 c 0,26,27
 1364 804 1364 804 1408 927.5 c 128,-1,28
 1452 1051 1452 1051 1532 1140.5 c 128,-1,29
 1612 1230 1612 1230 1724 1279.5 c 128,-1,30
 1836 1329 1836 1329 1971 1329 c 0,31,32
 2107 1329 2107 1329 2218.5 1279.5 c 128,-1,33
 2330 1230 2330 1230 2409.5 1140.5 c 128,-1,34
 2489 1051 2489 1051 2532.5 927.5 c 128,-1,35
 2576 804 2576 804 2576 657 c 0,16,17
2390 657 m 256,36,37
 2390 777 2390 777 2360.5 872.5 c 128,-1,38
 2331 968 2331 968 2276.5 1034.5 c 128,-1,39
 2222 1101 2222 1101 2144.5 1136.5 c 128,-1,40
 2067 1172 2067 1172 1971 1172 c 256,41,42
 1875 1172 1875 1172 1797.5 1136.5 c 128,-1,43
 1720 1101 1720 1101 1665 1034.5 c 128,-1,44
 1610 968 1610 968 1580.5 872.5 c 128,-1,45
 1551 777 1551 777 1551 657 c 256,46,47
 1551 537 1551 537 1580.5 441.5 c 128,-1,48
 1610 346 1610 346 1665 279.5 c 128,-1,49
 1720 213 1720 213 1797.5 178 c 128,-1,50
 1875 143 1875 143 1971 143 c 256,51,52
 2067 143 2067 143 2144.5 178 c 128,-1,53
 2222 213 2222 213 2276.5 279.5 c 128,-1,54
 2331 346 2331 346 2360.5 441.5 c 128,-1,55
 2390 537 2390 537 2390 657 c 256,36,37
1185 127 m 1,56,57
 1089 56 1089 56 980.5 21 c 128,-1,58
 872 -14 872 -14 745 -14 c 0,59,60
 592 -14 592 -14 468.5 35 c 128,-1,61
 345 84 345 84 258 172.5 c 128,-1,62
 171 261 171 261 124 384.5 c 128,-1,63
 77 508 77 508 77 657 c 0,64,65
 77 807 77 807 122.5 930.5 c 128,-1,66
 168 1054 168 1054 252.5 1142.5 c 128,-1,67
 337 1231 337 1231 457 1280 c 128,-1,68
 577 1329 577 1329 726 1329 c 0,69,70
 802 1329 802 1329 866.5 1317.5 c 128,-1,71
 931 1306 931 1306 986 1284.5 c 128,-1,72
 1041 1263 1041 1263 1087.5 1232 c 128,-1,73
 1134 1201 1134 1201 1174 1163 c 1,74,-1
 1123 1081 l 2,75,76
 1111 1061 1111 1061 1091 1056 c 128,-1,77
 1071 1051 1071 1051 1048 1065 c 0,78,79
 1025 1078 1025 1078 997.5 1096.5 c 128,-1,80
 970 1115 970 1115 932 1131.5 c 128,-1,81
 894 1148 894 1148 842 1160 c 128,-1,82
 790 1172 790 1172 719 1172 c 0,83,84
 615 1172 615 1172 530.5 1136 c 128,-1,85
 446 1100 446 1100 386.5 1033 c 128,-1,86
 327 966 327 966 295 870.5 c 128,-1,87
 263 775 263 775 263 657 c 0,88,89
 263 534 263 534 296.5 436.5 c 128,-1,90
 330 339 330 339 392.5 271.5 c 128,-1,91
 455 204 455 204 543 168.5 c 128,-1,92
 631 133 631 133 740 133 c 0,93,94
 824 133 824 133 890 152.5 c 128,-1,95
 956 172 956 172 1020 207 c 1,96,-1
 1020 495 l 1,97,-1
 831 495 l 2,98,99
 813 495 813 495 802 505 c 128,-1,100
 791 515 791 515 791 530 c 2,101,-1
 791 633 l 1,102,-1
 1185 633 l 1,103,-1
 1185 127 l 1,56,57
EndSplineSet
Validated: 1
EndChar

StartChar: h
Encoding: 104 104 35
Width: 5899
GlyphClass: 2
Flags: W
LayerCount: 2
Fore
SplineSet
4895 153 m 1,0,-1
 5402 153 l 1,1,-1
 5402 0 l 1,2,-1
 4713 0 l 1,3,-1
 4713 1314 l 1,4,-1
 4895 1314 l 1,5,-1
 4895 153 l 1,0,-1
4489 1314 m 1,6,-1
 4489 1166 l 1,7,-1
 3904 1166 l 1,8,-1
 3904 735 l 1,9,-1
 4375 735 l 1,10,-1
 4375 592 l 1,11,-1
 3904 592 l 1,12,-1
 3904 148 l 1,13,-1
 4489 148 l 5,14,-1
 4489 0 l 1,15,-1
 3721 0 l 1,16,-1
 3721 1314 l 1,17,-1
 4489 1314 l 1,6,-1
3552 1314 m 1,18,-1
 3552 1162 l 1,19,-1
 3169 1162 l 1,20,-1
 3169 0 l 1,21,-1
 2986 0 l 1,22,-1
 2986 1162 l 1,23,-1
 2602 1162 l 1,24,-1
 2602 1314 l 1,25,-1
 3552 1314 l 1,18,-1
2561 657 m 0,26,27
 2561 509 2561 509 2517.5 386 c 128,-1,28
 2474 263 2474 263 2394.5 174 c 128,-1,29
 2315 85 2315 85 2203.5 35.5 c 128,-1,30
 2092 -14 2092 -14 1956 -14 c 0,31,32
 1821 -14 1821 -14 1709 35.5 c 128,-1,33
 1597 85 1597 85 1517 174 c 128,-1,34
 1437 263 1437 263 1393 386 c 128,-1,35
 1349 509 1349 509 1349 657 c 0,36,37
 1349 804 1349 804 1393 927.5 c 128,-1,38
 1437 1051 1437 1051 1517 1140.5 c 128,-1,39
 1597 1230 1597 1230 1709 1279.5 c 128,-1,40
 1821 1329 1821 1329 1956 1329 c 0,41,42
 2092 1329 2092 1329 2203.5 1279.5 c 128,-1,43
 2315 1230 2315 1230 2394.5 1140.5 c 128,-1,44
 2474 1051 2474 1051 2517.5 927.5 c 128,-1,45
 2561 804 2561 804 2561 657 c 0,26,27
2375 657 m 256,46,47
 2375 777 2375 777 2345.5 872.5 c 128,-1,48
 2316 968 2316 968 2261.5 1034.5 c 128,-1,49
 2207 1101 2207 1101 2129.5 1136.5 c 128,-1,50
 2052 1172 2052 1172 1956 1172 c 256,51,52
 1860 1172 1860 1172 1782.5 1136.5 c 128,-1,53
 1705 1101 1705 1101 1650 1034.5 c 128,-1,54
 1595 968 1595 968 1565.5 872.5 c 128,-1,55
 1536 777 1536 777 1536 657 c 256,56,57
 1536 537 1536 537 1565.5 441.5 c 128,-1,58
 1595 346 1595 346 1650 279.5 c 128,-1,59
 1705 213 1705 213 1782.5 178 c 128,-1,60
 1860 143 1860 143 1956 143 c 256,61,62
 2052 143 2052 143 2129.5 178 c 128,-1,63
 2207 213 2207 213 2261.5 279.5 c 128,-1,64
 2316 346 2316 346 2345.5 441.5 c 128,-1,65
 2375 537 2375 537 2375 657 c 256,46,47
1136 0 m 1,66,-1
 953 0 l 1,67,-1
 953 596 l 1,68,-1
 323 596 l 1,69,-1
 323 0 l 1,70,-1
 140 0 l 1,71,-1
 140 1314 l 1,72,-1
 323 1314 l 1,73,-1
 323 729 l 1,74,-1
 953 729 l 1,75,-1
 953 1314 l 1,76,-1
 1136 1314 l 1,77,-1
 1136 0 l 1,66,-1
EndSplineSet
Validated: 1
EndChar

StartChar: i
Encoding: 105 105 36
Width: 5292
GlyphClass: 2
Flags: W
LayerCount: 2
Fore
SplineSet
3447 0 m 1,0,-1
 3265 0 l 1,1,-1
 3265 1314 l 1,2,-1
 3447 1314 l 1,3,-1
 3447 0 l 1,0,-1
4792 0 m 1,4,-1
 4651 0 l 2,5,6
 4627 0 4627 0 4612 12 c 0,7,8
 4596 26 4596 26 4590 42 c 2,9,-1
 4478 358 l 1,10,-1
 3936 358 l 1,11,-1
 3825 43 l 2,12,13
 3819 26 3819 26 3802.5 13 c 128,-1,14
 3786 0 3786 0 3763 0 c 2,15,-1
 3622 0 l 1,16,-1
 4115 1314 l 1,17,-1
 4300 1314 l 1,18,-1
 4792 0 l 1,4,-1
3982 488 m 1,19,-1
 4432 488 l 1,20,-1
 4246 1017 l 2,21,22
 4236 1041 4236 1041 4226 1073 c 128,-1,23
 4216 1105 4216 1105 4207 1142 c 1,24,25
 4197 1104 4197 1104 4187 1072 c 0,26,27
 4174 1034 4174 1034 4168 1016 c 2,28,-1
 3982 488 l 1,19,-1
3030 657 m 0,29,30
 3030 509 3030 509 2986.5 388 c 128,-1,31
 2943 267 2943 267 2864.5 180.5 c 128,-1,32
 2786 94 2786 94 2675.5 47 c 128,-1,33
 2565 0 2565 0 2431 0 c 2,34,-1
 1977 0 l 1,35,-1
 1977 1314 l 1,36,-1
 2431 1314 l 2,37,38
 2565 1314 2565 1314 2675.5 1266.5 c 128,-1,39
 2786 1219 2786 1219 2864.5 1133 c 128,-1,40
 2943 1047 2943 1047 2986.5 925.5 c 128,-1,41
 3030 804 3030 804 3030 657 c 0,29,30
2843 657 m 256,42,43
 2843 777 2843 777 2814 871.5 c 128,-1,44
 2785 966 2785 966 2731 1032 c 128,-1,45
 2677 1098 2677 1098 2601 1132.5 c 128,-1,46
 2525 1167 2525 1167 2431 1167 c 2,47,-1
 2160 1167 l 1,48,-1
 2160 147 l 1,49,-1
 2431 147 l 2,50,51
 2525 147 2525 147 2601 181.5 c 128,-1,52
 2677 216 2677 216 2731 281.5 c 128,-1,53
 2785 347 2785 347 2814 442 c 128,-1,54
 2843 537 2843 537 2843 657 c 256,42,43
794 1308 m 0,55,56
 806 1303 806 1303 821 1283 c 2,57,-1
 1535 300 l 1,58,59
 1533 324 1533 324 1531.5 347.5 c 128,-1,60
 1530 371 1530 371 1530 391 c 2,61,-1
 1530 1314 l 1,62,-1
 1690 1314 l 1,63,-1
 1690 0 l 1,64,-1
 1598 0 l 2,65,66
 1577 0 1577 0 1562 7 c 0,67,68
 1546 15 1546 15 1534 32 c 2,69,-1
 820 1012 l 1,70,71
 822 989 822 989 823 968 c 128,-1,72
 824 947 824 947 824 928 c 2,73,-1
 824 0 l 1,74,-1
 664 0 l 1,75,-1
 664 1314 l 1,76,-1
 759 1314 l 1,77,78
 782 1314 782 1314 794 1308 c 0,55,56
349 0 m 1,79,-1
 167 0 l 1,80,-1
 167 1314 l 1,81,-1
 349 1314 l 1,82,-1
 349 0 l 1,79,-1
EndSplineSet
Validated: 1
EndChar

StartChar: j
Encoding: 106 106 37
Width: 5804
GlyphClass: 2
Flags: W
LayerCount: 2
Fore
SplineSet
5317 1314 m 1,0,-1
 5317 1162 l 1,1,-1
 4934 1162 l 1,2,-1
 4934 0 l 1,3,-1
 4751 0 l 1,4,-1
 4751 1162 l 1,5,-1
 4367 1162 l 1,6,-1
 4367 1314 l 1,7,-1
 5317 1314 l 1,0,-1
4257 1314 m 1,8,-1
 4257 1166 l 1,9,-1
 3672 1166 l 1,10,-1
 3672 735 l 1,11,-1
 4143 735 l 1,12,-1
 4143 592 l 1,13,-1
 3672 592 l 1,14,-1
 3672 148 l 1,15,-1
 4257 148 l 1,16,-1
 4257 0 l 1,17,-1
 3489 0 l 1,18,-1
 3489 1314 l 1,19,-1
 4257 1314 l 1,8,-1
3177 0 m 1,20,-1
 2995 0 l 1,21,-1
 2995 1314 l 1,22,-1
 3177 1314 l 1,23,-1
 3177 0 l 1,20,-1
2287 153 m 1,24,-1
 2794 153 l 1,25,-1
 2794 0 l 1,26,-1
 2105 0 l 1,27,-1
 2105 1314 l 1,28,-1
 2287 1314 l 1,29,-1
 2287 153 l 1,24,-1
1310 144 m 256,30,31
 1389 144 1389 144 1451.5 171.5 c 128,-1,32
 1514 199 1514 199 1557 248.5 c 128,-1,33
 1600 298 1600 298 1622.5 366 c 128,-1,34
 1645 434 1645 434 1645 516 c 2,35,-1
 1645 1314 l 1,36,-1
 1827 1314 l 1,37,-1
 1827 516 l 2,38,39
 1827 402 1827 402 1791 305 c 128,-1,40
 1755 208 1755 208 1688.5 137 c 128,-1,41
 1622 66 1622 66 1526 25.5 c 128,-1,42
 1430 -15 1430 -15 1310 -15 c 256,43,44
 1190 -15 1190 -15 1094.5 25.5 c 128,-1,45
 999 66 999 66 932 137 c 128,-1,46
 865 208 865 208 829 305 c 128,-1,47
 793 402 793 402 793 516 c 2,48,-1
 793 1314 l 1,49,-1
 975 1314 l 1,50,-1
 975 517 l 2,51,52
 975 435 975 435 997.5 366.5 c 128,-1,53
 1020 298 1020 298 1063 248.5 c 128,-1,54
 1106 199 1106 199 1168.5 171.5 c 128,-1,55
 1231 144 1231 144 1310 144 c 256,30,31
538 455 m 2,56,57
 538 345 538 345 516 258 c 128,-1,58
 494 171 494 171 450 110.5 c 128,-1,59
 406 50 406 50 341 18 c 128,-1,60
 276 -14 276 -14 191 -14 c 0,61,62
 152 -14 152 -14 114 -8.5 c 128,-1,63
 76 -3 76 -3 34 10 c 1,64,65
 36 38 36 38 38.5 65 c 128,-1,66
 41 92 41 92 44 118 c 0,67,68
 46 133 46 133 55.5 143 c 128,-1,69
 65 153 65 153 84 153 c 0,70,71
 97 153 97 153 117.5 145.5 c 128,-1,72
 138 138 138 138 172 138 c 0,73,74
 262 138 262 138 309 212 c 128,-1,75
 356 286 356 286 356 451 c 2,76,-1
 356 1314 l 1,77,-1
 538 1314 l 1,78,-1
 538 455 l 2,56,57
EndSplineSet
Validated: 1
EndChar

StartChar: k
Encoding: 107 107 38
Width: 4215
GlyphClass: 2
Flags: W
LayerCount: 2
Fore
SplineSet
3680 657 m 0,0,1
 3680 509 3680 509 3636.5 386 c 128,-1,2
 3593 263 3593 263 3513.5 174 c 128,-1,3
 3434 85 3434 85 3322.5 35.5 c 128,-1,4
 3211 -14 3211 -14 3075 -14 c 0,5,6
 2940 -14 2940 -14 2828 35.5 c 128,-1,7
 2716 85 2716 85 2636 174 c 128,-1,8
 2556 263 2556 263 2512 386 c 128,-1,9
 2468 509 2468 509 2468 657 c 0,10,11
 2468 804 2468 804 2512 927.5 c 128,-1,12
 2556 1051 2556 1051 2636 1140.5 c 128,-1,13
 2716 1230 2716 1230 2828 1279.5 c 128,-1,14
 2940 1329 2940 1329 3075 1329 c 0,15,16
 3211 1329 3211 1329 3322.5 1279.5 c 128,-1,17
 3434 1230 3434 1230 3513.5 1140.5 c 128,-1,18
 3593 1051 3593 1051 3636.5 927.5 c 128,-1,19
 3680 804 3680 804 3680 657 c 0,0,1
3494 657 m 256,20,21
 3494 777 3494 777 3464.5 872.5 c 128,-1,22
 3435 968 3435 968 3380.5 1034.5 c 128,-1,23
 3326 1101 3326 1101 3248.5 1136.5 c 128,-1,24
 3171 1172 3171 1172 3075 1172 c 256,25,26
 2979 1172 2979 1172 2901.5 1136.5 c 128,-1,27
 2824 1101 2824 1101 2769 1034.5 c 128,-1,28
 2714 968 2714 968 2684.5 872.5 c 128,-1,29
 2655 777 2655 777 2655 657 c 256,30,31
 2655 537 2655 537 2684.5 441.5 c 128,-1,32
 2714 346 2714 346 2769 279.5 c 128,-1,33
 2824 213 2824 213 2901.5 178 c 128,-1,34
 2979 143 2979 143 3075 143 c 256,35,36
 3171 143 3171 143 3248.5 178 c 128,-1,37
 3326 213 3326 213 3380.5 279.5 c 128,-1,38
 3435 346 3435 346 3464.5 441.5 c 128,-1,39
 3494 537 3494 537 3494 657 c 256,20,21
1900 153 m 1,40,-1
 2407 153 l 1,41,-1
 2407 0 l 1,42,-1
 1718 0 l 1,43,-1
 1718 1314 l 1,44,-1
 1900 1314 l 1,45,-1
 1900 153 l 1,40,-1
1413 0 m 1,46,-1
 1231 0 l 1,47,-1
 1231 1314 l 1,48,-1
 1413 1314 l 1,49,-1
 1413 0 l 1,46,-1
306 740 m 1,50,-1
 358 740 l 2,51,52
 387 740 387 740 406 749 c 128,-1,53
 425 758 425 758 439 778 c 2,54,-1
 778 1272 l 2,55,56
 796 1295 796 1295 815.5 1304.5 c 128,-1,57
 835 1314 835 1314 864 1314 c 2,58,-1
 1020 1314 l 1,59,-1
 620 750 l 2,60,61
 588 707 588 707 553 689 c 1,62,63
 599 673 599 673 636 624 c 2,64,-1
 1049 0 l 1,65,-1
 889 0 l 2,66,67
 856 0 856 0 840.5 10.5 c 128,-1,68
 825 21 825 21 811 38 c 2,69,-1
 463 558 l 2,70,71
 447 581 447 581 428.5 590.5 c 128,-1,72
 410 600 410 600 373 600 c 2,73,-1
 306 600 l 1,74,-1
 306 0 l 1,75,-1
 124 0 l 1,76,-1
 124 1314 l 1,77,-1
 306 1314 l 1,78,-1
 306 740 l 1,50,-1
EndSplineSet
Validated: 1
EndChar

StartChar: m
Encoding: 109 109 39
Width: 4793
GlyphClass: 2
Flags: W
LayerCount: 2
Fore
SplineSet
4244 1314 m 1,0,-1
 4244 1166 l 1,1,-1
 3659 1166 l 1,2,-1
 3659 735 l 1,3,-1
 4130 735 l 1,4,-1
 4130 592 l 1,5,-1
 3659 592 l 1,6,-1
 3659 148 l 1,7,-1
 4244 148 l 1,8,-1
 4244 0 l 1,9,-1
 3476 0 l 1,10,-1
 3476 1314 l 1,11,-1
 4244 1314 l 1,0,-1
2573 740 m 1,12,-1
 2625 740 l 2,13,14
 2654 740 2654 740 2673 749 c 128,-1,15
 2692 758 2692 758 2706 778 c 2,16,-1
 3045 1272 l 2,17,18
 3060 1293 3060 1293 3082 1304 c 0,19,20
 3102 1314 3102 1314 3131 1314 c 2,21,-1
 3287 1314 l 1,22,-1
 2887 750 l 2,23,24
 2857 708 2857 708 2820 689 c 1,25,26
 2872 671 2872 671 2903 624 c 2,27,-1
 3316 0 l 1,28,-1
 3156 0 l 2,29,30
 3123 0 3123 0 3108 10 c 0,31,32
 3088 24 3088 24 3078 38 c 2,33,-1
 2730 558 l 2,34,35
 2715 581 2715 581 2696 590 c 0,36,37
 2677 600 2677 600 2640 600 c 2,38,-1
 2573 600 l 1,39,-1
 2573 0 l 1,40,-1
 2391 0 l 1,41,-1
 2391 1314 l 1,42,-1
 2573 1314 l 1,43,-1
 2573 740 l 1,12,-1
2100 0 m 1,44,-1
 1918 0 l 1,45,-1
 1918 1314 l 1,46,-1
 2100 1314 l 1,47,-1
 2100 0 l 1,44,-1
858.5 432 m 128,-1,49
 869 408 869 408 879 383 c 1,50,51
 889 409 889 409 899.5 433 c 128,-1,52
 910 457 910 457 922 479 c 2,53,-1
 1386 1284 l 2,54,55
 1398 1305 1398 1305 1412 1309.5 c 128,-1,56
 1426 1314 1426 1314 1450 1314 c 2,57,-1
 1584 1314 l 1,58,-1
 1584 0 l 1,59,-1
 1423 0 l 1,60,-1
 1423 959 l 2,61,62
 1423 979 1423 979 1424.5 1003.5 c 128,-1,63
 1426 1028 1426 1028 1428 1053 c 1,64,-1
 959 229 l 2,65,66
 936 188 936 188 893 188 c 2,67,-1
 867 188 l 2,68,69
 824 188 824 188 801 229 c 2,70,-1
 321 1052 l 1,71,72
 327 1002 327 1002 327 959 c 2,73,-1
 327 0 l 1,74,-1
 167 0 l 1,75,-1
 167 1314 l 1,76,-1
 301 1314 l 2,77,78
 325 1314 325 1314 338.5 1309.5 c 128,-1,79
 352 1305 352 1305 365 1283 c 2,80,-1
 835 479 l 1,81,48
 848 456 848 456 858.5 432 c 128,-1,49
EndSplineSet
Validated: 1
EndChar

StartChar: n
Encoding: 110 110 40
Width: 10255
GlyphClass: 2
Flags: W
LayerCount: 2
Fore
SplineSet
8593 1314 m 1,0,-1
 8593 1166 l 1,1,-1
 8008 1166 l 1,2,-1
 8008 735 l 1,3,-1
 8479 735 l 1,4,-1
 8479 592 l 1,5,-1
 8008 592 l 1,6,-1
 8008 148 l 1,7,-1
 8593 148 l 1,8,-1
 8593 0 l 1,9,-1
 7825 0 l 1,10,-1
 7825 1314 l 1,11,-1
 8593 1314 l 1,0,-1
9009 546 m 1,12,-1
 9009 0 l 1,13,-1
 8827 0 l 1,14,-1
 8827 1314 l 1,15,-1
 9187 1314 l 2,16,17
 9307 1314 9307 1314 9394.5 1288.5 c 128,-1,18
 9482 1263 9482 1263 9538.5 1215.5 c 128,-1,19
 9595 1168 9595 1168 9622 1100.5 c 128,-1,20
 9649 1033 9649 1033 9649 949 c 0,21,22
 9649 880 9649 880 9628.5 820 c 128,-1,23
 9608 760 9608 760 9569.5 712 c 128,-1,24
 9531 664 9531 664 9475 629.5 c 128,-1,25
 9419 595 9419 595 9348 577 c 1,26,27
 9365 566 9365 566 9380 552 c 0,28,29
 9398 536 9398 536 9409 520 c 2,30,-1
 9762 0 l 1,31,-1
 9600 0 l 2,32,33
 9552 -0 9552 -0 9527 37 c 2,34,-1
 9216 505 l 2,35,36
 9202 527 9202 527 9184 536 c 0,37,38
 9166 546 9166 546 9131 546 c 2,39,-1
 9009 546 l 1,12,-1
9009 679 m 1,40,-1
 9180 679 l 2,41,42
 9252 679 9252 679 9306.5 697.5 c 128,-1,43
 9361 716 9361 716 9398 750 c 128,-1,44
 9435 784 9435 784 9453.5 831.5 c 128,-1,45
 9472 879 9472 879 9472 936 c 0,46,47
 9472 1171 9472 1171 9187 1171 c 2,48,-1
 9009 1171 l 1,49,-1
 9009 679 l 1,40,-1
4728 1314 m 1,50,-1
 4728 1166 l 1,51,-1
 4143 1166 l 1,52,-1
 4143 735 l 1,53,-1
 4614 735 l 1,54,-1
 4614 592 l 1,55,-1
 4143 592 l 1,56,-1
 4143 148 l 1,57,-1
 4729 148 l 1,58,-1
 4728 0 l 1,59,-1
 3960 0 l 1,60,-1
 3960 1314 l 1,61,-1
 4728 1314 l 1,50,-1
6710 0 m 1,62,-1
 6710 1314 l 1,63,-1
 7111 1314 l 2,64,65
 7227 1314 7227 1314 7310.5 1290.5 c 128,-1,66
 7394 1267 7394 1267 7447.5 1222.5 c 128,-1,67
 7501 1178 7501 1178 7526 1114.5 c 128,-1,68
 7551 1051 7551 1051 7551 971 c 0,69,70
 7551 923 7551 923 7536.5 878 c 128,-1,71
 7522 833 7522 833 7493 795 c 128,-1,72
 7464 757 7464 757 7420 726 c 128,-1,73
 7376 695 7376 695 7316 676 c 1,74,75
 7453 649 7453 649 7522.5 573.5 c 128,-1,76
 7592 498 7592 498 7592 375 c 0,77,78
 7592 291 7592 291 7563 222 c 128,-1,79
 7534 153 7534 153 7478 103.5 c 128,-1,80
 7422 54 7422 54 7340.5 27 c 128,-1,81
 7259 0 7259 0 7154 0 c 2,82,-1
 6710 0 l 1,62,-1
6892 598 m 1,83,-1
 6892 144 l 1,84,-1
 7151 144 l 2,85,86
 7220 144 7220 144 7269.5 161.5 c 128,-1,87
 7319 179 7319 179 7350.5 210 c 128,-1,88
 7382 241 7382 241 7396.5 284.5 c 128,-1,89
 7411 328 7411 328 7411 379 c 0,90,91
 7411 480 7411 480 7347.5 539 c 128,-1,92
 7284 598 7284 598 7151 598 c 2,93,-1
 6892 598 l 1,83,-1
6892 726 m 1,94,-1
 7104 726 l 2,95,96
 7171 726 7171 726 7221 742.5 c 128,-1,97
 7271 759 7271 759 7304 788 c 128,-1,98
 7337 817 7337 817 7353.5 858 c 128,-1,99
 7370 899 7370 899 7370 949 c 0,100,101
 7370 1064 7370 1064 7307.5 1117.5 c 128,-1,102
 7245 1171 7245 1171 7111 1171 c 2,103,-1
 6892 1171 l 1,104,-1
 6892 726 l 1,94,-1
5673.5 432 m 128,-1,106
 5684 408 5684 408 5694 383 c 1,107,108
 5705 409 5705 409 5714 433 c 0,109,110
 5725 459 5725 459 5737 479 c 2,111,-1
 6201 1284 l 2,112,113
 6213 1305 6213 1305 6227 1309.5 c 128,-1,114
 6241 1314 6241 1314 6265 1314 c 2,115,-1
 6399 1314 l 1,116,-1
 6399 0 l 1,117,-1
 6238 0 l 1,118,-1
 6238 959 l 2,119,120
 6238 979 6238 979 6239.5 1003.5 c 128,-1,121
 6241 1028 6241 1028 6243 1053 c 1,122,-1
 5774 229 l 2,123,124
 5751 188 5751 188 5708 188 c 2,125,-1
 5682 188 l 2,126,127
 5640 188 5640 188 5616 229 c 2,128,-1
 5136 1052 l 1,129,130
 5142 1002 5142 1002 5142 959 c 2,131,-1
 5142 0 l 1,132,-1
 4982 0 l 1,133,-1
 4982 1314 l 1,134,-1
 5116 1314 l 2,135,136
 5140 1314 5140 1314 5154 1310 c 0,137,138
 5167 1305 5167 1305 5180 1283 c 2,139,-1
 5650 479 l 1,140,105
 5663 456 5663 456 5673.5 432 c 128,-1,106
2659 1314 m 1,141,-1
 2806 1314 l 2,142,143
 2830 1314 2830 1314 2845 1302 c 0,144,145
 2861 1289 2861 1289 2867 1272 c 2,146,-1
 3192 351 l 2,147,148
 3214 287 3214 287 3216 284 c 0,149,150
 3227 247 3227 247 3236 207 c 1,151,152
 3244 247 3244 247 3254 284 c 0,153,154
 3259 300 3259 300 3277 351 c 2,155,-1
 3601 1271 l 2,156,157
 3607 1288 3607 1288 3623 1301 c 128,-1,158
 3639 1314 3639 1314 3662 1314 c 2,159,-1
 3809 1314 l 1,160,-1
 3316 0 l 1,161,-1
 3152 0 l 1,162,-1
 2659 1314 l 1,141,-1
2606 657 m 0,163,164
 2606 509 2606 509 2562.5 386 c 128,-1,165
 2519 263 2519 263 2439.5 174 c 128,-1,166
 2360 85 2360 85 2248.5 35.5 c 128,-1,167
 2137 -14 2137 -14 2001 -14 c 0,168,169
 1866 -14 1866 -14 1754 35.5 c 128,-1,170
 1642 85 1642 85 1562 174 c 128,-1,171
 1482 263 1482 263 1438 386 c 128,-1,172
 1394 509 1394 509 1394 657 c 0,173,174
 1394 804 1394 804 1438 927.5 c 128,-1,175
 1482 1051 1482 1051 1562 1140.5 c 128,-1,176
 1642 1230 1642 1230 1754 1279.5 c 128,-1,177
 1866 1329 1866 1329 2001 1329 c 0,178,179
 2137 1329 2137 1329 2248.5 1279.5 c 128,-1,180
 2360 1230 2360 1230 2439.5 1140.5 c 128,-1,181
 2519 1051 2519 1051 2562.5 927.5 c 128,-1,182
 2606 804 2606 804 2606 657 c 0,163,164
2420 657 m 256,183,184
 2420 777 2420 777 2390.5 872.5 c 128,-1,185
 2361 968 2361 968 2306.5 1034.5 c 128,-1,186
 2252 1101 2252 1101 2174.5 1136.5 c 128,-1,187
 2097 1172 2097 1172 2001 1172 c 256,188,189
 1905 1172 1905 1172 1827.5 1136.5 c 128,-1,190
 1750 1101 1750 1101 1695 1034.5 c 128,-1,191
 1640 968 1640 968 1610.5 872.5 c 128,-1,192
 1581 777 1581 777 1581 657 c 256,193,194
 1581 537 1581 537 1610.5 441.5 c 128,-1,195
 1640 346 1640 346 1695 279.5 c 128,-1,196
 1750 213 1750 213 1827.5 178 c 128,-1,197
 1905 143 1905 143 2001 143 c 256,198,199
 2097 143 2097 143 2174.5 178 c 128,-1,200
 2252 213 2252 213 2306.5 279.5 c 128,-1,201
 2361 346 2361 346 2390.5 441.5 c 128,-1,202
 2420 537 2420 537 2420 657 c 256,183,184
278 1308.5 m 128,-1,204
 290 1303 290 1303 305 1283 c 2,205,-1
 1019 300 l 1,206,207
 1017 324 1017 324 1015.5 347.5 c 128,-1,208
 1014 371 1014 371 1014 391 c 2,209,-1
 1014 1314 l 1,210,-1
 1174 1314 l 1,211,-1
 1174 0 l 1,212,-1
 1082 0 l 2,213,214
 1061 0 1061 0 1046.5 7 c 128,-1,215
 1032 14 1032 14 1018 32 c 2,216,-1
 304 1012 l 1,217,218
 306 989 306 989 307 968 c 128,-1,219
 308 947 308 947 308 928 c 2,220,-1
 308 0 l 1,221,-1
 148 0 l 1,222,-1
 148 1314 l 1,223,-1
 243 1314 l 1,224,203
 266 1314 266 1314 278 1308.5 c 128,-1,204
EndSplineSet
Validated: 1
EndChar

StartChar: o
Encoding: 111 111 41
Width: 6105
GlyphClass: 2
Flags: W
LayerCount: 2
Fore
SplineSet
4859 546 m 1,0,-1
 4859 0 l 1,1,-1
 4677 0 l 1,2,-1
 4677 1314 l 1,3,-1
 5037 1314 l 2,4,5
 5157 1314 5157 1314 5244.5 1288.5 c 128,-1,6
 5332 1263 5332 1263 5388.5 1215.5 c 128,-1,7
 5445 1168 5445 1168 5472 1100.5 c 128,-1,8
 5499 1033 5499 1033 5499 949 c 0,9,10
 5499 880 5499 880 5478.5 820 c 128,-1,11
 5458 760 5458 760 5419.5 712 c 128,-1,12
 5381 664 5381 664 5325 629.5 c 128,-1,13
 5269 595 5269 595 5198 577 c 1,14,15
 5215 566 5215 566 5230 552 c 0,16,17
 5248 536 5248 536 5259 520 c 2,18,-1
 5612 0 l 1,19,-1
 5450 0 l 2,20,21
 5402 0 5402 0 5377 37 c 2,22,-1
 5066 505 l 2,23,24
 5051 527 5051 527 5033.5 536.5 c 128,-1,25
 5016 546 5016 546 4981 546 c 2,26,-1
 4859 546 l 1,0,-1
4859 679 m 1,27,-1
 5030 679 l 2,28,29
 5102 679 5102 679 5156.5 697.5 c 128,-1,30
 5211 716 5211 716 5248 750 c 128,-1,31
 5285 784 5285 784 5303.5 831.5 c 128,-1,32
 5322 879 5322 879 5322 936 c 0,33,34
 5322 1171 5322 1171 5037 1171 c 2,35,-1
 4859 1171 l 1,36,-1
 4859 679 l 1,27,-1
4523 0 m 1,37,-1
 4382 0 l 2,38,39
 4358 0 4358 0 4344 12 c 0,40,41
 4327 26 4327 26 4321 42 c 2,42,-1
 4209 358 l 1,43,-1
 3667 358 l 1,44,-1
 3556 43 l 2,45,46
 3550 26 3550 26 3533.5 13 c 128,-1,47
 3517 0 3517 0 3494 0 c 2,48,-1
 3353 0 l 1,49,-1
 3846 1314 l 1,50,-1
 4031 1314 l 1,51,-1
 4523 0 l 1,37,-1
3713 488 m 1,52,-1
 4163 488 l 1,53,-1
 3977 1017 l 2,54,55
 3967 1041 3967 1041 3957 1073 c 128,-1,56
 3947 1105 3947 1105 3938 1142 c 1,57,58
 3928 1104 3928 1104 3918 1072 c 0,59,60
 3905 1034 3905 1034 3899 1016 c 2,61,-1
 3713 488 l 1,52,-1
3224 274 m 0,62,63
 3239 274 3239 274 3250 262 c 2,64,-1
 3322 184 l 1,65,66
 3251 90 3251 90 3147 38 c 128,-1,67
 3043 -14 3043 -14 2898 -14 c 0,68,69
 2770 -14 2770 -14 2666.5 35 c 128,-1,70
 2563 84 2563 84 2489.5 172.5 c 128,-1,71
 2416 261 2416 261 2376.5 384.5 c 128,-1,72
 2337 508 2337 508 2337 657 c 256,73,74
 2337 806 2337 806 2379 929.5 c 128,-1,75
 2421 1053 2421 1053 2497 1142 c 128,-1,76
 2573 1231 2573 1231 2679 1280 c 128,-1,77
 2785 1329 2785 1329 2913 1329 c 0,78,79
 3040 1329 3040 1329 3136.5 1284 c 128,-1,80
 3233 1239 3233 1239 3305 1162 c 1,81,-1
 3245 1078 l 2,82,83
 3238 1068 3238 1068 3230 1063 c 0,84,85
 3221 1057 3221 1057 3207 1057 c 0,86,87
 3190 1057 3190 1057 3169.5 1075 c 128,-1,88
 3149 1093 3149 1093 3116 1114.5 c 128,-1,89
 3083 1136 3083 1136 3034 1154 c 128,-1,90
 2985 1172 2985 1172 2912 1172 c 0,91,92
 2826 1172 2826 1172 2754.5 1137 c 128,-1,93
 2683 1102 2683 1102 2631.5 1035.5 c 128,-1,94
 2580 969 2580 969 2551.5 873.5 c 128,-1,95
 2523 778 2523 778 2523 657 c 0,96,97
 2523 535 2523 535 2553 439 c 128,-1,98
 2583 343 2583 343 2635 277 c 128,-1,99
 2687 211 2687 211 2757.5 176 c 128,-1,100
 2828 141 2828 141 2909 141 c 0,101,102
 2959 141 2959 141 2998.5 148 c 128,-1,103
 3038 155 3038 155 3071.5 169.5 c 128,-1,104
 3105 184 3105 184 3134 206 c 0,105,106
 3156 223 3156 223 3193 260 c 0,107,108
 3207 274 3207 274 3224 274 c 0,62,63
2153 1107 m 2,109,110
 2138 1079 2138 1079 2112 1079 c 0,111,112
 2097 1079 2097 1079 2076.5 1094.5 c 128,-1,113
 2056 1110 2056 1110 2026.5 1128.5 c 128,-1,114
 1997 1147 1997 1147 1955.5 1162.5 c 128,-1,115
 1914 1178 1914 1178 1856 1178 c 0,116,117
 1801 1178 1801 1178 1759.5 1162.5 c 128,-1,118
 1718 1147 1718 1147 1690.5 1119.5 c 128,-1,119
 1663 1092 1663 1092 1649 1055.5 c 128,-1,120
 1635 1019 1635 1019 1635 977 c 0,121,122
 1635 922 1635 922 1660.5 886 c 128,-1,123
 1686 850 1686 850 1727.5 824.5 c 128,-1,124
 1769 799 1769 799 1822 780 c 128,-1,125
 1875 761 1875 761 1930 741 c 128,-1,126
 1985 721 1985 721 2038 695.5 c 128,-1,127
 2091 670 2091 670 2132.5 631.5 c 128,-1,128
 2174 593 2174 593 2199.5 537 c 128,-1,129
 2225 481 2225 481 2225 400 c 0,130,131
 2225 313 2225 313 2197 237.5 c 128,-1,132
 2169 162 2169 162 2115.5 106 c 128,-1,133
 2062 50 2062 50 1984 18 c 128,-1,134
 1906 -14 1906 -14 1806 -14 c 0,135,136
 1685 -14 1685 -14 1583.5 32.5 c 128,-1,137
 1482 79 1482 79 1411 158 c 1,138,-1
 1464 244 l 2,139,140
 1471 255 1471 255 1481.5 261.5 c 128,-1,141
 1492 268 1492 268 1506 268 c 0,142,143
 1525 268 1525 268 1548.5 247.5 c 128,-1,144
 1572 227 1572 227 1607 202.5 c 128,-1,145
 1642 178 1642 178 1691.5 157.5 c 128,-1,146
 1741 137 1741 137 1810 137 c 0,147,148
 1868 137 1868 137 1913 154 c 128,-1,149
 1958 171 1958 171 1989.5 202 c 128,-1,150
 2021 233 2021 233 2037.5 276.5 c 128,-1,151
 2054 320 2054 320 2054 373 c 0,152,153
 2054 432 2054 432 2028.5 470 c 128,-1,154
 2003 508 2003 508 1961.5 533.5 c 128,-1,155
 1920 559 1920 559 1867 576.5 c 128,-1,156
 1814 594 1814 594 1759 613 c 128,-1,157
 1704 632 1704 632 1651 656.5 c 128,-1,158
 1598 681 1598 681 1556.5 721 c 128,-1,159
 1515 761 1515 761 1489.5 820 c 128,-1,160
 1464 879 1464 879 1464 967 c 0,161,162
 1464 1036 1464 1036 1490 1101.5 c 128,-1,163
 1516 1167 1516 1167 1565.5 1217.5 c 128,-1,164
 1615 1268 1615 1268 1687.5 1298.5 c 128,-1,165
 1760 1329 1760 1329 1854 1329 c 0,166,167
 1959 1329 1959 1329 2046.5 1294 c 128,-1,168
 2134 1259 2134 1259 2198 1192 c 1,169,-1
 2153 1107 l 2,109,110
1284 657 m 0,170,171
 1284 509 1284 509 1240.5 386 c 128,-1,172
 1197 263 1197 263 1117.5 174 c 128,-1,173
 1038 85 1038 85 926.5 35.5 c 128,-1,174
 815 -14 815 -14 679 -14 c 0,175,176
 544 -14 544 -14 432 35.5 c 128,-1,177
 320 85 320 85 240 174 c 128,-1,178
 160 263 160 263 116 386 c 128,-1,179
 72 509 72 509 72 657 c 0,180,181
 72 804 72 804 116 927.5 c 128,-1,182
 160 1051 160 1051 240 1140.5 c 128,-1,183
 320 1230 320 1230 432 1279.5 c 128,-1,184
 544 1329 544 1329 679 1329 c 0,185,186
 815 1329 815 1329 926.5 1279.5 c 128,-1,187
 1038 1230 1038 1230 1117.5 1140.5 c 128,-1,188
 1197 1051 1197 1051 1240.5 927.5 c 128,-1,189
 1284 804 1284 804 1284 657 c 0,170,171
1098 657 m 256,190,191
 1098 777 1098 777 1068.5 872.5 c 128,-1,192
 1039 968 1039 968 984.5 1034.5 c 128,-1,193
 930 1101 930 1101 852.5 1136.5 c 128,-1,194
 775 1172 775 1172 679 1172 c 256,195,196
 583 1172 583 1172 505.5 1136.5 c 128,-1,197
 428 1101 428 1101 373 1034.5 c 128,-1,198
 318 968 318 968 288.5 872.5 c 128,-1,199
 259 777 259 777 259 657 c 256,200,201
 259 537 259 537 288.5 441.5 c 128,-1,202
 318 346 318 346 373 279.5 c 128,-1,203
 428 213 428 213 505.5 178 c 128,-1,204
 583 143 583 143 679 143 c 256,205,206
 775 143 775 143 852.5 178 c 128,-1,207
 930 213 930 213 984.5 279.5 c 128,-1,208
 1039 346 1039 346 1068.5 441.5 c 128,-1,209
 1098 537 1098 537 1098 657 c 256,190,191
EndSplineSet
Validated: 1
EndChar

StartChar: p
Encoding: 112 112 42
Width: 4589
GlyphClass: 2
Flags: W
LayerCount: 2
Fore
SplineSet
4089 0 m 1,0,-1
 3948 0 l 2,1,2
 3924 0 3924 0 3910 12 c 0,3,4
 3893 26 3893 26 3887 42 c 2,5,-1
 3775 358 l 1,6,-1
 3233 358 l 1,7,-1
 3122 43 l 2,8,9
 3116 26 3116 26 3099.5 13 c 128,-1,10
 3083 0 3083 0 3060 0 c 2,11,-1
 2919 0 l 1,12,-1
 3412 1314 l 1,13,-1
 3597 1314 l 1,14,-1
 4089 0 l 1,0,-1
3279 488 m 1,15,-1
 3729 488 l 1,16,-1
 3543 1017 l 2,17,18
 3533 1041 3533 1041 3523 1073 c 128,-1,19
 3513 1105 3513 1105 3504 1142 c 1,20,21
 3494 1104 3494 1104 3484 1072 c 0,22,23
 3471 1034 3471 1034 3465 1016 c 2,24,-1
 3279 488 l 1,15,-1
2377 490 m 1,25,-1
 2377 0 l 1,26,-1
 2195 0 l 1,27,-1
 2195 1314 l 1,28,-1
 2572 1314 l 2,29,30
 2692 1314 2692 1314 2780.5 1285 c 128,-1,31
 2869 1256 2869 1256 2927 1203 c 128,-1,32
 2985 1150 2985 1150 3013.5 1074.5 c 128,-1,33
 3042 999 3042 999 3042 906 c 0,34,35
 3042 814 3042 814 3011.5 738 c 128,-1,36
 2981 662 2981 662 2921.5 606.5 c 128,-1,37
 2862 551 2862 551 2774.5 520.5 c 128,-1,38
 2687 490 2687 490 2572 490 c 2,39,-1
 2377 490 l 1,25,-1
2377 634 m 1,40,-1
 2572 634 l 2,41,42
 2642 634 2642 634 2696 654 c 128,-1,43
 2750 674 2750 674 2786.5 710 c 128,-1,44
 2823 746 2823 746 2841.5 796 c 128,-1,45
 2860 846 2860 846 2860 906 c 0,46,47
 2860 1032 2860 1032 2789 1101.5 c 128,-1,48
 2718 1171 2718 1171 2572 1171 c 2,49,-1
 2377 1171 l 1,50,-1
 2377 634 l 1,40,-1
2041 0 m 1,51,-1
 1900 0 l 2,52,53
 1876 0 1876 0 1862 12 c 0,54,55
 1845 26 1845 26 1839 42 c 2,56,-1
 1727 358 l 1,57,-1
 1185 358 l 1,58,-1
 1074 43 l 2,59,60
 1068 26 1068 26 1051.5 13 c 128,-1,61
 1035 0 1035 0 1012 0 c 2,62,-1
 871 0 l 1,63,-1
 1364 1314 l 1,64,-1
 1549 1314 l 1,65,-1
 2041 0 l 1,51,-1
1231 488 m 1,66,-1
 1681 488 l 1,67,-1
 1495 1017 l 2,68,69
 1485 1041 1485 1041 1475 1073 c 128,-1,70
 1465 1105 1465 1105 1456 1142 c 1,71,72
 1446 1104 1446 1104 1436 1072 c 0,73,74
 1423 1034 1423 1034 1417 1016 c 2,75,-1
 1231 488 l 1,66,-1
329 490 m 1,76,-1
 329 0 l 1,77,-1
 147 0 l 1,78,-1
 147 1314 l 1,79,-1
 524 1314 l 2,80,81
 644 1314 644 1314 732.5 1285 c 128,-1,82
 821 1256 821 1256 879 1203 c 128,-1,83
 937 1150 937 1150 965.5 1074.5 c 128,-1,84
 994 999 994 999 994 906 c 0,85,86
 994 814 994 814 963.5 738 c 128,-1,87
 933 662 933 662 873.5 606.5 c 128,-1,88
 814 551 814 551 726.5 520.5 c 128,-1,89
 639 490 639 490 524 490 c 2,90,-1
 329 490 l 1,76,-1
329 634 m 1,91,-1
 524 634 l 2,92,93
 594 634 594 634 648 654 c 128,-1,94
 702 674 702 674 738.5 710 c 128,-1,95
 775 746 775 746 793.5 796 c 128,-1,96
 812 846 812 846 812 906 c 0,97,98
 812 1032 812 1032 741 1101.5 c 128,-1,99
 670 1171 670 1171 524 1171 c 2,100,-1
 329 1171 l 1,101,-1
 329 634 l 1,91,-1
EndSplineSet
Validated: 1
EndChar

StartChar: q
Encoding: 113 113 43
Width: 7221
GlyphClass: 2
Flags: W
LayerCount: 2
Fore
SplineSet
5603 1314 m 1,0,-1
 5603 1166 l 1,1,-1
 5018 1166 l 1,2,-1
 5018 735 l 1,3,-1
 5489 735 l 1,4,-1
 5489 592 l 1,5,-1
 5018 592 l 1,6,-1
 5018 148 l 1,7,-1
 5603 148 l 1,8,-1
 5603 0 l 1,9,-1
 4835 0 l 1,10,-1
 4835 1314 l 1,11,-1
 5603 1314 l 1,0,-1
6620 274 m 0,12,13
 6635 274 6635 274 6646 262 c 2,14,-1
 6718 184 l 1,15,16
 6647 90 6647 90 6543 38 c 128,-1,17
 6439 -14 6439 -14 6294 -14 c 0,18,19
 6166 -14 6166 -14 6062.5 35 c 128,-1,20
 5959 84 5959 84 5885.5 172.5 c 128,-1,21
 5812 261 5812 261 5772.5 384.5 c 128,-1,22
 5733 508 5733 508 5733 657 c 256,23,24
 5733 806 5733 806 5775 929.5 c 128,-1,25
 5817 1053 5817 1053 5893 1142 c 128,-1,26
 5969 1231 5969 1231 6075 1280 c 128,-1,27
 6181 1329 6181 1329 6309 1329 c 0,28,29
 6436 1329 6436 1329 6532.5 1284 c 128,-1,30
 6629 1239 6629 1239 6701 1162 c 1,31,-1
 6641 1078 l 2,32,33
 6634 1068 6634 1068 6626 1063 c 0,34,35
 6617 1057 6617 1057 6603 1057 c 0,36,37
 6586 1057 6586 1057 6565.5 1075 c 128,-1,38
 6545 1093 6545 1093 6512 1114.5 c 128,-1,39
 6479 1136 6479 1136 6430 1154 c 128,-1,40
 6381 1172 6381 1172 6308 1172 c 0,41,42
 6222 1172 6222 1172 6150.5 1137 c 128,-1,43
 6079 1102 6079 1102 6027.5 1035.5 c 128,-1,44
 5976 969 5976 969 5947.5 873.5 c 128,-1,45
 5919 778 5919 778 5919 657 c 0,46,47
 5919 535 5919 535 5949 439 c 128,-1,48
 5979 343 5979 343 6031 277 c 128,-1,49
 6083 211 6083 211 6153.5 176 c 128,-1,50
 6224 141 6224 141 6305 141 c 0,51,52
 6355 141 6355 141 6394.5 148 c 128,-1,53
 6434 155 6434 155 6467.5 169.5 c 128,-1,54
 6501 184 6501 184 6530 206 c 0,55,56
 6552 223 6552 223 6589 260 c 0,57,58
 6603 274 6603 274 6620 274 c 0,12,13
3720 0 m 1,59,-1
 3720 1314 l 1,60,-1
 4121 1314 l 2,61,62
 4237 1314 4237 1314 4320.5 1290.5 c 128,-1,63
 4404 1267 4404 1267 4457.5 1222.5 c 128,-1,64
 4511 1178 4511 1178 4536 1114.5 c 128,-1,65
 4561 1051 4561 1051 4561 971 c 0,66,67
 4561 923 4561 923 4546.5 878 c 128,-1,68
 4532 833 4532 833 4503 795 c 128,-1,69
 4474 757 4474 757 4430 726 c 128,-1,70
 4386 695 4386 695 4326 676 c 1,71,72
 4463 649 4463 649 4532.5 573.5 c 128,-1,73
 4602 498 4602 498 4602 375 c 0,74,75
 4602 291 4602 291 4573 222 c 128,-1,76
 4544 153 4544 153 4488 103.5 c 128,-1,77
 4432 54 4432 54 4350.5 27 c 128,-1,78
 4269 0 4269 0 4164 0 c 2,79,-1
 3720 0 l 1,59,-1
3902 598 m 1,80,-1
 3902 144 l 1,81,-1
 4161 144 l 2,82,83
 4230 144 4230 144 4279.5 161.5 c 128,-1,84
 4329 179 4329 179 4360.5 210 c 128,-1,85
 4392 241 4392 241 4406.5 284.5 c 128,-1,86
 4421 328 4421 328 4421 379 c 0,87,88
 4421 480 4421 480 4357.5 539 c 128,-1,89
 4294 598 4294 598 4161 598 c 2,90,-1
 3902 598 l 1,80,-1
3902 726 m 1,91,-1
 4114 726 l 2,92,93
 4181 726 4181 726 4231 742.5 c 128,-1,94
 4281 759 4281 759 4314 788 c 128,-1,95
 4347 817 4347 817 4363.5 858 c 128,-1,96
 4380 899 4380 899 4380 949 c 0,97,98
 4380 1064 4380 1064 4317.5 1117.5 c 128,-1,99
 4255 1171 4255 1171 4121 1171 c 2,100,-1
 3902 1171 l 1,101,-1
 3902 726 l 1,91,-1
3489 1314 m 1,102,-1
 3489 1166 l 1,103,-1
 2904 1166 l 1,104,-1
 2904 735 l 1,105,-1
 3375 735 l 1,106,-1
 3375 592 l 1,107,-1
 2904 592 l 1,108,-1
 2904 148 l 1,109,-1
 3489 148 l 1,110,-1
 3489 0 l 1,111,-1
 2721 0 l 1,112,-1
 2721 1314 l 1,113,-1
 3489 1314 l 1,102,-1
1919 144 m 256,114,115
 1998 144 1998 144 2060.5 171.5 c 128,-1,116
 2123 199 2123 199 2166 248.5 c 128,-1,117
 2209 298 2209 298 2231.5 366 c 128,-1,118
 2254 434 2254 434 2254 516 c 2,119,-1
 2254 1314 l 1,120,-1
 2436 1314 l 1,121,-1
 2436 516 l 2,122,123
 2436 402 2436 402 2400 305 c 128,-1,124
 2364 208 2364 208 2297.5 137 c 128,-1,125
 2231 66 2231 66 2135 25.5 c 128,-1,126
 2039 -15 2039 -15 1919 -15 c 256,127,128
 1799 -15 1799 -15 1703.5 25.5 c 128,-1,129
 1608 66 1608 66 1541 137 c 128,-1,130
 1474 208 1474 208 1438 305 c 128,-1,131
 1402 402 1402 402 1402 516 c 2,132,-1
 1402 1314 l 1,133,-1
 1584 1314 l 1,134,-1
 1584 517 l 2,135,136
 1584 435 1584 435 1606.5 366.5 c 128,-1,137
 1629 298 1629 298 1672 248.5 c 128,-1,138
 1715 199 1715 199 1777.5 171.5 c 128,-1,139
 1840 144 1840 144 1919 144 c 256,114,115
1295 657 m 0,140,141
 1295 483 1295 483 1236 345.5 c 128,-1,142
 1177 208 1177 208 1071 118 c 1,143,-1
 1411 -271 l 1,144,-1
 1260 -271 l 2,145,146
 1227 -271 1227 -271 1201 -261 c 128,-1,147
 1175 -251 1175 -251 1153 -228 c 2,148,-1
 929 32 l 1,149,150
 820 -14 820 -14 690 -14 c 0,151,152
 555 -14 555 -14 443 35.5 c 128,-1,153
 331 85 331 85 251 174 c 128,-1,154
 171 263 171 263 127 386 c 128,-1,155
 83 509 83 509 83 657 c 0,156,157
 83 804 83 804 127 927.5 c 128,-1,158
 171 1051 171 1051 251 1140.5 c 128,-1,159
 331 1230 331 1230 443 1279.5 c 128,-1,160
 555 1329 555 1329 690 1329 c 0,161,162
 826 1329 826 1329 937.5 1279.5 c 128,-1,163
 1049 1230 1049 1230 1128.5 1140.5 c 128,-1,164
 1208 1051 1208 1051 1251.5 927.5 c 128,-1,165
 1295 804 1295 804 1295 657 c 0,140,141
1109 657 m 256,166,167
 1109 777 1109 777 1079.5 872.5 c 128,-1,168
 1050 968 1050 968 995.5 1034.5 c 128,-1,169
 941 1101 941 1101 863.5 1136.5 c 128,-1,170
 786 1172 786 1172 690 1172 c 256,171,172
 594 1172 594 1172 516.5 1136.5 c 128,-1,173
 439 1101 439 1101 384 1034.5 c 128,-1,174
 329 968 329 968 299.5 872.5 c 128,-1,175
 270 777 270 777 270 657 c 256,176,177
 270 537 270 537 299.5 441.5 c 128,-1,178
 329 346 329 346 384 279.5 c 128,-1,179
 439 213 439 213 516.5 178 c 128,-1,180
 594 143 594 143 690 143 c 256,181,182
 786 143 786 143 863.5 178 c 128,-1,183
 941 213 941 213 995.5 279.5 c 128,-1,184
 1050 346 1050 346 1079.5 441.5 c 128,-1,185
 1109 537 1109 537 1109 657 c 256,166,167
EndSplineSet
Validated: 1
EndChar

StartChar: r
Encoding: 114 114 44
Width: 6986
GlyphClass: 2
Flags: W
LayerCount: 2
Fore
SplineSet
6451 657 m 0,0,1
 6451 509 6451 509 6407.5 386 c 128,-1,2
 6364 263 6364 263 6284.5 174 c 128,-1,3
 6205 85 6205 85 6093.5 35.5 c 128,-1,4
 5982 -14 5982 -14 5846 -14 c 0,5,6
 5711 -14 5711 -14 5599 35.5 c 128,-1,7
 5487 85 5487 85 5407 174 c 128,-1,8
 5327 263 5327 263 5283 386 c 128,-1,9
 5239 509 5239 509 5239 657 c 0,10,11
 5239 804 5239 804 5283 927.5 c 128,-1,12
 5327 1051 5327 1051 5407 1140.5 c 128,-1,13
 5487 1230 5487 1230 5599 1279.5 c 128,-1,14
 5711 1329 5711 1329 5846 1329 c 0,15,16
 5982 1329 5982 1329 6093.5 1279.5 c 128,-1,17
 6205 1230 6205 1230 6284.5 1140.5 c 128,-1,18
 6364 1051 6364 1051 6407.5 927.5 c 128,-1,19
 6451 804 6451 804 6451 657 c 0,0,1
6265 657 m 256,20,21
 6265 777 6265 777 6235.5 872.5 c 128,-1,22
 6206 968 6206 968 6151.5 1034.5 c 128,-1,23
 6097 1101 6097 1101 6019.5 1136.5 c 128,-1,24
 5942 1172 5942 1172 5846 1172 c 256,25,26
 5750 1172 5750 1172 5672.5 1136.5 c 128,-1,27
 5595 1101 5595 1101 5540 1034.5 c 128,-1,28
 5485 968 5485 968 5455.5 872.5 c 128,-1,29
 5426 777 5426 777 5426 657 c 256,30,31
 5426 537 5426 537 5455.5 441.5 c 128,-1,32
 5485 346 5485 346 5540 279.5 c 128,-1,33
 5595 213 5595 213 5672.5 178 c 128,-1,34
 5750 143 5750 143 5846 143 c 256,35,36
 5942 143 5942 143 6019.5 178 c 128,-1,37
 6097 213 6097 213 6151.5 279.5 c 128,-1,38
 6206 346 6206 346 6235.5 441.5 c 128,-1,39
 6265 537 6265 537 6265 657 c 256,20,21
5112 1314 m 1,40,-1
 5112 1166 l 1,41,-1
 4527 1166 l 1,42,-1
 4527 735 l 1,43,-1
 4998 735 l 1,44,-1
 4998 592 l 1,45,-1
 4527 592 l 1,46,-1
 4527 148 l 1,47,-1
 5112 148 l 1,48,-1
 5112 0 l 1,49,-1
 4344 0 l 1,50,-1
 4344 1314 l 1,51,-1
 5112 1314 l 1,40,-1
3306.5 432 m 128,-1,53
 3317 408 3317 408 3327 383 c 1,54,55
 3338 409 3338 409 3348 433 c 0,56,57
 3356 455 3356 455 3370 479 c 2,58,-1
 3834 1284 l 2,59,60
 3846 1305 3846 1305 3860 1309.5 c 128,-1,61
 3874 1314 3874 1314 3898 1314 c 2,62,-1
 4032 1314 l 1,63,-1
 4032 0 l 1,64,-1
 3871 0 l 1,65,-1
 3871 959 l 2,66,67
 3871 979 3871 979 3872.5 1003.5 c 128,-1,68
 3874 1028 3874 1028 3876 1053 c 1,69,-1
 3407 229 l 2,70,71
 3384 188 3384 188 3341 188 c 2,72,-1
 3315 188 l 2,73,74
 3273 188 3273 188 3249 229 c 2,75,-1
 2769 1052 l 1,76,77
 2775 1002 2775 1002 2775 959 c 2,78,-1
 2775 0 l 1,79,-1
 2615 0 l 1,80,-1
 2615 1314 l 1,81,-1
 2749 1314 l 2,82,83
 2773 1314 2773 1314 2786 1310 c 0,84,85
 2800 1305 2800 1305 2813 1283 c 2,86,-1
 3283 479 l 1,87,52
 3296 456 3296 456 3306.5 432 c 128,-1,53
2376 657 m 0,88,89
 2376 509 2376 509 2332.5 386 c 128,-1,90
 2289 263 2289 263 2209.5 174 c 128,-1,91
 2130 85 2130 85 2018.5 35.5 c 128,-1,92
 1907 -14 1907 -14 1771 -14 c 0,93,94
 1636 -14 1636 -14 1524 35.5 c 128,-1,95
 1412 85 1412 85 1332 174 c 128,-1,96
 1252 263 1252 263 1208 386 c 128,-1,97
 1164 509 1164 509 1164 657 c 0,98,99
 1164 804 1164 804 1208 927.5 c 128,-1,100
 1252 1051 1252 1051 1332 1140.5 c 128,-1,101
 1412 1230 1412 1230 1524 1279.5 c 128,-1,102
 1636 1329 1636 1329 1771 1329 c 0,103,104
 1907 1329 1907 1329 2018.5 1279.5 c 128,-1,105
 2130 1230 2130 1230 2209.5 1140.5 c 128,-1,106
 2289 1051 2289 1051 2332.5 927.5 c 128,-1,107
 2376 804 2376 804 2376 657 c 0,88,89
2190 657 m 256,108,109
 2190 777 2190 777 2160.5 872.5 c 128,-1,110
 2131 968 2131 968 2076.5 1034.5 c 128,-1,111
 2022 1101 2022 1101 1944.5 1136.5 c 128,-1,112
 1867 1172 1867 1172 1771 1172 c 256,113,114
 1675 1172 1675 1172 1597.5 1136.5 c 128,-1,115
 1520 1101 1520 1101 1465 1034.5 c 128,-1,116
 1410 968 1410 968 1380.5 872.5 c 128,-1,117
 1351 777 1351 777 1351 657 c 256,118,119
 1351 537 1351 537 1380.5 441.5 c 128,-1,120
 1410 346 1410 346 1465 279.5 c 128,-1,121
 1520 213 1520 213 1597.5 178 c 128,-1,122
 1675 143 1675 143 1771 143 c 256,123,124
 1867 143 1867 143 1944.5 178 c 128,-1,125
 2022 213 2022 213 2076.5 279.5 c 128,-1,126
 2131 346 2131 346 2160.5 441.5 c 128,-1,127
 2190 537 2190 537 2190 657 c 256,108,109
329 546 m 1,128,-1
 329 0 l 1,129,-1
 147 0 l 1,130,-1
 147 1314 l 1,131,-1
 507 1314 l 2,132,133
 627 1314 627 1314 714.5 1288.5 c 128,-1,134
 802 1263 802 1263 858.5 1215.5 c 128,-1,135
 915 1168 915 1168 942 1100.5 c 128,-1,136
 969 1033 969 1033 969 949 c 0,137,138
 969 880 969 880 948.5 820 c 128,-1,139
 928 760 928 760 889.5 712 c 128,-1,140
 851 664 851 664 795 629.5 c 128,-1,141
 739 595 739 595 668 577 c 1,142,143
 685 566 685 566 700 552.5 c 128,-1,144
 715 539 715 539 729 520 c 2,145,-1
 1082 0 l 1,146,-1
 920 0 l 2,147,148
 873 0 873 0 847 37 c 2,149,-1
 536 505 l 2,150,151
 521 527 521 527 503.5 536.5 c 128,-1,152
 486 546 486 546 451 546 c 2,153,-1
 329 546 l 1,128,-1
329 679 m 1,154,-1
 500 679 l 2,155,156
 572 679 572 679 626.5 697.5 c 128,-1,157
 681 716 681 716 718 750 c 128,-1,158
 755 784 755 784 773.5 831.5 c 128,-1,159
 792 879 792 879 792 936 c 0,160,161
 792 1171 792 1171 507 1171 c 2,162,-1
 329 1171 l 1,163,-1
 329 679 l 1,154,-1
EndSplineSet
Validated: 1
EndChar

StartChar: s
Encoding: 115 115 45
Width: 6596
GlyphClass: 2
Flags: W
LayerCount: 2
Fore
SplineSet
3898 546 m 1,0,-1
 3898 0 l 1,1,-1
 3716 0 l 1,2,-1
 3716 1314 l 1,3,-1
 4076 1314 l 2,4,5
 4196 1314 4196 1314 4283.5 1288.5 c 128,-1,6
 4371 1263 4371 1263 4427.5 1215.5 c 128,-1,7
 4484 1168 4484 1168 4511 1100.5 c 128,-1,8
 4538 1033 4538 1033 4538 949 c 0,9,10
 4538 880 4538 880 4517.5 820 c 128,-1,11
 4497 760 4497 760 4458.5 712 c 128,-1,12
 4420 664 4420 664 4364 629.5 c 128,-1,13
 4308 595 4308 595 4237 577 c 1,14,15
 4254 566 4254 566 4269 552 c 0,16,17
 4287 536 4287 536 4298 520 c 2,18,-1
 4651 0 l 1,19,-1
 4489 0 l 2,20,21
 4441 0 4441 0 4416 37 c 2,22,-1
 4105 505 l 2,23,24
 4091 527 4091 527 4072 536 c 0,25,26
 4055 546 4055 546 4020 546 c 2,27,-1
 3898 546 l 1,0,-1
3898 679 m 1,28,-1
 4069 679 l 2,29,30
 4141 679 4141 679 4195.5 697.5 c 128,-1,31
 4250 716 4250 716 4287 750 c 128,-1,32
 4324 784 4324 784 4342.5 831.5 c 128,-1,33
 4361 879 4361 879 4361 936 c 0,34,35
 4361 1171 4361 1171 4076 1171 c 2,36,-1
 3898 1171 l 1,37,-1
 3898 679 l 1,28,-1
5859 0 m 1,38,-1
 5718 0 l 2,39,40
 5694 0 5694 0 5680 12 c 0,41,42
 5663 26 5663 26 5657 42 c 2,43,-1
 5545 358 l 1,44,-1
 5003 358 l 1,45,-1
 4892 43 l 2,46,47
 4886 26 4886 26 4869.5 13 c 128,-1,48
 4853 0 4853 0 4830 0 c 2,49,-1
 4689 0 l 1,50,-1
 5182 1314 l 1,51,-1
 5367 1314 l 1,52,-1
 5859 0 l 1,38,-1
5049 488 m 1,53,-1
 5499 488 l 1,54,-1
 5313 1017 l 2,55,56
 5303 1041 5303 1041 5293 1073 c 128,-1,57
 5283 1105 5283 1105 5274 1142 c 1,58,59
 5264 1104 5264 1104 5254 1072 c 0,60,61
 5241 1034 5241 1034 5235 1016 c 2,62,-1
 5049 488 l 1,53,-1
2786 546 m 1,63,-1
 2786 0 l 1,64,-1
 2604 0 l 1,65,-1
 2604 1314 l 1,66,-1
 2964 1314 l 2,67,68
 3084 1314 3084 1314 3171.5 1288.5 c 128,-1,69
 3259 1263 3259 1263 3315.5 1215.5 c 128,-1,70
 3372 1168 3372 1168 3399 1100.5 c 128,-1,71
 3426 1033 3426 1033 3426 949 c 0,72,73
 3426 880 3426 880 3405.5 820 c 128,-1,74
 3385 760 3385 760 3346.5 712 c 128,-1,75
 3308 664 3308 664 3252 629.5 c 128,-1,76
 3196 595 3196 595 3125 577 c 1,77,78
 3142 566 3142 566 3157 552 c 0,79,80
 3175 536 3175 536 3186 520 c 2,81,-1
 3539 0 l 1,82,-1
 3377 0 l 2,83,84
 3329 -0 3329 -0 3304 37 c 2,85,-1
 2993 505 l 2,86,87
 2979 527 2979 527 2960 536 c 0,88,89
 2943 546 2943 546 2908 546 c 2,90,-1
 2786 546 l 1,63,-1
2786 679 m 1,91,-1
 2957 679 l 2,92,93
 3029 679 3029 679 3083.5 697.5 c 128,-1,94
 3138 716 3138 716 3175 750 c 128,-1,95
 3212 784 3212 784 3230.5 831.5 c 128,-1,96
 3249 879 3249 879 3249 936 c 0,97,98
 3249 1171 3249 1171 2964 1171 c 2,99,-1
 2786 1171 l 1,100,-1
 2786 679 l 1,91,-1
2370 1314 m 1,101,-1
 2370 1166 l 1,102,-1
 1785 1166 l 1,103,-1
 1785 735 l 1,104,-1
 2256 735 l 1,105,-1
 2256 592 l 1,106,-1
 1785 592 l 1,107,-1
 1785 148 l 1,108,-1
 2370 148 l 1,109,-1
 2370 0 l 1,110,-1
 1602 0 l 1,111,-1
 1602 1314 l 1,112,-1
 2370 1314 l 1,101,-1
1290 0 m 1,113,-1
 1108 0 l 1,114,-1
 1108 1314 l 1,115,-1
 1290 1314 l 1,116,-1
 1290 0 l 1,113,-1
797 1107 m 2,117,118
 782 1079 782 1079 756 1079 c 0,119,120
 741 1079 741 1079 720.5 1094.5 c 128,-1,121
 700 1110 700 1110 670.5 1128.5 c 128,-1,122
 641 1147 641 1147 599.5 1162.5 c 128,-1,123
 558 1178 558 1178 500 1178 c 0,124,125
 445 1178 445 1178 403.5 1162.5 c 128,-1,126
 362 1147 362 1147 334.5 1119.5 c 128,-1,127
 307 1092 307 1092 293 1055.5 c 128,-1,128
 279 1019 279 1019 279 977 c 0,129,130
 279 922 279 922 304.5 886 c 128,-1,131
 330 850 330 850 371.5 824.5 c 128,-1,132
 413 799 413 799 466 780 c 128,-1,133
 519 761 519 761 574 741 c 128,-1,134
 629 721 629 721 682 695.5 c 128,-1,135
 735 670 735 670 776.5 631.5 c 128,-1,136
 818 593 818 593 843.5 537 c 128,-1,137
 869 481 869 481 869 400 c 0,138,139
 869 313 869 313 841 237.5 c 128,-1,140
 813 162 813 162 759.5 106 c 128,-1,141
 706 50 706 50 628 18 c 128,-1,142
 550 -14 550 -14 450 -14 c 0,143,144
 329 -14 329 -14 227.5 32.5 c 128,-1,145
 126 79 126 79 55 158 c 1,146,-1
 108 244 l 2,147,148
 115 255 115 255 125.5 261.5 c 128,-1,149
 136 268 136 268 150 268 c 0,150,151
 169 268 169 268 192.5 247.5 c 128,-1,152
 216 227 216 227 251 202.5 c 128,-1,153
 286 178 286 178 335.5 157.5 c 128,-1,154
 385 137 385 137 454 137 c 0,155,156
 512 137 512 137 557 154 c 128,-1,157
 602 171 602 171 633.5 202 c 128,-1,158
 665 233 665 233 681.5 276.5 c 128,-1,159
 698 320 698 320 698 373 c 0,160,161
 698 432 698 432 672.5 470 c 128,-1,162
 647 508 647 508 605.5 533.5 c 128,-1,163
 564 559 564 559 511 576.5 c 128,-1,164
 458 594 458 594 403 613 c 128,-1,165
 348 632 348 632 295 656.5 c 128,-1,166
 242 681 242 681 200.5 721 c 128,-1,167
 159 761 159 761 133.5 820 c 128,-1,168
 108 879 108 879 108 967 c 0,169,170
 108 1036 108 1036 134 1101.5 c 128,-1,171
 160 1167 160 1167 209.5 1217.5 c 128,-1,172
 259 1268 259 1268 331.5 1298.5 c 128,-1,173
 404 1329 404 1329 498 1329 c 0,174,175
 603 1329 603 1329 690.5 1294 c 128,-1,176
 778 1259 778 1259 842 1192 c 1,177,-1
 797 1107 l 2,117,118
EndSplineSet
Validated: 1
EndChar

StartChar: t
Encoding: 116 116 46
Width: 6456
GlyphClass: 2
Flags: W
LayerCount: 2
Fore
SplineSet
5921 657 m 0,0,1
 5921 509 5921 509 5877.5 386 c 128,-1,2
 5834 263 5834 263 5754.5 174 c 128,-1,3
 5675 85 5675 85 5563.5 35.5 c 128,-1,4
 5452 -14 5452 -14 5316 -14 c 0,5,6
 5181 -14 5181 -14 5069 35.5 c 128,-1,7
 4957 85 4957 85 4877 174 c 128,-1,8
 4797 263 4797 263 4753 386 c 128,-1,9
 4709 509 4709 509 4709 657 c 0,10,11
 4709 804 4709 804 4753 927.5 c 128,-1,12
 4797 1051 4797 1051 4877 1140.5 c 128,-1,13
 4957 1230 4957 1230 5069 1279.5 c 128,-1,14
 5181 1329 5181 1329 5316 1329 c 0,15,16
 5452 1329 5452 1329 5563.5 1279.5 c 128,-1,17
 5675 1230 5675 1230 5754.5 1140.5 c 128,-1,18
 5834 1051 5834 1051 5877.5 927.5 c 128,-1,19
 5921 804 5921 804 5921 657 c 0,0,1
5735 657 m 256,20,21
 5735 777 5735 777 5705.5 872.5 c 128,-1,22
 5676 968 5676 968 5621.5 1034.5 c 128,-1,23
 5567 1101 5567 1101 5489.5 1136.5 c 128,-1,24
 5412 1172 5412 1172 5316 1172 c 256,25,26
 5220 1172 5220 1172 5142.5 1136.5 c 128,-1,27
 5065 1101 5065 1101 5010 1034.5 c 128,-1,28
 4955 968 4955 968 4925.5 872.5 c 128,-1,29
 4896 777 4896 777 4896 657 c 256,30,31
 4896 537 4896 537 4925.5 441.5 c 128,-1,32
 4955 346 4955 346 5010 279.5 c 128,-1,33
 5065 213 5065 213 5142.5 178 c 128,-1,34
 5220 143 5220 143 5316 143 c 256,35,36
 5412 143 5412 143 5489.5 178 c 128,-1,37
 5567 213 5567 213 5621.5 279.5 c 128,-1,38
 5676 346 5676 346 5705.5 441.5 c 128,-1,39
 5735 537 5735 537 5735 657 c 256,20,21
4325.5 21 m 128,-1,41
 4217 -14 4217 -14 4090 -14 c 0,42,43
 3937 -14 3937 -14 3813.5 35 c 128,-1,44
 3690 84 3690 84 3603 172.5 c 128,-1,45
 3516 261 3516 261 3469 384.5 c 128,-1,46
 3422 508 3422 508 3422 657 c 0,47,48
 3422 807 3422 807 3467.5 930.5 c 128,-1,49
 3513 1054 3513 1054 3597.5 1142.5 c 128,-1,50
 3682 1231 3682 1231 3802 1280 c 128,-1,51
 3922 1329 3922 1329 4071 1329 c 0,52,53
 4147 1329 4147 1329 4211.5 1317.5 c 128,-1,54
 4276 1306 4276 1306 4331 1284.5 c 128,-1,55
 4386 1263 4386 1263 4432.5 1232 c 128,-1,56
 4479 1201 4479 1201 4519 1163 c 1,57,-1
 4468 1081 l 2,58,59
 4456 1061 4456 1061 4436 1056 c 128,-1,60
 4416 1051 4416 1051 4393 1065 c 0,61,62
 4370 1078 4370 1078 4342.5 1096.5 c 128,-1,63
 4315 1115 4315 1115 4277 1131.5 c 128,-1,64
 4239 1148 4239 1148 4187 1160 c 128,-1,65
 4135 1172 4135 1172 4064 1172 c 0,66,67
 3960 1172 3960 1172 3875.5 1136 c 128,-1,68
 3791 1100 3791 1100 3731.5 1033 c 128,-1,69
 3672 966 3672 966 3640 870.5 c 128,-1,70
 3608 775 3608 775 3608 657 c 0,71,72
 3608 534 3608 534 3641.5 436.5 c 128,-1,73
 3675 339 3675 339 3737.5 271.5 c 128,-1,74
 3800 204 3800 204 3888 168.5 c 128,-1,75
 3976 133 3976 133 4085 133 c 0,76,77
 4169 133 4169 133 4235 152.5 c 128,-1,78
 4301 172 4301 172 4365 207 c 1,79,-1
 4365 495 l 1,80,-1
 4176 495 l 2,81,82
 4158 495 4158 495 4147 505 c 128,-1,83
 4136 515 4136 515 4136 530 c 2,84,-1
 4136 633 l 1,85,-1
 4530 633 l 1,86,-1
 4530 127 l 1,87,40
 4434 56 4434 56 4325.5 21 c 128,-1,41
2301 1308 m 0,88,89
 2314 1303 2314 1303 2328 1283 c 2,90,-1
 3042 300 l 1,91,92
 3040 324 3040 324 3038.5 347.5 c 128,-1,93
 3037 371 3037 371 3037 391 c 2,94,-1
 3037 1314 l 1,95,-1
 3197 1314 l 1,96,-1
 3197 0 l 1,97,-1
 3105 0 l 2,98,99
 3084 0 3084 0 3070 7 c 0,100,101
 3052 16 3052 16 3041 32 c 2,102,-1
 2327 1012 l 1,103,104
 2329 989 2329 989 2330 968 c 128,-1,105
 2331 947 2331 947 2331 928 c 2,106,-1
 2331 0 l 1,107,-1
 2171 0 l 1,108,-1
 2171 1314 l 1,109,-1
 2266 1314 l 1,110,111
 2289 1314 2289 1314 2301 1308 c 0,88,89
2016 0 m 1,112,-1
 1875 0 l 2,113,114
 1851 0 1851 0 1836 12 c 0,115,116
 1820 26 1820 26 1814 42 c 2,117,-1
 1702 358 l 1,118,-1
 1160 358 l 1,119,-1
 1049 43 l 2,120,121
 1043 26 1043 26 1026.5 13 c 128,-1,122
 1010 0 1010 0 987 0 c 2,123,-1
 846 0 l 1,124,-1
 1339 1314 l 1,125,-1
 1524 1314 l 1,126,-1
 2016 0 l 1,112,-1
1206 488 m 1,127,-1
 1656 488 l 1,128,-1
 1470 1017 l 2,129,130
 1460 1041 1460 1041 1450 1073 c 128,-1,131
 1440 1105 1440 1105 1431 1142 c 1,132,133
 1421 1104 1421 1104 1411 1072 c 0,134,135
 1398 1034 1398 1034 1392 1016 c 2,136,-1
 1206 488 l 1,127,-1
974 1314 m 1,137,-1
 974 1162 l 1,138,-1
 591 1162 l 1,139,-1
 591 0 l 1,140,-1
 408 0 l 1,141,-1
 408 1162 l 1,142,-1
 24 1162 l 1,143,-1
 24 1314 l 1,144,-1
 974 1314 l 1,137,-1
EndSplineSet
Validated: 1
EndChar

StartChar: u
Encoding: 117 117 47
Width: 8953
GlyphClass: 2
Flags: W
LayerCount: 2
Fore
SplineSet
7419.5 432 m 128,-1,1
 7430 408 7430 408 7440 383 c 1,2,3
 7451 409 7451 409 7460 433 c 0,4,5
 7471 459 7471 459 7483 479 c 2,6,-1
 7947 1284 l 2,7,8
 7959 1305 7959 1305 7973 1309.5 c 128,-1,9
 7987 1314 7987 1314 8011 1314 c 2,10,-1
 8145 1314 l 1,11,-1
 8145 0 l 1,12,-1
 7984 0 l 1,13,-1
 7984 959 l 2,14,15
 7984 979 7984 979 7985.5 1003.5 c 128,-1,16
 7987 1028 7987 1028 7989 1053 c 1,17,-1
 7520 229 l 2,18,19
 7497 188 7497 188 7454 188 c 2,20,-1
 7428 188 l 2,21,22
 7386 188 7386 188 7362 229 c 2,23,-1
 6882 1052 l 1,24,25
 6888 1002 6888 1002 6888 959 c 2,26,-1
 6888 0 l 1,27,-1
 6728 0 l 1,28,-1
 6728 1314 l 1,29,-1
 6862 1314 l 2,30,31
 6886 1314 6886 1314 6900 1310 c 0,32,33
 6913 1305 6913 1305 6926 1283 c 2,34,-1
 7396 479 l 1,35,0
 7409 456 7409 456 7419.5 432 c 128,-1,1
5778 546 m 1,36,-1
 5778 0 l 1,37,-1
 5596 0 l 1,38,-1
 5596 1314 l 1,39,-1
 5956 1314 l 2,40,41
 6078 1314 6078 1314 6164 1288 c 0,42,43
 6253 1261 6253 1261 6308 1216 c 0,44,45
 6364 1168 6364 1168 6391 1100.5 c 0,46,47
 6418 1033 6418 1033 6418 949 c 0,48,49
 6418 875 6418 875 6398 820 c 0,50,51
 6377 763 6377 763 6338 712 c 0,52,53
 6302 665 6302 665 6244 630 c 0,54,55
 6185 593 6185 593 6117 577 c 1,56,57
 6134 566 6134 566 6149 552 c 0,58,59
 6167 536 6167 536 6178 520 c 2,60,-1
 6531 0 l 1,61,-1
 6369 0 l 2,62,63
 6321 0 6321 0 6296 37 c 2,64,-1
 5985 505 l 2,65,66
 5970 528 5970 528 5952 536 c 0,67,68
 5935 546 5935 546 5900 546 c 2,69,-1
 5778 546 l 1,36,-1
5778 679 m 1,70,-1
 5949 679 l 2,71,72
 6022 679 6022 679 6076 698 c 0,73,74
 6130 716 6130 716 6167 750 c 128,-1,75
 6204 784 6204 784 6222 832 c 0,76,77
 6241 881 6241 881 6241 936 c 0,78,79
 6241 1171 6241 1171 5956 1171 c 2,80,-1
 5778 1171 l 1,81,-1
 5778 679 l 1,70,-1
5377 657 m 0,82,83
 5377 509 5377 509 5333.5 386 c 128,-1,84
 5290 263 5290 263 5210.5 174 c 128,-1,85
 5131 85 5131 85 5019.5 35.5 c 128,-1,86
 4908 -14 4908 -14 4772 -14 c 0,87,88
 4637 -14 4637 -14 4525 35.5 c 128,-1,89
 4413 85 4413 85 4333 174 c 128,-1,90
 4253 263 4253 263 4209 386 c 128,-1,91
 4165 509 4165 509 4165 657 c 0,92,93
 4165 804 4165 804 4209 927.5 c 128,-1,94
 4253 1051 4253 1051 4333 1140.5 c 128,-1,95
 4413 1230 4413 1230 4525 1279.5 c 128,-1,96
 4637 1329 4637 1329 4772 1329 c 0,97,98
 4908 1329 4908 1329 5019.5 1279.5 c 128,-1,99
 5131 1230 5131 1230 5210.5 1140.5 c 128,-1,100
 5290 1051 5290 1051 5333.5 927.5 c 128,-1,101
 5377 804 5377 804 5377 657 c 0,82,83
5191 657 m 256,102,103
 5191 777 5191 777 5161.5 872.5 c 128,-1,104
 5132 968 5132 968 5077.5 1034.5 c 128,-1,105
 5023 1101 5023 1101 4945.5 1136.5 c 128,-1,106
 4868 1172 4868 1172 4772 1172 c 256,107,108
 4676 1172 4676 1172 4598.5 1136.5 c 128,-1,109
 4521 1101 4521 1101 4466 1034.5 c 128,-1,110
 4411 968 4411 968 4381.5 872.5 c 128,-1,111
 4352 777 4352 777 4352 657 c 256,112,113
 4352 537 4352 537 4381.5 441.5 c 128,-1,114
 4411 346 4411 346 4466 279.5 c 128,-1,115
 4521 213 4521 213 4598.5 178 c 128,-1,116
 4676 143 4676 143 4772 143 c 256,117,118
 4868 143 4868 143 4945.5 178 c 128,-1,119
 5023 213 5023 213 5077.5 279.5 c 128,-1,120
 5132 346 5132 346 5161.5 441.5 c 128,-1,121
 5191 537 5191 537 5191 657 c 256,102,103
4034 1314 m 1,122,-1
 4034 1166 l 1,123,-1
 3473 1166 l 1,124,-1
 3473 711 l 1,125,-1
 3950 711 l 1,126,-1
 3950 563 l 1,127,-1
 3473 563 l 1,128,-1
 3473 0 l 1,129,-1
 3290 0 l 1,130,-1
 3290 1314 l 1,131,-1
 4034 1314 l 1,122,-1
2985 0 m 1,132,-1
 2803 0 l 1,133,-1
 2803 1314 l 1,134,-1
 2985 1314 l 1,135,-1
 2985 0 l 1,132,-1
1592 1308 m 0,136,137
 1605 1303 1605 1303 1619 1283 c 2,138,-1
 2333 300 l 1,139,140
 2331 324 2331 324 2329.5 347.5 c 128,-1,141
 2328 371 2328 371 2328 391 c 2,142,-1
 2328 1314 l 1,143,-1
 2488 1314 l 1,144,-1
 2488 0 l 1,145,-1
 2396 0 l 2,146,147
 2375 0 2375 0 2360 7 c 0,148,149
 2345 15 2345 15 2332 32 c 2,150,-1
 1618 1012 l 1,151,152
 1620 989 1620 989 1621 968 c 128,-1,153
 1622 947 1622 947 1622 928 c 2,154,-1
 1622 0 l 1,155,-1
 1462 0 l 1,156,-1
 1462 1314 l 1,157,-1
 1557 1314 l 1,158,159
 1580 1314 1580 1314 1592 1308 c 0,136,137
657 144 m 256,160,161
 736 144 736 144 798.5 171.5 c 128,-1,162
 861 199 861 199 904 248.5 c 128,-1,163
 947 298 947 298 969.5 366 c 128,-1,164
 992 434 992 434 992 516 c 2,165,-1
 992 1314 l 1,166,-1
 1174 1314 l 1,167,-1
 1174 516 l 2,168,169
 1174 402 1174 402 1138 305 c 128,-1,170
 1102 208 1102 208 1035.5 137 c 128,-1,171
 969 66 969 66 873 25.5 c 128,-1,172
 777 -15 777 -15 657 -15 c 256,173,174
 537 -15 537 -15 441.5 25.5 c 128,-1,175
 346 66 346 66 279 137 c 128,-1,176
 212 208 212 208 176 305 c 128,-1,177
 140 402 140 402 140 516 c 2,178,-1
 140 1314 l 1,179,-1
 322 1314 l 1,180,-1
 322 517 l 2,181,182
 322 435 322 435 344.5 366.5 c 128,-1,183
 367 298 367 298 410 248.5 c 128,-1,184
 453 199 453 199 515.5 171.5 c 128,-1,185
 578 144 578 144 657 144 c 256,160,161
EndSplineSet
Validated: 1
EndChar

StartChar: v
Encoding: 118 118 48
Width: 6573
GlyphClass: 2
Flags: W
LayerCount: 2
Fore
SplineSet
5327 546 m 1,0,-1
 5327 0 l 1,1,-1
 5145 0 l 1,2,-1
 5145 1314 l 1,3,-1
 5505 1314 l 2,4,5
 5625 1314 5625 1314 5712.5 1288.5 c 128,-1,6
 5800 1263 5800 1263 5856.5 1215.5 c 128,-1,7
 5913 1168 5913 1168 5940 1100.5 c 128,-1,8
 5967 1033 5967 1033 5967 949 c 0,9,10
 5967 880 5967 880 5946.5 820 c 128,-1,11
 5926 760 5926 760 5887.5 712 c 128,-1,12
 5849 664 5849 664 5793 629.5 c 128,-1,13
 5737 595 5737 595 5666 577 c 1,14,15
 5683 566 5683 566 5698 552 c 0,16,17
 5716 536 5716 536 5727 520 c 2,18,-1
 6080 0 l 1,19,-1
 5918 0 l 2,20,21
 5870 0 5870 0 5845 37 c 2,22,-1
 5534 505 l 2,23,24
 5519 527 5519 527 5501.5 536.5 c 128,-1,25
 5484 546 5484 546 5449 546 c 2,26,-1
 5327 546 l 1,0,-1
5327 679 m 1,27,-1
 5498 679 l 2,28,29
 5570 679 5570 679 5624.5 697.5 c 128,-1,30
 5679 716 5679 716 5716 750 c 128,-1,31
 5753 784 5753 784 5771.5 831.5 c 128,-1,32
 5790 879 5790 879 5790 936 c 0,33,34
 5790 1171 5790 1171 5505 1171 c 2,35,-1
 5327 1171 l 1,36,-1
 5327 679 l 1,27,-1
4926 657 m 0,37,38
 4926 509 4926 509 4882.5 386 c 128,-1,39
 4839 263 4839 263 4759.5 174 c 128,-1,40
 4680 85 4680 85 4568.5 35.5 c 128,-1,41
 4457 -14 4457 -14 4321 -14 c 0,42,43
 4186 -14 4186 -14 4074 35.5 c 128,-1,44
 3962 85 3962 85 3882 174 c 128,-1,45
 3802 263 3802 263 3758 386 c 128,-1,46
 3714 509 3714 509 3714 657 c 0,47,48
 3714 804 3714 804 3758 927.5 c 128,-1,49
 3802 1051 3802 1051 3882 1140.5 c 128,-1,50
 3962 1230 3962 1230 4074 1279.5 c 128,-1,51
 4186 1329 4186 1329 4321 1329 c 0,52,53
 4457 1329 4457 1329 4568.5 1279.5 c 128,-1,54
 4680 1230 4680 1230 4759.5 1140.5 c 128,-1,55
 4839 1051 4839 1051 4882.5 927.5 c 128,-1,56
 4926 804 4926 804 4926 657 c 0,37,38
4740 657 m 256,57,58
 4740 777 4740 777 4710.5 872.5 c 128,-1,59
 4681 968 4681 968 4626.5 1034.5 c 128,-1,60
 4572 1101 4572 1101 4494.5 1136.5 c 128,-1,61
 4417 1172 4417 1172 4321 1172 c 256,62,63
 4225 1172 4225 1172 4147.5 1136.5 c 128,-1,64
 4070 1101 4070 1101 4015 1034.5 c 128,-1,65
 3960 968 3960 968 3930.5 872.5 c 128,-1,66
 3901 777 3901 777 3901 657 c 256,67,68
 3901 537 3901 537 3930.5 441.5 c 128,-1,69
 3960 346 3960 346 4015 279.5 c 128,-1,70
 4070 213 4070 213 4147.5 178 c 128,-1,71
 4225 143 4225 143 4321 143 c 256,72,73
 4417 143 4417 143 4494.5 178 c 128,-1,74
 4572 213 4572 213 4626.5 279.5 c 128,-1,75
 4681 346 4681 346 4710.5 441.5 c 128,-1,76
 4740 537 4740 537 4740 657 c 256,57,58
3676 1314 m 1,77,-1
 3676 1162 l 1,78,-1
 3293 1162 l 1,79,-1
 3293 0 l 1,80,-1
 3110 0 l 1,81,-1
 3110 1162 l 1,82,-1
 2726 1162 l 1,83,-1
 2726 1314 l 1,84,-1
 3676 1314 l 1,77,-1
2571 274 m 0,85,86
 2586 274 2586 274 2597 262 c 2,87,-1
 2669 184 l 1,88,89
 2598 90 2598 90 2494 38 c 128,-1,90
 2390 -14 2390 -14 2245 -14 c 0,91,92
 2117 -14 2117 -14 2013.5 35 c 128,-1,93
 1910 84 1910 84 1836.5 172.5 c 128,-1,94
 1763 261 1763 261 1723.5 384.5 c 128,-1,95
 1684 508 1684 508 1684 657 c 256,96,97
 1684 806 1684 806 1726 929.5 c 128,-1,98
 1768 1053 1768 1053 1844 1142 c 128,-1,99
 1920 1231 1920 1231 2026 1280 c 128,-1,100
 2132 1329 2132 1329 2260 1329 c 0,101,102
 2387 1329 2387 1329 2483.5 1284 c 128,-1,103
 2580 1239 2580 1239 2652 1162 c 1,104,-1
 2592 1078 l 2,105,106
 2585 1068 2585 1068 2577 1063 c 0,107,108
 2568 1057 2568 1057 2554 1057 c 0,109,110
 2537 1057 2537 1057 2516.5 1075 c 128,-1,111
 2496 1093 2496 1093 2463 1114.5 c 128,-1,112
 2430 1136 2430 1136 2381 1154 c 128,-1,113
 2332 1172 2332 1172 2259 1172 c 0,114,115
 2173 1172 2173 1172 2101.5 1137 c 128,-1,116
 2030 1102 2030 1102 1978.5 1035.5 c 128,-1,117
 1927 969 1927 969 1898.5 873.5 c 128,-1,118
 1870 778 1870 778 1870 657 c 0,119,120
 1870 535 1870 535 1900 439 c 128,-1,121
 1930 343 1930 343 1982 277 c 128,-1,122
 2034 211 2034 211 2104.5 176 c 128,-1,123
 2175 141 2175 141 2256 141 c 0,124,125
 2306 141 2306 141 2345.5 148 c 128,-1,126
 2385 155 2385 155 2418.5 169.5 c 128,-1,127
 2452 184 2452 184 2482 206 c 0,128,129
 2503 223 2503 223 2540 260 c 0,130,131
 2554 274 2554 274 2571 274 c 0,85,86
1511 0 m 1,132,-1
 1329 0 l 1,133,-1
 1329 1314 l 1,134,-1
 1511 1314 l 1,135,-1
 1511 0 l 1,132,-1
6 1314 m 1,136,-1
 153 1314 l 2,137,138
 177 1314 177 1314 192 1302 c 128,-1,139
 207 1290 207 1290 214 1272 c 2,140,-1
 539 351 l 2,141,142
 551 320 551 320 562.5 283.5 c 128,-1,143
 574 247 574 247 583 207 c 1,144,145
 591 247 591 247 601.5 283.5 c 128,-1,146
 612 320 612 320 624 351 c 2,147,-1
 948 1271 l 2,148,149
 954 1288 954 1288 970 1301 c 128,-1,150
 986 1314 986 1314 1009 1314 c 2,151,-1
 1156 1314 l 1,152,-1
 663 0 l 1,153,-1
 499 0 l 1,154,-1
 6 1314 l 1,136,-1
EndSplineSet
Validated: 1
EndChar

StartChar: w
Encoding: 119 119 49
Width: 8024
GlyphClass: 2
Flags: W
LayerCount: 2
Fore
SplineSet
7153 525 m 1,0,-1
 7153 0 l 1,1,-1
 6971 0 l 1,2,-1
 6971 523 l 1,3,-1
 6563 1314 l 1,4,-1
 6723 1314 l 2,5,6
 6746 1314 6746 1314 6760 1302 c 0,7,8
 6778 1288 6778 1288 6785 1272 c 2,9,-1
 7010 765 l 2,10,11
 7027 734 7027 734 7040 706.5 c 128,-1,12
 7053 679 7053 679 7063 652 c 1,13,14
 7073 679 7073 679 7085.5 706.5 c 128,-1,15
 7098 734 7098 734 7115 764 c 2,16,-1
 7338 1272 l 2,17,18
 7344 1285 7344 1285 7361 1300 c 0,19,20
 7376 1314 7376 1314 7399 1314 c 2,21,-1
 7561 1314 l 1,22,-1
 7153 525 l 1,0,-1
6476 1314 m 1,23,-1
 6476 1166 l 1,24,-1
 5891 1166 l 1,25,-1
 5891 735 l 1,26,-1
 6362 735 l 1,27,-1
 6362 592 l 1,28,-1
 5891 592 l 1,29,-1
 5891 148 l 1,30,-1
 6476 148 l 1,31,-1
 6476 0 l 1,32,-1
 5708 0 l 1,33,-1
 5708 1314 l 1,34,-1
 6476 1314 l 1,23,-1
4834 740 m 1,35,-1
 4886 740 l 2,36,37
 4915 740 4915 740 4934 749 c 128,-1,38
 4953 758 4953 758 4967 778 c 2,39,-1
 5306 1272 l 2,40,41
 5320 1293 5320 1293 5344 1304 c 0,42,43
 5363 1314 5363 1314 5392 1314 c 2,44,-1
 5548 1314 l 1,45,-1
 5148 750 l 2,46,47
 5118 708 5118 708 5081 689 c 1,48,49
 5133 671 5133 671 5164 624 c 2,50,-1
 5577 0 l 1,51,-1
 5417 0 l 2,52,53
 5384 0 5384 0 5368 10 c 0,54,55
 5348 24 5348 24 5339 38 c 2,56,-1
 4991 558 l 2,57,58
 4975 581 4975 581 4956.5 590.5 c 128,-1,59
 4938 600 4938 600 4901 600 c 2,60,-1
 4834 600 l 1,61,-1
 4834 0 l 1,62,-1
 4652 0 l 1,63,-1
 4652 1314 l 1,64,-1
 4834 1314 l 1,65,-1
 4834 740 l 1,35,-1
4411 1107 m 2,66,67
 4396 1079 4396 1079 4370 1079 c 0,68,69
 4355 1079 4355 1079 4334.5 1094.5 c 128,-1,70
 4314 1110 4314 1110 4284.5 1128.5 c 128,-1,71
 4255 1147 4255 1147 4213.5 1162.5 c 128,-1,72
 4172 1178 4172 1178 4114 1178 c 0,73,74
 4059 1178 4059 1178 4017.5 1162.5 c 128,-1,75
 3976 1147 3976 1147 3948.5 1119.5 c 128,-1,76
 3921 1092 3921 1092 3907 1055.5 c 128,-1,77
 3893 1019 3893 1019 3893 977 c 0,78,79
 3893 922 3893 922 3918.5 886 c 128,-1,80
 3944 850 3944 850 3985.5 824.5 c 128,-1,81
 4027 799 4027 799 4080 780 c 128,-1,82
 4133 761 4133 761 4188 741 c 128,-1,83
 4243 721 4243 721 4296 695.5 c 128,-1,84
 4349 670 4349 670 4390.5 631.5 c 128,-1,85
 4432 593 4432 593 4457.5 537 c 128,-1,86
 4483 481 4483 481 4483 400 c 0,87,88
 4483 313 4483 313 4455 237.5 c 128,-1,89
 4427 162 4427 162 4373.5 106 c 128,-1,90
 4320 50 4320 50 4242 18 c 128,-1,91
 4164 -14 4164 -14 4064 -14 c 0,92,93
 3943 -14 3943 -14 3841.5 32.5 c 128,-1,94
 3740 79 3740 79 3669 158 c 1,95,-1
 3722 244 l 2,96,97
 3729 255 3729 255 3739.5 261.5 c 128,-1,98
 3750 268 3750 268 3764 268 c 0,99,100
 3783 268 3783 268 3806.5 247.5 c 128,-1,101
 3830 227 3830 227 3865 202.5 c 128,-1,102
 3900 178 3900 178 3949.5 157.5 c 128,-1,103
 3999 137 3999 137 4068 137 c 0,104,105
 4126 137 4126 137 4171 154 c 128,-1,106
 4216 171 4216 171 4247.5 202 c 128,-1,107
 4279 233 4279 233 4295.5 276.5 c 128,-1,108
 4312 320 4312 320 4312 373 c 0,109,110
 4312 432 4312 432 4286.5 470 c 128,-1,111
 4261 508 4261 508 4219.5 533.5 c 128,-1,112
 4178 559 4178 559 4125 576.5 c 128,-1,113
 4072 594 4072 594 4017 613 c 128,-1,114
 3962 632 3962 632 3909 656.5 c 128,-1,115
 3856 681 3856 681 3814.5 721 c 128,-1,116
 3773 761 3773 761 3747.5 820 c 128,-1,117
 3722 879 3722 879 3722 967 c 0,118,119
 3722 1036 3722 1036 3748 1101.5 c 128,-1,120
 3774 1167 3774 1167 3823.5 1217.5 c 128,-1,121
 3873 1268 3873 1268 3945.5 1298.5 c 128,-1,122
 4018 1329 4018 1329 4112 1329 c 0,123,124
 4217 1329 4217 1329 4304.5 1294 c 128,-1,125
 4392 1259 4392 1259 4456 1192 c 1,126,-1
 4411 1107 l 2,66,67
3447 0 m 1,127,-1
 3265 0 l 1,128,-1
 3265 1314 l 1,129,-1
 3447 1314 l 1,130,-1
 3447 0 l 1,127,-1
2958 0 m 1,131,-1
 2775 0 l 1,132,-1
 2775 596 l 1,133,-1
 2145 596 l 1,134,-1
 2145 0 l 1,135,-1
 1962 0 l 1,136,-1
 1962 1314 l 1,137,-1
 2145 1314 l 1,138,-1
 2145 729 l 1,139,-1
 2775 729 l 1,140,-1
 2775 1314 l 1,141,-1
 2958 1314 l 1,142,-1
 2958 0 l 1,131,-1
12 1314 m 1,143,-1
 165 1314 l 2,144,145
 188 1314 188 1314 204.5 1302.5 c 128,-1,146
 221 1291 221 1291 226 1272 c 2,147,-1
 481 365 l 2,148,149
 495 317 495 317 507 253 c 1,150,151
 513 284 513 284 520 312.5 c 128,-1,152
 527 341 527 341 535 366 c 2,153,-1
 828 1271 l 2,154,155
 833 1288 833 1288 850 1301 c 128,-1,156
 867 1314 867 1314 890 1314 c 2,157,-1
 943 1314 l 2,158,159
 967 1314 967 1314 982.5 1302.5 c 128,-1,160
 998 1291 998 1291 1004 1272 c 2,161,-1
 1297 365 l 2,162,163
 1305 341 1305 341 1312 313.5 c 128,-1,164
 1319 286 1319 286 1325 256 c 1,165,166
 1331 286 1331 286 1337 314 c 128,-1,167
 1343 342 1343 342 1350 365 c 2,168,-1
 1604 1271 l 2,169,170
 1609 1288 1609 1288 1626.5 1301 c 128,-1,171
 1644 1314 1644 1314 1667 1314 c 2,172,-1
 1810 1314 l 1,173,-1
 1411 0 l 1,174,-1
 1246 0 l 1,175,-1
 930 996 l 2,176,177
 925 1010 925 1010 920.5 1026.5 c 128,-1,178
 916 1043 916 1043 911 1062 c 1,179,180
 907 1043 907 1043 902.5 1026.5 c 128,-1,181
 898 1010 898 1010 893 996 c 2,182,-1
 575 0 l 1,183,-1
 411 0 l 1,184,-1
 12 1314 l 1,143,-1
EndSplineSet
Validated: 1
EndChar

StartChar: x
Encoding: 120 120 50
Width: 4671
GlyphClass: 2
Flags: W
LayerCount: 2
Fore
SplineSet
3800 525 m 1,0,-1
 3800 0 l 1,1,-1
 3618 0 l 1,2,-1
 3618 523 l 1,3,-1
 3210 1314 l 1,4,-1
 3370 1314 l 2,5,6
 3393 1314 3393 1314 3408 1302 c 0,7,8
 3425 1288 3425 1288 3432 1272 c 2,9,-1
 3657 765 l 2,10,11
 3674 734 3674 734 3687 706.5 c 128,-1,12
 3700 679 3700 679 3710 652 c 1,13,14
 3720 679 3720 679 3732.5 706.5 c 128,-1,15
 3745 734 3745 734 3762 764 c 2,16,-1
 3985 1272 l 2,17,18
 3991 1285 3991 1285 4008 1300 c 0,19,20
 4023 1314 4023 1314 4046 1314 c 2,21,-1
 4208 1314 l 1,22,-1
 3800 525 l 1,0,-1
3353 0 m 1,23,-1
 3212 0 l 2,24,25
 3188 0 3188 0 3174 12 c 0,26,27
 3157 26 3157 26 3151 42 c 2,28,-1
 3039 358 l 1,29,-1
 2497 358 l 1,30,-1
 2386 43 l 2,31,32
 2380 26 2380 26 2363.5 13 c 128,-1,33
 2347 0 2347 0 2324 0 c 2,34,-1
 2183 0 l 1,35,-1
 2676 1314 l 1,36,-1
 2861 1314 l 1,37,-1
 3353 0 l 1,23,-1
2543 488 m 1,38,-1
 2993 488 l 1,39,-1
 2807 1017 l 2,40,41
 2797 1041 2797 1041 2787 1073 c 128,-1,42
 2777 1105 2777 1105 2768 1142 c 1,43,44
 2758 1104 2758 1104 2748 1072 c 0,45,46
 2735 1034 2735 1034 2729 1016 c 2,47,-1
 2543 488 l 1,38,-1
1392 546 m 1,48,-1
 1392 0 l 1,49,-1
 1210 0 l 1,50,-1
 1210 1314 l 1,51,-1
 1570 1314 l 2,52,53
 1690 1314 1690 1314 1777.5 1288.5 c 128,-1,54
 1865 1263 1865 1263 1921.5 1215.5 c 128,-1,55
 1978 1168 1978 1168 2005 1100.5 c 128,-1,56
 2032 1033 2032 1033 2032 949 c 0,57,58
 2032 880 2032 880 2011.5 820 c 128,-1,59
 1991 760 1991 760 1952.5 712 c 128,-1,60
 1914 664 1914 664 1858 629.5 c 128,-1,61
 1802 595 1802 595 1731 577 c 1,62,63
 1748 566 1748 566 1763 552 c 0,64,65
 1781 536 1781 536 1792 520 c 2,66,-1
 2145 0 l 1,67,-1
 1983 0 l 2,68,69
 1935 0 1935 0 1910 37 c 2,70,-1
 1599 505 l 2,71,72
 1584 527 1584 527 1566.5 536.5 c 128,-1,73
 1549 546 1549 546 1514 546 c 2,74,-1
 1392 546 l 1,48,-1
1392 679 m 1,75,-1
 1563 679 l 2,76,77
 1635 679 1635 679 1689.5 697.5 c 128,-1,78
 1744 716 1744 716 1781 750 c 128,-1,79
 1818 784 1818 784 1836.5 831.5 c 128,-1,80
 1855 879 1855 879 1855 936 c 0,81,82
 1855 1171 1855 1171 1570 1171 c 2,83,-1
 1392 1171 l 1,84,-1
 1392 679 l 1,75,-1
407 674 m 1,85,-1
 27 1314 l 1,86,-1
 208 1314 l 2,87,88
 228 1314 228 1314 237 1307 c 128,-1,89
 246 1300 246 1300 254 1289 c 2,90,-1
 543 777 l 1,91,92
 550 794 550 794 559 807 c 2,93,-1
 825 1286 l 2,94,95
 833 1299 833 1299 842.5 1306.5 c 128,-1,96
 852 1314 852 1314 866 1314 c 2,97,-1
 1040 1314 l 1,98,-1
 658 684 l 1,99,-1
 1052 0 l 1,100,-1
 871 0 l 2,101,102
 851 0 851 0 840 11 c 128,-1,103
 829 22 829 22 821 34 c 2,104,-1
 524 570 l 1,105,106
 519 555 519 555 512 545 c 2,107,-1
 228 34 l 2,108,109
 220 21 220 21 209 10.5 c 128,-1,110
 198 0 198 0 181 0 c 2,111,-1
 11 0 l 1,112,-1
 407 674 l 1,85,-1
EndSplineSet
Validated: 1
EndChar

StartChar: y
Encoding: 121 121 51
Width: 6880
GlyphClass: 2
Flags: W
LayerCount: 2
Fore
SplineSet
6330 1314 m 1,0,-1
 6330 1166 l 1,1,-1
 5745 1166 l 1,2,-1
 5745 735 l 1,3,-1
 6216 735 l 1,4,-1
 6216 592 l 1,5,-1
 5745 592 l 1,6,-1
 5745 148 l 1,7,-1
 6330 148 l 1,8,-1
 6330 0 l 1,9,-1
 5562 0 l 1,10,-1
 5562 1314 l 1,11,-1
 6330 1314 l 1,0,-1
5330 1314 m 1,12,-1
 5330 1166 l 1,13,-1
 4745 1166 l 1,14,-1
 4745 735 l 1,15,-1
 5216 735 l 1,16,-1
 5216 592 l 1,17,-1
 4745 592 l 1,18,-1
 4745 148 l 1,19,-1
 5330 148 l 1,20,-1
 5330 0 l 1,21,-1
 4562 0 l 1,22,-1
 4562 1314 l 1,23,-1
 5330 1314 l 1,12,-1
3659 740 m 1,24,-1
 3711 740 l 2,25,26
 3740 740 3740 740 3759 749 c 128,-1,27
 3778 758 3778 758 3792 778 c 2,28,-1
 4131 1272 l 2,29,30
 4145 1293 4145 1293 4168 1304 c 0,31,32
 4188 1314 4188 1314 4217 1314 c 2,33,-1
 4373 1314 l 1,34,-1
 3973 750 l 2,35,36
 3943 708 3943 708 3906 689 c 1,37,38
 3958 671 3958 671 3989 624 c 2,39,-1
 4402 0 l 1,40,-1
 4242 0 l 2,41,42
 4209 0 4209 0 4194 10 c 0,43,44
 4173 24 4173 24 4164 38 c 2,45,-1
 3816 558 l 2,46,47
 3800 581 3800 581 3781.5 590.5 c 128,-1,48
 3763 600 3763 600 3726 600 c 2,49,-1
 3659 600 l 1,50,-1
 3659 0 l 1,51,-1
 3477 0 l 1,52,-1
 3477 1314 l 1,53,-1
 3659 1314 l 1,54,-1
 3659 740 l 1,24,-1
2309 1308 m 0,55,56
 2322 1303 2322 1303 2336 1283 c 2,57,-1
 3050 300 l 1,58,59
 3048 324 3048 324 3046.5 347.5 c 128,-1,60
 3045 371 3045 371 3045 391 c 2,61,-1
 3045 1314 l 1,62,-1
 3205 1314 l 1,63,-1
 3205 0 l 1,64,-1
 3113 0 l 2,65,66
 3092 0 3092 0 3078 7 c 0,67,68
 3060 16 3060 16 3049 32 c 2,69,-1
 2335 1012 l 1,70,71
 2337 989 2337 989 2338 968 c 128,-1,72
 2339 947 2339 947 2339 928 c 2,73,-1
 2339 0 l 1,74,-1
 2179 0 l 1,75,-1
 2179 1314 l 1,76,-1
 2274 1314 l 1,77,78
 2297 1314 2297 1314 2309 1308 c 0,55,56
2024 0 m 1,79,-1
 1883 0 l 2,80,81
 1859 0 1859 0 1844 12 c 0,82,83
 1828 26 1828 26 1822 42 c 2,84,-1
 1710 358 l 1,85,-1
 1168 358 l 1,86,-1
 1057 43 l 2,87,88
 1051 26 1051 26 1034.5 13 c 128,-1,89
 1018 0 1018 0 995 0 c 2,90,-1
 854 0 l 1,91,-1
 1347 1314 l 1,92,-1
 1532 1314 l 1,93,-1
 2024 0 l 1,79,-1
1214 488 m 1,94,-1
 1664 488 l 1,95,-1
 1478 1017 l 2,96,97
 1468 1041 1468 1041 1458 1073 c 128,-1,98
 1448 1105 1448 1105 1439 1142 c 1,99,100
 1429 1104 1429 1104 1419 1072 c 0,101,102
 1406 1034 1406 1034 1400 1016 c 2,103,-1
 1214 488 l 1,94,-1
590 525 m 1,104,-1
 590 0 l 1,105,-1
 408 0 l 1,106,-1
 408 523 l 1,107,-1
 0 1314 l 1,108,-1
 160 1314 l 2,109,110
 183 1314 183 1314 197.5 1302.5 c 128,-1,111
 212 1291 212 1291 222 1272 c 2,112,-1
 447 765 l 2,113,114
 464 734 464 734 477 706.5 c 128,-1,115
 490 679 490 679 500 652 c 1,116,117
 510 679 510 679 522.5 706.5 c 128,-1,118
 535 734 535 734 552 764 c 2,119,-1
 775 1272 l 2,120,121
 783 1287 783 1287 798 1300.5 c 128,-1,122
 813 1314 813 1314 836 1314 c 2,123,-1
 998 1314 l 1,124,-1
 590 525 l 1,104,-1
EndSplineSet
Validated: 1
EndChar

StartChar: z
Encoding: 122 122 52
Width: 4911
GlyphClass: 2
Flags: W
LayerCount: 2
Fore
SplineSet
3747 144 m 256,0,1
 3826 144 3826 144 3888.5 171.5 c 128,-1,2
 3951 199 3951 199 3994 248.5 c 128,-1,3
 4037 298 4037 298 4059.5 366 c 128,-1,4
 4082 434 4082 434 4082 516 c 2,5,-1
 4082 1314 l 1,6,-1
 4264 1314 l 1,7,-1
 4264 516 l 2,8,9
 4264 402 4264 402 4228 305 c 128,-1,10
 4192 208 4192 208 4125.5 137 c 128,-1,11
 4059 66 4059 66 3963 25.5 c 128,-1,12
 3867 -15 3867 -15 3747 -15 c 256,13,14
 3627 -15 3627 -15 3531.5 25.5 c 128,-1,15
 3436 66 3436 66 3369 137 c 128,-1,16
 3302 208 3302 208 3266 305 c 128,-1,17
 3230 402 3230 402 3230 516 c 2,18,-1
 3230 1314 l 1,19,-1
 3412 1314 l 1,20,-1
 3412 517 l 2,21,22
 3412 435 3412 435 3434.5 366.5 c 128,-1,23
 3457 298 3457 298 3500 248.5 c 128,-1,24
 3543 199 3543 199 3605.5 171.5 c 128,-1,25
 3668 144 3668 144 3747 144 c 256,0,1
2593 153 m 1,26,-1
 3100 153 l 1,27,-1
 3100 0 l 1,28,-1
 2411 0 l 1,29,-1
 2411 1314 l 1,30,-1
 2593 1314 l 1,31,-1
 2593 153 l 1,26,-1
1616 144 m 256,32,33
 1695 144 1695 144 1757.5 171.5 c 128,-1,34
 1820 199 1820 199 1863 248.5 c 128,-1,35
 1906 298 1906 298 1928.5 366 c 128,-1,36
 1951 434 1951 434 1951 516 c 2,37,-1
 1951 1314 l 1,38,-1
 2133 1314 l 1,39,-1
 2133 516 l 2,40,41
 2133 402 2133 402 2097 305 c 128,-1,42
 2061 208 2061 208 1994.5 137 c 128,-1,43
 1928 66 1928 66 1832 25.5 c 128,-1,44
 1736 -15 1736 -15 1616 -15 c 256,45,46
 1496 -15 1496 -15 1400.5 25.5 c 128,-1,47
 1305 66 1305 66 1238 137 c 128,-1,48
 1171 208 1171 208 1135 305 c 128,-1,49
 1099 402 1099 402 1099 516 c 2,50,-1
 1099 1314 l 1,51,-1
 1281 1314 l 1,52,-1
 1281 517 l 2,53,54
 1281 435 1281 435 1303.5 366.5 c 128,-1,55
 1326 298 1326 298 1369 248.5 c 128,-1,56
 1412 199 1412 199 1474.5 171.5 c 128,-1,57
 1537 144 1537 144 1616 144 c 256,32,33
910 1314 m 1,58,-1
 910 1247 l 2,59,60
 910 1215 910 1215 891 1187 c 2,61,-1
 276 148 l 1,62,-1
 897 148 l 1,63,-1
 897 0 l 1,64,-1
 56 0 l 1,65,-1
 56 71 l 2,66,67
 56 86 56 86 61 99 c 128,-1,68
 66 112 66 112 74 124 c 2,69,-1
 688 1166 l 1,70,-1
 90 1166 l 1,71,-1
 90 1314 l 1,72,-1
 910 1314 l 1,58,-1
EndSplineSet
Validated: 1
EndChar

StartChar: period
Encoding: 46 46 53
Width: 1119
GlyphClass: 2
Flags: W
LayerCount: 2
Fore
SplineSet
487 -20 m 2,0,1
 471.609375 -54.6220703125 471.609375 -54.6220703125 446 -70.5 c 0,2,3
 419 -87 419 -87 390 -87 c 2,4,-1
 316 -87 l 1,5,-1
 962 1358 l 2,6,7
 991 1422 991 1422 1054 1422 c 2,8,-1
 1128 1422 l 1,9,-1
 487 -20 l 2,0,1
-304 -20 m 2,10,11
 -318 -54 -318 -54 -345 -70.5 c 128,-1,12
 -372 -87 -372 -87 -401 -87 c 2,13,-1
 -475 -87 l 1,14,-1
 171 1358 l 2,15,16
 196 1422 196 1422 263 1422 c 2,17,-1
 337 1422 l 1,18,-1
 -304 -20 l 2,10,11
EndSplineSet
Validated: 1
EndChar

StartChar: l
Encoding: 108 108 55
Width: 4806
GlyphClass: 2
Flags: W
LayerCount: 2
Fore
SplineSet
4306 0 m 1,0,-1
 4165 0 l 2,1,2
 4141 0 4141 0 4126 12 c 0,3,4
 4110 26 4110 26 4104 42 c 2,5,-1
 3992 358 l 1,6,-1
 3450 358 l 1,7,-1
 3339 43 l 2,8,9
 3333 26 3333 26 3316.5 13 c 128,-1,10
 3300 0 3300 0 3277 0 c 2,11,-1
 3136 0 l 1,12,-1
 3629 1314 l 1,13,-1
 3814 1314 l 1,14,-1
 4306 0 l 1,0,-1
3496 488 m 1,15,-1
 3946 488 l 1,16,-1
 3760 1017 l 2,17,18
 3750 1041 3750 1041 3740 1073 c 128,-1,19
 3730 1105 3730 1105 3721 1142 c 1,20,21
 3711 1104 3711 1104 3701 1072 c 0,22,23
 3688 1034 3688 1034 3682 1016 c 2,24,-1
 3496 488 l 1,15,-1
2235.5 432 m 128,-1,26
 2246 408 2246 408 2256 383 c 1,27,28
 2267 409 2267 409 2276 433 c 0,29,30
 2287 459 2287 459 2299 479 c 2,31,-1
 2763 1284 l 2,32,33
 2775 1305 2775 1305 2789 1309.5 c 128,-1,34
 2803 1314 2803 1314 2827 1314 c 2,35,-1
 2961 1314 l 1,36,-1
 2961 0 l 1,37,-1
 2800 0 l 1,38,-1
 2800 959 l 2,39,40
 2800 979 2800 979 2801.5 1003.5 c 128,-1,41
 2803 1028 2803 1028 2805 1053 c 1,42,-1
 2336 229 l 2,43,44
 2313 188 2313 188 2270 188 c 2,45,-1
 2244 188 l 2,46,47
 2202 188 2202 188 2178 229 c 2,48,-1
 1698 1052 l 1,49,50
 1704 1002 1704 1002 1704 959 c 2,51,-1
 1704 0 l 1,52,-1
 1544 0 l 1,53,-1
 1544 1314 l 1,54,-1
 1678 1314 l 2,55,56
 1702 1314 1702 1314 1716 1310 c 0,57,58
 1729 1305 1729 1305 1742 1283 c 2,59,-1
 2212 479 l 1,60,25
 2225 456 2225 456 2235.5 432 c 128,-1,26
1210 0 m 1,61,-1
 1028 0 l 1,62,-1
 1028 1314 l 1,63,-1
 1210 1314 l 1,64,-1
 1210 0 l 1,61,-1
320 153 m 1,65,-1
 827 153 l 1,66,-1
 827 0 l 1,67,-1
 138 0 l 1,68,-1
 138 1314 l 1,69,-1
 320 1314 l 1,70,-1
 320 153 l 1,65,-1
EndSplineSet
Validated: 1
EndChar

